<svg xmlns="http://www.w3.org/2000/svg" xmlns:xlink="http://www.w3.org/1999/xlink" xmlns:inkscape="http://www.inkscape.org/namespaces/inkscape" version="1.1" width="198" height="165" viewBox="0 0 198 165">
<defs>
<clipPath id="clip_1">
<path transform="matrix(1.00003,0,0,-1.00002,2.0964967,163.22095)" d="M194.23903 0V0H0V161.4221H194.23903Z"/>
</clipPath>
<path id="font_2_1" d="M.33399964 .30233766C.33999635 .32835389 .36299134 .42037965 .43299867 .42037965 .43798829 .42037965 .46199037 .42037965 .48298646 .40734864 .45498658 .402359 .43499757 .37734986 .43499757 .35334779 .43499757 .33735658 .44599916 .31835938 .47299195 .31835938 .49499513 .31835938 .5269928 .3363495 .5269928 .37635804 .5269928 .42837525 .46798707 .4423828 .43399049 .4423828 .37599183 .4423828 .34098817 .38935853 .32899476 .36634828 .3039856 .43237306 .25 .4423828 .22099304 .4423828 .116989139 .4423828 .05999756 .3133545 .05999756 .28834535 .05999756 .27833558 .069992069 .27833558 .07199097 .27833558 .07998657 .27833558 .08299255 .28033448 .084991458 .28933717 .11898804 .39535523 .18499756 .42037965 .21899414 .42037965 .23799134 .42037965 .272995 .4113617 .272995 .35334779 .272995 .32235719 .2559967 .25532533 .21899414 .11528015 .20298767 .053268434 .16799927 .011245728 .12399292 .011245728 .117996219 .011245728 .09498596 .011245728 .07398987 .024276734 .09899902 .029266358 .12098694 .05027771 .12098694 .07827759 .12098694 .105270389 .09899902 .11328125 .083999637 .11328125 .053985597 .11328125 .0289917 .08728027 .0289917 .055267335 .0289917 .009246826 .07899475-.0107421879 .12298584-.0107421879 .18899536-.0107421879 .22499085 .059280397 .22799683 .0652771 .23999024 .028274537 .27598573-.0107421879 .33599855-.0107421879 .43899537-.0107421879 .49598695 .118270877 .49598695 .14328003 .49598695 .1532898 .4869995 .1532898 .48399354 .1532898 .47499085 .1532898 .47299195 .14929199 .47099305 .14228821 .43798829 .03527832 .36999513 .011245728 .33799745 .011245728 .29899598 .011245728 .2829895 .043273927 .2829895 .07727051 .2829895 .09927368 .2889862 .121276859 .2999878 .16529846L.33399964 .30233766Z"/>
<path id="font_2_2" d="M.48599244 .38136292C.48999024 .39537049 .48999024 .39736939 .48999024 .40437318 .48999024 .42237855 .47599793 .43138124 .46099855 .43138124 .45098878 .43138124 .43499757 .42536927 .42599488 .41036988 .42399598 .405365 .41600038 .37435914 .4119873 .35635377 .40499879 .33035279 .397995 .30334474 .3919983 .27633668L.34700013 .09628296C.34298707 .08126831 .2999878 .011245728 .23399353 .011245728 .18299866 .011245728 .17199707 .055267335 .17199707 .0922699 .17199707 .1382904 .18899536 .20030213 .22299195 .28833009 .23899842 .3293457 .24299622 .3403473 .24299622 .36035157 .24299622 .405365 .21099854 .4423828 .16099549 .4423828 .06599426 .4423828 .0289917 .29733277 .0289917 .28833009 .0289917 .27833558 .038986207 .27833558 .040985109 .27833558 .050994874 .27833558 .051986696 .28033448 .056991579 .29634095 .083999637 .3903656 .12399292 .42037965 .1579895 .42037965 .1659851 .42037965 .18299866 .42037965 .18299866 .3883667 .18299866 .36335755 .17298889 .3373413 .1659851 .31834413 .12599182 .21231079 .10798645 .1552887 .10798645 .10827637 .10798645 .019256592 .17098999-.0107421879 .22999573-.0107421879 .2689972-.0107421879 .30299378 .0062561037 .33099366 .03425598 .31799317-.017745972 .30599977-.06674194 .2659912-.11973572 .23999024-.15385437 .20199585-.18309021 .1559906-.18309021 .14199829-.18309021 .09700012-.18005371 .07998657-.14074707 .09599304-.14074707 .10899353-.14074707 .12298584-.1287384 .1329956-.11973572 .14299011-.10673523 .14299011-.08773804 .14299011-.056747438 .115997318-.052734376 .10598755-.052734376 .08299255-.052734376 .049987794-.068740848 .049987794-.11773682 .049987794-.16796875 .09399414-.20507813 .1559906-.20507813 .25898744-.20507813 .3619995-.11373901 .3899994-.00074768069L.48599244 .38136292Z"/>
</defs>
<g clip-path="url(#clip_1)">
<path transform="matrix(1.00003,0,0,-1.00002,2.0964967,163.22095)" stroke-width=".3985" stroke-linecap="butt" stroke-miterlimit="10" stroke-linejoin="miter" fill="none" stroke="#ff0000" d="M0 3.86243 .78947 0"/>
<path transform="matrix(1.00003,0,0,-1.00002,2.0964967,163.22095)" stroke-width=".3985" stroke-linecap="butt" stroke-miterlimit="10" stroke-linejoin="miter" fill="none" stroke="#ff0000" d="M13.7208 3.86243 14.7298 .03409"/>
<path transform="matrix(1.00003,0,0,-1.00002,2.0964967,163.22095)" stroke-width=".3985" stroke-linecap="butt" stroke-miterlimit="10" stroke-linejoin="miter" fill="none" stroke="#ff0000" d="M27.4416 3.86243 28.77164 .09987"/>
<path transform="matrix(1.00003,0,0,-1.00002,2.0964967,163.22095)" stroke-width=".3985" stroke-linecap="butt" stroke-miterlimit="10" stroke-linejoin="miter" fill="none" stroke="#ff0000" d="M41.1624 3.86243 42.97786 .2372"/>
<path transform="matrix(1.00003,0,0,-1.00002,2.0964967,163.22095)" stroke-width=".3985" stroke-linecap="butt" stroke-miterlimit="10" stroke-linejoin="miter" fill="none" stroke="#ff0000" d="M54.88321 3.86243 57.43779 .54663"/>
<path transform="matrix(1.00003,0,0,-1.00002,2.0964967,163.22095)" stroke-width=".3985" stroke-linecap="butt" stroke-miterlimit="10" stroke-linejoin="miter" fill="none" stroke="#ff0000" d="M68.60402 3.86243 72.17706 1.24615"/>
<path transform="matrix(1.00003,0,0,-1.00002,2.0964967,163.22095)" stroke-width=".3985" stroke-linecap="butt" stroke-miterlimit="10" stroke-linejoin="miter" fill="none" stroke="#ff0000" d="M82.32481 3.86243 86.8326 2.51215"/>
<path transform="matrix(1.00003,0,0,-1.00002,2.0964967,163.22095)" stroke-width=".3985" stroke-linecap="butt" stroke-miterlimit="10" stroke-linejoin="miter" fill="none" stroke="#ff0000" d="M96.04562 3.86243 100.84793 3.86238"/>
<path transform="matrix(1.00003,0,0,-1.00002,2.0964967,163.22095)" stroke-width=".3985" stroke-linecap="butt" stroke-miterlimit="10" stroke-linejoin="miter" fill="none" stroke="#ff0000" d="M109.76642 3.86243 114.47173 4.64539"/>
<path transform="matrix(1.00003,0,0,-1.00002,2.0964967,163.22095)" stroke-width=".3985" stroke-linecap="butt" stroke-miterlimit="10" stroke-linejoin="miter" fill="none" stroke="#ff0000" d="M123.48723 3.86243 128.15172 4.79384"/>
<path transform="matrix(1.00003,0,0,-1.00002,2.0964967,163.22095)" stroke-width=".3985" stroke-linecap="butt" stroke-miterlimit="10" stroke-linejoin="miter" fill="none" stroke="#ff0000" d="M137.20804 3.86243 141.9748 4.33838"/>
<path transform="matrix(1.00003,0,0,-1.00002,2.0964967,163.22095)" stroke-width=".3985" stroke-linecap="butt" stroke-miterlimit="10" stroke-linejoin="miter" fill="none" stroke="#ff0000" d="M150.92884 3.86243 155.66846 3.23154"/>
<path transform="matrix(1.00003,0,0,-1.00002,2.0964967,163.22095)" stroke-width=".3985" stroke-linecap="butt" stroke-miterlimit="10" stroke-linejoin="miter" fill="none" stroke="#ff0000" d="M164.64965 3.86243 168.74538 1.81784"/>
<path transform="matrix(1.00003,0,0,-1.00002,2.0964967,163.22095)" stroke-width=".3985" stroke-linecap="butt" stroke-miterlimit="10" stroke-linejoin="miter" fill="none" stroke="#ff0000" d="M178.37044 3.86243 181.40814 .8296"/>
<path transform="matrix(1.00003,0,0,-1.00002,2.0964967,163.22095)" stroke-width=".3985" stroke-linecap="butt" stroke-miterlimit="10" stroke-linejoin="miter" fill="none" stroke="#ff0000" d="M192.09125 3.86243 194.23903 .36003"/>
<path transform="matrix(1.00003,0,0,-1.00002,2.0964967,163.22095)" stroke-width=".3985" stroke-linecap="butt" stroke-miterlimit="10" stroke-linejoin="miter" fill="none" stroke="#ff0000" d="M0 15.05016 .78947 11.18771"/>
<path transform="matrix(1.00003,0,0,-1.00002,2.0964967,163.22095)" stroke-width=".3985" stroke-linecap="butt" stroke-miterlimit="10" stroke-linejoin="miter" fill="none" stroke="#ff0000" d="M13.7208 15.05016 14.7298 11.22182"/>
<path transform="matrix(1.00003,0,0,-1.00002,2.0964967,163.22095)" stroke-width=".3985" stroke-linecap="butt" stroke-miterlimit="10" stroke-linejoin="miter" fill="none" stroke="#ff0000" d="M27.4416 15.05016 28.77164 11.28761"/>
<path transform="matrix(1.00003,0,0,-1.00002,2.0964967,163.22095)" stroke-width=".3985" stroke-linecap="butt" stroke-miterlimit="10" stroke-linejoin="miter" fill="none" stroke="#ff0000" d="M41.1624 15.05016 42.97786 11.42493"/>
<path transform="matrix(1.00003,0,0,-1.00002,2.0964967,163.22095)" stroke-width=".3985" stroke-linecap="butt" stroke-miterlimit="10" stroke-linejoin="miter" fill="none" stroke="#ff0000" d="M54.88321 15.05016 57.43779 11.73436"/>
<path transform="matrix(1.00003,0,0,-1.00002,2.0964967,163.22095)" stroke-width=".3985" stroke-linecap="butt" stroke-miterlimit="10" stroke-linejoin="miter" fill="none" stroke="#ff0000" d="M68.60402 15.05016 72.17706 12.43388"/>
<path transform="matrix(1.00003,0,0,-1.00002,2.0964967,163.22095)" stroke-width=".3985" stroke-linecap="butt" stroke-miterlimit="10" stroke-linejoin="miter" fill="none" stroke="#ff0000" d="M82.32481 15.05016 86.8326 13.69987"/>
<path transform="matrix(1.00003,0,0,-1.00002,2.0964967,163.22095)" stroke-width=".3985" stroke-linecap="butt" stroke-miterlimit="10" stroke-linejoin="miter" fill="none" stroke="#ff0000" d="M96.04562 15.05016 100.84793 15.05013"/>
<path transform="matrix(1.00003,0,0,-1.00002,2.0964967,163.22095)" stroke-width=".3985" stroke-linecap="butt" stroke-miterlimit="10" stroke-linejoin="miter" fill="none" stroke="#ff0000" d="M109.76642 15.05016 114.47173 15.83311"/>
<path transform="matrix(1.00003,0,0,-1.00002,2.0964967,163.22095)" stroke-width=".3985" stroke-linecap="butt" stroke-miterlimit="10" stroke-linejoin="miter" fill="none" stroke="#ff0000" d="M123.48723 15.05016 128.15172 15.98158"/>
<path transform="matrix(1.00003,0,0,-1.00002,2.0964967,163.22095)" stroke-width=".3985" stroke-linecap="butt" stroke-miterlimit="10" stroke-linejoin="miter" fill="none" stroke="#ff0000" d="M137.20804 15.05016 141.9748 15.52611"/>
<path transform="matrix(1.00003,0,0,-1.00002,2.0964967,163.22095)" stroke-width=".3985" stroke-linecap="butt" stroke-miterlimit="10" stroke-linejoin="miter" fill="none" stroke="#ff0000" d="M150.92884 15.05016 155.66846 14.41927"/>
<path transform="matrix(1.00003,0,0,-1.00002,2.0964967,163.22095)" stroke-width=".3985" stroke-linecap="butt" stroke-miterlimit="10" stroke-linejoin="miter" fill="none" stroke="#ff0000" d="M164.64965 15.05016 168.74538 13.00558"/>
<path transform="matrix(1.00003,0,0,-1.00002,2.0964967,163.22095)" stroke-width=".3985" stroke-linecap="butt" stroke-miterlimit="10" stroke-linejoin="miter" fill="none" stroke="#ff0000" d="M178.37044 15.05016 181.40814 12.01733"/>
<path transform="matrix(1.00003,0,0,-1.00002,2.0964967,163.22095)" stroke-width=".3985" stroke-linecap="butt" stroke-miterlimit="10" stroke-linejoin="miter" fill="none" stroke="#ff0000" d="M192.09125 15.05016 194.23903 11.54776"/>
<path transform="matrix(1.00003,0,0,-1.00002,2.0964967,163.22095)" stroke-width=".3985" stroke-linecap="butt" stroke-miterlimit="10" stroke-linejoin="miter" fill="none" stroke="#ff0000" d="M0 26.23788 .78947 22.37544"/>
<path transform="matrix(1.00003,0,0,-1.00002,2.0964967,163.22095)" stroke-width=".3985" stroke-linecap="butt" stroke-miterlimit="10" stroke-linejoin="miter" fill="none" stroke="#ff0000" d="M13.7208 26.23788 14.7298 22.40955"/>
<path transform="matrix(1.00003,0,0,-1.00002,2.0964967,163.22095)" stroke-width=".3985" stroke-linecap="butt" stroke-miterlimit="10" stroke-linejoin="miter" fill="none" stroke="#ff0000" d="M27.4416 26.23788 28.77164 22.47534"/>
<path transform="matrix(1.00003,0,0,-1.00002,2.0964967,163.22095)" stroke-width=".3985" stroke-linecap="butt" stroke-miterlimit="10" stroke-linejoin="miter" fill="none" stroke="#ff0000" d="M41.1624 26.23788 42.97786 22.61266"/>
<path transform="matrix(1.00003,0,0,-1.00002,2.0964967,163.22095)" stroke-width=".3985" stroke-linecap="butt" stroke-miterlimit="10" stroke-linejoin="miter" fill="none" stroke="#ff0000" d="M54.88321 26.23788 57.43779 22.92209"/>
<path transform="matrix(1.00003,0,0,-1.00002,2.0964967,163.22095)" stroke-width=".3985" stroke-linecap="butt" stroke-miterlimit="10" stroke-linejoin="miter" fill="none" stroke="#ff0000" d="M68.60402 26.23788 72.17706 23.62163"/>
<path transform="matrix(1.00003,0,0,-1.00002,2.0964967,163.22095)" stroke-width=".3985" stroke-linecap="butt" stroke-miterlimit="10" stroke-linejoin="miter" fill="none" stroke="#ff0000" d="M82.32481 26.23788 86.8326 24.8876"/>
<path transform="matrix(1.00003,0,0,-1.00002,2.0964967,163.22095)" stroke-width=".3985" stroke-linecap="butt" stroke-miterlimit="10" stroke-linejoin="miter" fill="none" stroke="#ff0000" d="M96.04562 26.23788 100.84793 26.23785"/>
<path transform="matrix(1.00003,0,0,-1.00002,2.0964967,163.22095)" stroke-width=".3985" stroke-linecap="butt" stroke-miterlimit="10" stroke-linejoin="miter" fill="none" stroke="#ff0000" d="M109.76642 26.23788 114.47173 27.02086"/>
<path transform="matrix(1.00003,0,0,-1.00002,2.0964967,163.22095)" stroke-width=".3985" stroke-linecap="butt" stroke-miterlimit="10" stroke-linejoin="miter" fill="none" stroke="#ff0000" d="M123.48723 26.23788 128.15172 27.16931"/>
<path transform="matrix(1.00003,0,0,-1.00002,2.0964967,163.22095)" stroke-width=".3985" stroke-linecap="butt" stroke-miterlimit="10" stroke-linejoin="miter" fill="none" stroke="#ff0000" d="M137.20804 26.23788 141.9748 26.71384"/>
<path transform="matrix(1.00003,0,0,-1.00002,2.0964967,163.22095)" stroke-width=".3985" stroke-linecap="butt" stroke-miterlimit="10" stroke-linejoin="miter" fill="none" stroke="#ff0000" d="M150.92884 26.23788 155.66846 25.607"/>
<path transform="matrix(1.00003,0,0,-1.00002,2.0964967,163.22095)" stroke-width=".3985" stroke-linecap="butt" stroke-miterlimit="10" stroke-linejoin="miter" fill="none" stroke="#ff0000" d="M164.64965 26.23788 168.74538 24.19331"/>
<path transform="matrix(1.00003,0,0,-1.00002,2.0964967,163.22095)" stroke-width=".3985" stroke-linecap="butt" stroke-miterlimit="10" stroke-linejoin="miter" fill="none" stroke="#ff0000" d="M178.37044 26.23788 181.40814 23.20506"/>
<path transform="matrix(1.00003,0,0,-1.00002,2.0964967,163.22095)" stroke-width=".3985" stroke-linecap="butt" stroke-miterlimit="10" stroke-linejoin="miter" fill="none" stroke="#ff0000" d="M192.09125 26.23788 194.23903 22.73549"/>
<path transform="matrix(1.00003,0,0,-1.00002,2.0964967,163.22095)" stroke-width=".3985" stroke-linecap="butt" stroke-miterlimit="10" stroke-linejoin="miter" fill="none" stroke="#ff0000" d="M0 37.42561 .78947 33.56317"/>
<path transform="matrix(1.00003,0,0,-1.00002,2.0964967,163.22095)" stroke-width=".3985" stroke-linecap="butt" stroke-miterlimit="10" stroke-linejoin="miter" fill="none" stroke="#ff0000" d="M13.7208 37.42561 14.7298 33.59729"/>
<path transform="matrix(1.00003,0,0,-1.00002,2.0964967,163.22095)" stroke-width=".3985" stroke-linecap="butt" stroke-miterlimit="10" stroke-linejoin="miter" fill="none" stroke="#ff0000" d="M27.4416 37.42561 28.77164 33.66307"/>
<path transform="matrix(1.00003,0,0,-1.00002,2.0964967,163.22095)" stroke-width=".3985" stroke-linecap="butt" stroke-miterlimit="10" stroke-linejoin="miter" fill="none" stroke="#ff0000" d="M41.1624 37.42561 42.97786 33.8004"/>
<path transform="matrix(1.00003,0,0,-1.00002,2.0964967,163.22095)" stroke-width=".3985" stroke-linecap="butt" stroke-miterlimit="10" stroke-linejoin="miter" fill="none" stroke="#ff0000" d="M54.88321 37.42561 57.43779 34.10982"/>
<path transform="matrix(1.00003,0,0,-1.00002,2.0964967,163.22095)" stroke-width=".3985" stroke-linecap="butt" stroke-miterlimit="10" stroke-linejoin="miter" fill="none" stroke="#ff0000" d="M68.60402 37.42561 72.17706 34.80936"/>
<path transform="matrix(1.00003,0,0,-1.00002,2.0964967,163.22095)" stroke-width=".3985" stroke-linecap="butt" stroke-miterlimit="10" stroke-linejoin="miter" fill="none" stroke="#ff0000" d="M82.32481 37.42561 86.8326 36.07535"/>
<path transform="matrix(1.00003,0,0,-1.00002,2.0964967,163.22095)" stroke-width=".3985" stroke-linecap="butt" stroke-miterlimit="10" stroke-linejoin="miter" fill="none" stroke="#ff0000" d="M96.04562 37.42561 100.84793 37.42558"/>
<path transform="matrix(1.00003,0,0,-1.00002,2.0964967,163.22095)" stroke-width=".3985" stroke-linecap="butt" stroke-miterlimit="10" stroke-linejoin="miter" fill="none" stroke="#ff0000" d="M109.76642 37.42561 114.47173 38.20859"/>
<path transform="matrix(1.00003,0,0,-1.00002,2.0964967,163.22095)" stroke-width=".3985" stroke-linecap="butt" stroke-miterlimit="10" stroke-linejoin="miter" fill="none" stroke="#ff0000" d="M123.48723 37.42561 128.15172 38.35704"/>
<path transform="matrix(1.00003,0,0,-1.00002,2.0964967,163.22095)" stroke-width=".3985" stroke-linecap="butt" stroke-miterlimit="10" stroke-linejoin="miter" fill="none" stroke="#ff0000" d="M137.20804 37.42561 141.9748 37.90158"/>
<path transform="matrix(1.00003,0,0,-1.00002,2.0964967,163.22095)" stroke-width=".3985" stroke-linecap="butt" stroke-miterlimit="10" stroke-linejoin="miter" fill="none" stroke="#ff0000" d="M150.92884 37.42561 155.66846 36.79474"/>
<path transform="matrix(1.00003,0,0,-1.00002,2.0964967,163.22095)" stroke-width=".3985" stroke-linecap="butt" stroke-miterlimit="10" stroke-linejoin="miter" fill="none" stroke="#ff0000" d="M164.64965 37.42561 168.74538 35.38104"/>
<path transform="matrix(1.00003,0,0,-1.00002,2.0964967,163.22095)" stroke-width=".3985" stroke-linecap="butt" stroke-miterlimit="10" stroke-linejoin="miter" fill="none" stroke="#ff0000" d="M178.37044 37.42561 181.40814 34.3928"/>
<path transform="matrix(1.00003,0,0,-1.00002,2.0964967,163.22095)" stroke-width=".3985" stroke-linecap="butt" stroke-miterlimit="10" stroke-linejoin="miter" fill="none" stroke="#ff0000" d="M192.09125 37.42561 194.23903 33.92323"/>
<path transform="matrix(1.00003,0,0,-1.00002,2.0964967,163.22095)" stroke-width=".3985" stroke-linecap="butt" stroke-miterlimit="10" stroke-linejoin="miter" fill="none" stroke="#ff0000" d="M0 48.61336 .78947 44.75092"/>
<path transform="matrix(1.00003,0,0,-1.00002,2.0964967,163.22095)" stroke-width=".3985" stroke-linecap="butt" stroke-miterlimit="10" stroke-linejoin="miter" fill="none" stroke="#ff0000" d="M13.7208 48.61336 14.7298 44.78502"/>
<path transform="matrix(1.00003,0,0,-1.00002,2.0964967,163.22095)" stroke-width=".3985" stroke-linecap="butt" stroke-miterlimit="10" stroke-linejoin="miter" fill="none" stroke="#ff0000" d="M27.4416 48.61336 28.77164 44.8508"/>
<path transform="matrix(1.00003,0,0,-1.00002,2.0964967,163.22095)" stroke-width=".3985" stroke-linecap="butt" stroke-miterlimit="10" stroke-linejoin="miter" fill="none" stroke="#ff0000" d="M41.1624 48.61336 42.97786 44.98811"/>
<path transform="matrix(1.00003,0,0,-1.00002,2.0964967,163.22095)" stroke-width=".3985" stroke-linecap="butt" stroke-miterlimit="10" stroke-linejoin="miter" fill="none" stroke="#ff0000" d="M54.88321 48.61336 57.43779 45.29756"/>
<path transform="matrix(1.00003,0,0,-1.00002,2.0964967,163.22095)" stroke-width=".3985" stroke-linecap="butt" stroke-miterlimit="10" stroke-linejoin="miter" fill="none" stroke="#ff0000" d="M68.60402 48.61336 72.17706 45.99709"/>
<path transform="matrix(1.00003,0,0,-1.00002,2.0964967,163.22095)" stroke-width=".3985" stroke-linecap="butt" stroke-miterlimit="10" stroke-linejoin="miter" fill="none" stroke="#ff0000" d="M82.32481 48.61336 86.8326 47.26306"/>
<path transform="matrix(1.00003,0,0,-1.00002,2.0964967,163.22095)" stroke-width=".3985" stroke-linecap="butt" stroke-miterlimit="10" stroke-linejoin="miter" fill="none" stroke="#ff0000" d="M96.04562 48.61336 100.84793 48.61331"/>
<path transform="matrix(1.00003,0,0,-1.00002,2.0964967,163.22095)" stroke-width=".3985" stroke-linecap="butt" stroke-miterlimit="10" stroke-linejoin="miter" fill="none" stroke="#ff0000" d="M109.76642 48.61336 114.47173 49.39633"/>
<path transform="matrix(1.00003,0,0,-1.00002,2.0964967,163.22095)" stroke-width=".3985" stroke-linecap="butt" stroke-miterlimit="10" stroke-linejoin="miter" fill="none" stroke="#ff0000" d="M123.48723 48.61336 128.15172 49.54478"/>
<path transform="matrix(1.00003,0,0,-1.00002,2.0964967,163.22095)" stroke-width=".3985" stroke-linecap="butt" stroke-miterlimit="10" stroke-linejoin="miter" fill="none" stroke="#ff0000" d="M137.20804 48.61336 141.9748 49.08931"/>
<path transform="matrix(1.00003,0,0,-1.00002,2.0964967,163.22095)" stroke-width=".3985" stroke-linecap="butt" stroke-miterlimit="10" stroke-linejoin="miter" fill="none" stroke="#ff0000" d="M150.92884 48.61336 155.66846 47.98247"/>
<path transform="matrix(1.00003,0,0,-1.00002,2.0964967,163.22095)" stroke-width=".3985" stroke-linecap="butt" stroke-miterlimit="10" stroke-linejoin="miter" fill="none" stroke="#ff0000" d="M164.64965 48.61336 168.74538 46.56877"/>
<path transform="matrix(1.00003,0,0,-1.00002,2.0964967,163.22095)" stroke-width=".3985" stroke-linecap="butt" stroke-miterlimit="10" stroke-linejoin="miter" fill="none" stroke="#ff0000" d="M178.37044 48.61336 181.40814 45.58054"/>
<path transform="matrix(1.00003,0,0,-1.00002,2.0964967,163.22095)" stroke-width=".3985" stroke-linecap="butt" stroke-miterlimit="10" stroke-linejoin="miter" fill="none" stroke="#ff0000" d="M192.09125 48.61336 194.23903 45.11096"/>
<path transform="matrix(1.00003,0,0,-1.00002,2.0964967,163.22095)" stroke-width=".3985" stroke-linecap="butt" stroke-miterlimit="10" stroke-linejoin="miter" fill="none" stroke="#ff0000" d="M0 59.80109 .78947 55.93864"/>
<path transform="matrix(1.00003,0,0,-1.00002,2.0964967,163.22095)" stroke-width=".3985" stroke-linecap="butt" stroke-miterlimit="10" stroke-linejoin="miter" fill="none" stroke="#ff0000" d="M13.7208 59.80109 14.7298 55.97275"/>
<path transform="matrix(1.00003,0,0,-1.00002,2.0964967,163.22095)" stroke-width=".3985" stroke-linecap="butt" stroke-miterlimit="10" stroke-linejoin="miter" fill="none" stroke="#ff0000" d="M27.4416 59.80109 28.77164 56.03854"/>
<path transform="matrix(1.00003,0,0,-1.00002,2.0964967,163.22095)" stroke-width=".3985" stroke-linecap="butt" stroke-miterlimit="10" stroke-linejoin="miter" fill="none" stroke="#ff0000" d="M41.1624 59.80109 42.97786 56.17586"/>
<path transform="matrix(1.00003,0,0,-1.00002,2.0964967,163.22095)" stroke-width=".3985" stroke-linecap="butt" stroke-miterlimit="10" stroke-linejoin="miter" fill="none" stroke="#ff0000" d="M54.88321 59.80109 57.43779 56.48529"/>
<path transform="matrix(1.00003,0,0,-1.00002,2.0964967,163.22095)" stroke-width=".3985" stroke-linecap="butt" stroke-miterlimit="10" stroke-linejoin="miter" fill="none" stroke="#ff0000" d="M68.60402 59.80109 72.17706 57.18481"/>
<path transform="matrix(1.00003,0,0,-1.00002,2.0964967,163.22095)" stroke-width=".3985" stroke-linecap="butt" stroke-miterlimit="10" stroke-linejoin="miter" fill="none" stroke="#ff0000" d="M82.32481 59.80109 86.8326 58.4508"/>
<path transform="matrix(1.00003,0,0,-1.00002,2.0964967,163.22095)" stroke-width=".3985" stroke-linecap="butt" stroke-miterlimit="10" stroke-linejoin="miter" fill="none" stroke="#ff0000" d="M96.04562 59.80109 100.84793 59.80106"/>
<path transform="matrix(1.00003,0,0,-1.00002,2.0964967,163.22095)" stroke-width=".3985" stroke-linecap="butt" stroke-miterlimit="10" stroke-linejoin="miter" fill="none" stroke="#ff0000" d="M109.76642 59.80109 114.47173 60.58406"/>
<path transform="matrix(1.00003,0,0,-1.00002,2.0964967,163.22095)" stroke-width=".3985" stroke-linecap="butt" stroke-miterlimit="10" stroke-linejoin="miter" fill="none" stroke="#ff0000" d="M123.48723 59.80109 128.15172 60.73251"/>
<path transform="matrix(1.00003,0,0,-1.00002,2.0964967,163.22095)" stroke-width=".3985" stroke-linecap="butt" stroke-miterlimit="10" stroke-linejoin="miter" fill="none" stroke="#ff0000" d="M137.20804 59.80109 141.9748 60.27705"/>
<path transform="matrix(1.00003,0,0,-1.00002,2.0964967,163.22095)" stroke-width=".3985" stroke-linecap="butt" stroke-miterlimit="10" stroke-linejoin="miter" fill="none" stroke="#ff0000" d="M150.92884 59.80109 155.66846 59.1702"/>
<path transform="matrix(1.00003,0,0,-1.00002,2.0964967,163.22095)" stroke-width=".3985" stroke-linecap="butt" stroke-miterlimit="10" stroke-linejoin="miter" fill="none" stroke="#ff0000" d="M164.64965 59.80109 168.74538 57.75652"/>
<path transform="matrix(1.00003,0,0,-1.00002,2.0964967,163.22095)" stroke-width=".3985" stroke-linecap="butt" stroke-miterlimit="10" stroke-linejoin="miter" fill="none" stroke="#ff0000" d="M178.37044 59.80109 181.40814 56.76826"/>
<path transform="matrix(1.00003,0,0,-1.00002,2.0964967,163.22095)" stroke-width=".3985" stroke-linecap="butt" stroke-miterlimit="10" stroke-linejoin="miter" fill="none" stroke="#ff0000" d="M192.09125 59.80109 194.23903 56.29869"/>
<path transform="matrix(1.00003,0,0,-1.00002,2.0964967,163.22095)" stroke-width=".3985" stroke-linecap="butt" stroke-miterlimit="10" stroke-linejoin="miter" fill="none" stroke="#ff0000" d="M0 70.9888 .78947 67.12637"/>
<path transform="matrix(1.00003,0,0,-1.00002,2.0964967,163.22095)" stroke-width=".3985" stroke-linecap="butt" stroke-miterlimit="10" stroke-linejoin="miter" fill="none" stroke="#ff0000" d="M13.7208 70.9888 14.7298 67.16049"/>
<path transform="matrix(1.00003,0,0,-1.00002,2.0964967,163.22095)" stroke-width=".3985" stroke-linecap="butt" stroke-miterlimit="10" stroke-linejoin="miter" fill="none" stroke="#ff0000" d="M27.4416 70.9888 28.77164 67.22627"/>
<path transform="matrix(1.00003,0,0,-1.00002,2.0964967,163.22095)" stroke-width=".3985" stroke-linecap="butt" stroke-miterlimit="10" stroke-linejoin="miter" fill="none" stroke="#ff0000" d="M41.1624 70.9888 42.97786 67.36359"/>
<path transform="matrix(1.00003,0,0,-1.00002,2.0964967,163.22095)" stroke-width=".3985" stroke-linecap="butt" stroke-miterlimit="10" stroke-linejoin="miter" fill="none" stroke="#ff0000" d="M54.88321 70.9888 57.43779 67.67302"/>
<path transform="matrix(1.00003,0,0,-1.00002,2.0964967,163.22095)" stroke-width=".3985" stroke-linecap="butt" stroke-miterlimit="10" stroke-linejoin="miter" fill="none" stroke="#ff0000" d="M68.60402 70.9888 72.17706 68.37254"/>
<path transform="matrix(1.00003,0,0,-1.00002,2.0964967,163.22095)" stroke-width=".3985" stroke-linecap="butt" stroke-miterlimit="10" stroke-linejoin="miter" fill="none" stroke="#ff0000" d="M82.32481 70.9888 86.8326 69.63853"/>
<path transform="matrix(1.00003,0,0,-1.00002,2.0964967,163.22095)" stroke-width=".3985" stroke-linecap="butt" stroke-miterlimit="10" stroke-linejoin="miter" fill="none" stroke="#ff0000" d="M96.04562 70.9888 100.84793 70.98878"/>
<path transform="matrix(1.00003,0,0,-1.00002,2.0964967,163.22095)" stroke-width=".3985" stroke-linecap="butt" stroke-miterlimit="10" stroke-linejoin="miter" fill="none" stroke="#ff0000" d="M109.76642 70.9888 114.47173 71.77179"/>
<path transform="matrix(1.00003,0,0,-1.00002,2.0964967,163.22095)" stroke-width=".3985" stroke-linecap="butt" stroke-miterlimit="10" stroke-linejoin="miter" fill="none" stroke="#ff0000" d="M123.48723 70.9888 128.15172 71.92024"/>
<path transform="matrix(1.00003,0,0,-1.00002,2.0964967,163.22095)" stroke-width=".3985" stroke-linecap="butt" stroke-miterlimit="10" stroke-linejoin="miter" fill="none" stroke="#ff0000" d="M137.20804 70.9888 141.9748 71.46478"/>
<path transform="matrix(1.00003,0,0,-1.00002,2.0964967,163.22095)" stroke-width=".3985" stroke-linecap="butt" stroke-miterlimit="10" stroke-linejoin="miter" fill="none" stroke="#ff0000" d="M150.92884 70.9888 155.66846 70.35793"/>
<path transform="matrix(1.00003,0,0,-1.00002,2.0964967,163.22095)" stroke-width=".3985" stroke-linecap="butt" stroke-miterlimit="10" stroke-linejoin="miter" fill="none" stroke="#ff0000" d="M164.64965 70.9888 168.74538 68.94424"/>
<path transform="matrix(1.00003,0,0,-1.00002,2.0964967,163.22095)" stroke-width=".3985" stroke-linecap="butt" stroke-miterlimit="10" stroke-linejoin="miter" fill="none" stroke="#ff0000" d="M178.37044 70.9888 181.40814 67.95601"/>
<path transform="matrix(1.00003,0,0,-1.00002,2.0964967,163.22095)" stroke-width=".3985" stroke-linecap="butt" stroke-miterlimit="10" stroke-linejoin="miter" fill="none" stroke="#ff0000" d="M192.09125 70.9888 194.23903 67.48642"/>
<path transform="matrix(1.00003,0,0,-1.00002,2.0964967,163.22095)" stroke-width=".3985" stroke-linecap="butt" stroke-miterlimit="10" stroke-linejoin="miter" fill="none" stroke="#ff0000" d="M0 82.17653 .78947 78.3141"/>
<path transform="matrix(1.00003,0,0,-1.00002,2.0964967,163.22095)" stroke-width=".3985" stroke-linecap="butt" stroke-miterlimit="10" stroke-linejoin="miter" fill="none" stroke="#ff0000" d="M13.7208 82.17653 14.7298 78.34822"/>
<path transform="matrix(1.00003,0,0,-1.00002,2.0964967,163.22095)" stroke-width=".3985" stroke-linecap="butt" stroke-miterlimit="10" stroke-linejoin="miter" fill="none" stroke="#ff0000" d="M27.4416 82.17653 28.77164 78.414"/>
<path transform="matrix(1.00003,0,0,-1.00002,2.0964967,163.22095)" stroke-width=".3985" stroke-linecap="butt" stroke-miterlimit="10" stroke-linejoin="miter" fill="none" stroke="#ff0000" d="M41.1624 82.17653 42.97786 78.55133"/>
<path transform="matrix(1.00003,0,0,-1.00002,2.0964967,163.22095)" stroke-width=".3985" stroke-linecap="butt" stroke-miterlimit="10" stroke-linejoin="miter" fill="none" stroke="#ff0000" d="M54.88321 82.17653 57.43779 78.86075"/>
<path transform="matrix(1.00003,0,0,-1.00002,2.0964967,163.22095)" stroke-width=".3985" stroke-linecap="butt" stroke-miterlimit="10" stroke-linejoin="miter" fill="none" stroke="#ff0000" d="M68.60402 82.17653 72.17706 79.56029"/>
<path transform="matrix(1.00003,0,0,-1.00002,2.0964967,163.22095)" stroke-width=".3985" stroke-linecap="butt" stroke-miterlimit="10" stroke-linejoin="miter" fill="none" stroke="#ff0000" d="M82.32481 82.17653 86.8326 80.82628"/>
<path transform="matrix(1.00003,0,0,-1.00002,2.0964967,163.22095)" stroke-width=".3985" stroke-linecap="butt" stroke-miterlimit="10" stroke-linejoin="miter" fill="none" stroke="#ff0000" d="M96.04562 82.17653 100.84793 82.1765"/>
<path transform="matrix(1.00003,0,0,-1.00002,2.0964967,163.22095)" stroke-width=".3985" stroke-linecap="butt" stroke-miterlimit="10" stroke-linejoin="miter" fill="none" stroke="#ff0000" d="M109.76642 82.17653 114.47173 82.95952"/>
<path transform="matrix(1.00003,0,0,-1.00002,2.0964967,163.22095)" stroke-width=".3985" stroke-linecap="butt" stroke-miterlimit="10" stroke-linejoin="miter" fill="none" stroke="#ff0000" d="M123.48723 82.17653 128.15172 83.10799"/>
<path transform="matrix(1.00003,0,0,-1.00002,2.0964967,163.22095)" stroke-width=".3985" stroke-linecap="butt" stroke-miterlimit="10" stroke-linejoin="miter" fill="none" stroke="#ff0000" d="M137.20804 82.17653 141.9748 82.65251"/>
<path transform="matrix(1.00003,0,0,-1.00002,2.0964967,163.22095)" stroke-width=".3985" stroke-linecap="butt" stroke-miterlimit="10" stroke-linejoin="miter" fill="none" stroke="#ff0000" d="M150.92884 82.17653 155.66846 81.54567"/>
<path transform="matrix(1.00003,0,0,-1.00002,2.0964967,163.22095)" stroke-width=".3985" stroke-linecap="butt" stroke-miterlimit="10" stroke-linejoin="miter" fill="none" stroke="#ff0000" d="M164.64965 82.17653 168.74538 80.13199"/>
<path transform="matrix(1.00003,0,0,-1.00002,2.0964967,163.22095)" stroke-width=".3985" stroke-linecap="butt" stroke-miterlimit="10" stroke-linejoin="miter" fill="none" stroke="#ff0000" d="M178.37044 82.17653 181.40814 79.14374"/>
<path transform="matrix(1.00003,0,0,-1.00002,2.0964967,163.22095)" stroke-width=".3985" stroke-linecap="butt" stroke-miterlimit="10" stroke-linejoin="miter" fill="none" stroke="#ff0000" d="M192.09125 82.17653 194.23903 78.67416"/>
<path transform="matrix(1.00003,0,0,-1.00002,2.0964967,163.22095)" stroke-width=".3985" stroke-linecap="butt" stroke-miterlimit="10" stroke-linejoin="miter" fill="none" stroke="#ff0000" d="M0 93.36427 .78947 89.50185"/>
<path transform="matrix(1.00003,0,0,-1.00002,2.0964967,163.22095)" stroke-width=".3985" stroke-linecap="butt" stroke-miterlimit="10" stroke-linejoin="miter" fill="none" stroke="#ff0000" d="M13.7208 93.36427 14.7298 89.53595"/>
<path transform="matrix(1.00003,0,0,-1.00002,2.0964967,163.22095)" stroke-width=".3985" stroke-linecap="butt" stroke-miterlimit="10" stroke-linejoin="miter" fill="none" stroke="#ff0000" d="M27.4416 93.36427 28.77164 89.60173"/>
<path transform="matrix(1.00003,0,0,-1.00002,2.0964967,163.22095)" stroke-width=".3985" stroke-linecap="butt" stroke-miterlimit="10" stroke-linejoin="miter" fill="none" stroke="#ff0000" d="M41.1624 93.36427 42.97786 89.73906"/>
<path transform="matrix(1.00003,0,0,-1.00002,2.0964967,163.22095)" stroke-width=".3985" stroke-linecap="butt" stroke-miterlimit="10" stroke-linejoin="miter" fill="none" stroke="#ff0000" d="M54.88321 93.36427 57.43779 90.0485"/>
<path transform="matrix(1.00003,0,0,-1.00002,2.0964967,163.22095)" stroke-width=".3985" stroke-linecap="butt" stroke-miterlimit="10" stroke-linejoin="miter" fill="none" stroke="#ff0000" d="M68.60402 93.36427 72.17706 90.74802"/>
<path transform="matrix(1.00003,0,0,-1.00002,2.0964967,163.22095)" stroke-width=".3985" stroke-linecap="butt" stroke-miterlimit="10" stroke-linejoin="miter" fill="none" stroke="#ff0000" d="M82.32481 93.36427 86.8326 92.014"/>
<path transform="matrix(1.00003,0,0,-1.00002,2.0964967,163.22095)" stroke-width=".3985" stroke-linecap="butt" stroke-miterlimit="10" stroke-linejoin="miter" fill="none" stroke="#ff0000" d="M96.04562 93.36427 100.84793 93.36423"/>
<path transform="matrix(1.00003,0,0,-1.00002,2.0964967,163.22095)" stroke-width=".3985" stroke-linecap="butt" stroke-miterlimit="10" stroke-linejoin="miter" fill="none" stroke="#ff0000" d="M109.76642 93.36427 114.47173 94.14726"/>
<path transform="matrix(1.00003,0,0,-1.00002,2.0964967,163.22095)" stroke-width=".3985" stroke-linecap="butt" stroke-miterlimit="10" stroke-linejoin="miter" fill="none" stroke="#ff0000" d="M123.48723 93.36427 128.15172 94.29572"/>
<path transform="matrix(1.00003,0,0,-1.00002,2.0964967,163.22095)" stroke-width=".3985" stroke-linecap="butt" stroke-miterlimit="10" stroke-linejoin="miter" fill="none" stroke="#ff0000" d="M137.20804 93.36427 141.9748 93.84024"/>
<path transform="matrix(1.00003,0,0,-1.00002,2.0964967,163.22095)" stroke-width=".3985" stroke-linecap="butt" stroke-miterlimit="10" stroke-linejoin="miter" fill="none" stroke="#ff0000" d="M150.92884 93.36427 155.66846 92.7334"/>
<path transform="matrix(1.00003,0,0,-1.00002,2.0964967,163.22095)" stroke-width=".3985" stroke-linecap="butt" stroke-miterlimit="10" stroke-linejoin="miter" fill="none" stroke="#ff0000" d="M164.64965 93.36427 168.74538 91.31972"/>
<path transform="matrix(1.00003,0,0,-1.00002,2.0964967,163.22095)" stroke-width=".3985" stroke-linecap="butt" stroke-miterlimit="10" stroke-linejoin="miter" fill="none" stroke="#ff0000" d="M178.37044 93.36427 181.40814 90.33147"/>
<path transform="matrix(1.00003,0,0,-1.00002,2.0964967,163.22095)" stroke-width=".3985" stroke-linecap="butt" stroke-miterlimit="10" stroke-linejoin="miter" fill="none" stroke="#ff0000" d="M192.09125 93.36427 194.23903 89.8619"/>
<path transform="matrix(1.00003,0,0,-1.00002,2.0964967,163.22095)" stroke-width=".3985" stroke-linecap="butt" stroke-miterlimit="10" stroke-linejoin="miter" fill="none" stroke="#ff0000" d="M0 104.552 .78947 100.68958"/>
<path transform="matrix(1.00003,0,0,-1.00002,2.0964967,163.22095)" stroke-width=".3985" stroke-linecap="butt" stroke-miterlimit="10" stroke-linejoin="miter" fill="none" stroke="#ff0000" d="M13.7208 104.552 14.7298 100.72368"/>
<path transform="matrix(1.00003,0,0,-1.00002,2.0964967,163.22095)" stroke-width=".3985" stroke-linecap="butt" stroke-miterlimit="10" stroke-linejoin="miter" fill="none" stroke="#ff0000" d="M27.4416 104.552 28.77164 100.78947"/>
<path transform="matrix(1.00003,0,0,-1.00002,2.0964967,163.22095)" stroke-width=".3985" stroke-linecap="butt" stroke-miterlimit="10" stroke-linejoin="miter" fill="none" stroke="#ff0000" d="M41.1624 104.552 42.97786 100.92679"/>
<path transform="matrix(1.00003,0,0,-1.00002,2.0964967,163.22095)" stroke-width=".3985" stroke-linecap="butt" stroke-miterlimit="10" stroke-linejoin="miter" fill="none" stroke="#ff0000" d="M54.88321 104.552 57.43779 101.23622"/>
<path transform="matrix(1.00003,0,0,-1.00002,2.0964967,163.22095)" stroke-width=".3985" stroke-linecap="butt" stroke-miterlimit="10" stroke-linejoin="miter" fill="none" stroke="#ff0000" d="M68.60402 104.552 72.17706 101.93576"/>
<path transform="matrix(1.00003,0,0,-1.00002,2.0964967,163.22095)" stroke-width=".3985" stroke-linecap="butt" stroke-miterlimit="10" stroke-linejoin="miter" fill="none" stroke="#ff0000" d="M82.32481 104.552 86.8326 103.20174"/>
<path transform="matrix(1.00003,0,0,-1.00002,2.0964967,163.22095)" stroke-width=".3985" stroke-linecap="butt" stroke-miterlimit="10" stroke-linejoin="miter" fill="none" stroke="#ff0000" d="M96.04562 104.552 100.84793 104.55197"/>
<path transform="matrix(1.00003,0,0,-1.00002,2.0964967,163.22095)" stroke-width=".3985" stroke-linecap="butt" stroke-miterlimit="10" stroke-linejoin="miter" fill="none" stroke="#ff0000" d="M109.76642 104.552 114.47173 105.33499"/>
<path transform="matrix(1.00003,0,0,-1.00002,2.0964967,163.22095)" stroke-width=".3985" stroke-linecap="butt" stroke-miterlimit="10" stroke-linejoin="miter" fill="none" stroke="#ff0000" d="M123.48723 104.552 128.15172 105.48344"/>
<path transform="matrix(1.00003,0,0,-1.00002,2.0964967,163.22095)" stroke-width=".3985" stroke-linecap="butt" stroke-miterlimit="10" stroke-linejoin="miter" fill="none" stroke="#ff0000" d="M137.20804 104.552 141.9748 105.02798"/>
<path transform="matrix(1.00003,0,0,-1.00002,2.0964967,163.22095)" stroke-width=".3985" stroke-linecap="butt" stroke-miterlimit="10" stroke-linejoin="miter" fill="none" stroke="#ff0000" d="M150.92884 104.552 155.66846 103.92113"/>
<path transform="matrix(1.00003,0,0,-1.00002,2.0964967,163.22095)" stroke-width=".3985" stroke-linecap="butt" stroke-miterlimit="10" stroke-linejoin="miter" fill="none" stroke="#ff0000" d="M164.64965 104.552 168.74538 102.50745"/>
<path transform="matrix(1.00003,0,0,-1.00002,2.0964967,163.22095)" stroke-width=".3985" stroke-linecap="butt" stroke-miterlimit="10" stroke-linejoin="miter" fill="none" stroke="#ff0000" d="M178.37044 104.552 181.40814 101.5192"/>
<path transform="matrix(1.00003,0,0,-1.00002,2.0964967,163.22095)" stroke-width=".3985" stroke-linecap="butt" stroke-miterlimit="10" stroke-linejoin="miter" fill="none" stroke="#ff0000" d="M192.09125 104.552 194.23903 101.04962"/>
<path transform="matrix(1.00003,0,0,-1.00002,2.0964967,163.22095)" stroke-width=".3985" stroke-linecap="butt" stroke-miterlimit="10" stroke-linejoin="miter" fill="none" stroke="#ff0000" d="M0 115.73975 .78947 111.8773"/>
<path transform="matrix(1.00003,0,0,-1.00002,2.0964967,163.22095)" stroke-width=".3985" stroke-linecap="butt" stroke-miterlimit="10" stroke-linejoin="miter" fill="none" stroke="#ff0000" d="M13.7208 115.73975 14.7298 111.91142"/>
<path transform="matrix(1.00003,0,0,-1.00002,2.0964967,163.22095)" stroke-width=".3985" stroke-linecap="butt" stroke-miterlimit="10" stroke-linejoin="miter" fill="none" stroke="#ff0000" d="M27.4416 115.73975 28.77164 111.9772"/>
<path transform="matrix(1.00003,0,0,-1.00002,2.0964967,163.22095)" stroke-width=".3985" stroke-linecap="butt" stroke-miterlimit="10" stroke-linejoin="miter" fill="none" stroke="#ff0000" d="M41.1624 115.73975 42.97786 112.11452"/>
<path transform="matrix(1.00003,0,0,-1.00002,2.0964967,163.22095)" stroke-width=".3985" stroke-linecap="butt" stroke-miterlimit="10" stroke-linejoin="miter" fill="none" stroke="#ff0000" d="M54.88321 115.73975 57.43779 112.42397"/>
<path transform="matrix(1.00003,0,0,-1.00002,2.0964967,163.22095)" stroke-width=".3985" stroke-linecap="butt" stroke-miterlimit="10" stroke-linejoin="miter" fill="none" stroke="#ff0000" d="M68.60402 115.73975 72.17706 113.12349"/>
<path transform="matrix(1.00003,0,0,-1.00002,2.0964967,163.22095)" stroke-width=".3985" stroke-linecap="butt" stroke-miterlimit="10" stroke-linejoin="miter" fill="none" stroke="#ff0000" d="M82.32481 115.73975 86.8326 114.38947"/>
<path transform="matrix(1.00003,0,0,-1.00002,2.0964967,163.22095)" stroke-width=".3985" stroke-linecap="butt" stroke-miterlimit="10" stroke-linejoin="miter" fill="none" stroke="#ff0000" d="M96.04562 115.73975 100.84793 115.7397"/>
<path transform="matrix(1.00003,0,0,-1.00002,2.0964967,163.22095)" stroke-width=".3985" stroke-linecap="butt" stroke-miterlimit="10" stroke-linejoin="miter" fill="none" stroke="#ff0000" d="M109.76642 115.73975 114.47173 116.52274"/>
<path transform="matrix(1.00003,0,0,-1.00002,2.0964967,163.22095)" stroke-width=".3985" stroke-linecap="butt" stroke-miterlimit="10" stroke-linejoin="miter" fill="none" stroke="#ff0000" d="M123.48723 115.73975 128.15172 116.67119"/>
<path transform="matrix(1.00003,0,0,-1.00002,2.0964967,163.22095)" stroke-width=".3985" stroke-linecap="butt" stroke-miterlimit="10" stroke-linejoin="miter" fill="none" stroke="#ff0000" d="M137.20804 115.73975 141.9748 116.21571"/>
<path transform="matrix(1.00003,0,0,-1.00002,2.0964967,163.22095)" stroke-width=".3985" stroke-linecap="butt" stroke-miterlimit="10" stroke-linejoin="miter" fill="none" stroke="#ff0000" d="M150.92884 115.73975 155.66846 115.10886"/>
<path transform="matrix(1.00003,0,0,-1.00002,2.0964967,163.22095)" stroke-width=".3985" stroke-linecap="butt" stroke-miterlimit="10" stroke-linejoin="miter" fill="none" stroke="#ff0000" d="M164.64965 115.73975 168.74538 113.69518"/>
<path transform="matrix(1.00003,0,0,-1.00002,2.0964967,163.22095)" stroke-width=".3985" stroke-linecap="butt" stroke-miterlimit="10" stroke-linejoin="miter" fill="none" stroke="#ff0000" d="M178.37044 115.73975 181.40814 112.70694"/>
<path transform="matrix(1.00003,0,0,-1.00002,2.0964967,163.22095)" stroke-width=".3985" stroke-linecap="butt" stroke-miterlimit="10" stroke-linejoin="miter" fill="none" stroke="#ff0000" d="M192.09125 115.73975 194.23903 112.23737"/>
<path transform="matrix(1.00003,0,0,-1.00002,2.0964967,163.22095)" stroke-width=".3985" stroke-linecap="butt" stroke-miterlimit="10" stroke-linejoin="miter" fill="none" stroke="#ff0000" d="M0 126.92747 .78947 123.06505"/>
<path transform="matrix(1.00003,0,0,-1.00002,2.0964967,163.22095)" stroke-width=".3985" stroke-linecap="butt" stroke-miterlimit="10" stroke-linejoin="miter" fill="none" stroke="#ff0000" d="M13.7208 126.92747 14.7298 123.09915"/>
<path transform="matrix(1.00003,0,0,-1.00002,2.0964967,163.22095)" stroke-width=".3985" stroke-linecap="butt" stroke-miterlimit="10" stroke-linejoin="miter" fill="none" stroke="#ff0000" d="M27.4416 126.92747 28.77164 123.16495"/>
<path transform="matrix(1.00003,0,0,-1.00002,2.0964967,163.22095)" stroke-width=".3985" stroke-linecap="butt" stroke-miterlimit="10" stroke-linejoin="miter" fill="none" stroke="#ff0000" d="M41.1624 126.92747 42.97786 123.30226"/>
<path transform="matrix(1.00003,0,0,-1.00002,2.0964967,163.22095)" stroke-width=".3985" stroke-linecap="butt" stroke-miterlimit="10" stroke-linejoin="miter" fill="none" stroke="#ff0000" d="M54.88321 126.92747 57.43779 123.6117"/>
<path transform="matrix(1.00003,0,0,-1.00002,2.0964967,163.22095)" stroke-width=".3985" stroke-linecap="butt" stroke-miterlimit="10" stroke-linejoin="miter" fill="none" stroke="#ff0000" d="M68.60402 126.92747 72.17706 124.31123"/>
<path transform="matrix(1.00003,0,0,-1.00002,2.0964967,163.22095)" stroke-width=".3985" stroke-linecap="butt" stroke-miterlimit="10" stroke-linejoin="miter" fill="none" stroke="#ff0000" d="M82.32481 126.92747 86.8326 125.57721"/>
<path transform="matrix(1.00003,0,0,-1.00002,2.0964967,163.22095)" stroke-width=".3985" stroke-linecap="butt" stroke-miterlimit="10" stroke-linejoin="miter" fill="none" stroke="#ff0000" d="M96.04562 126.92747 100.84793 126.92744"/>
<path transform="matrix(1.00003,0,0,-1.00002,2.0964967,163.22095)" stroke-width=".3985" stroke-linecap="butt" stroke-miterlimit="10" stroke-linejoin="miter" fill="none" stroke="#ff0000" d="M109.76642 126.92747 114.47173 127.71046"/>
<path transform="matrix(1.00003,0,0,-1.00002,2.0964967,163.22095)" stroke-width=".3985" stroke-linecap="butt" stroke-miterlimit="10" stroke-linejoin="miter" fill="none" stroke="#ff0000" d="M123.48723 126.92747 128.15172 127.85892"/>
<path transform="matrix(1.00003,0,0,-1.00002,2.0964967,163.22095)" stroke-width=".3985" stroke-linecap="butt" stroke-miterlimit="10" stroke-linejoin="miter" fill="none" stroke="#ff0000" d="M137.20804 126.92747 141.9748 127.40344"/>
<path transform="matrix(1.00003,0,0,-1.00002,2.0964967,163.22095)" stroke-width=".3985" stroke-linecap="butt" stroke-miterlimit="10" stroke-linejoin="miter" fill="none" stroke="#ff0000" d="M150.92884 126.92747 155.66846 126.2966"/>
<path transform="matrix(1.00003,0,0,-1.00002,2.0964967,163.22095)" stroke-width=".3985" stroke-linecap="butt" stroke-miterlimit="10" stroke-linejoin="miter" fill="none" stroke="#ff0000" d="M164.64965 126.92747 168.74538 124.88292"/>
<path transform="matrix(1.00003,0,0,-1.00002,2.0964967,163.22095)" stroke-width=".3985" stroke-linecap="butt" stroke-miterlimit="10" stroke-linejoin="miter" fill="none" stroke="#ff0000" d="M178.37044 126.92747 181.40814 123.89467"/>
<path transform="matrix(1.00003,0,0,-1.00002,2.0964967,163.22095)" stroke-width=".3985" stroke-linecap="butt" stroke-miterlimit="10" stroke-linejoin="miter" fill="none" stroke="#ff0000" d="M192.09125 126.92747 194.23903 123.4251"/>
<path transform="matrix(1.00003,0,0,-1.00002,2.0964967,163.22095)" stroke-width=".3985" stroke-linecap="butt" stroke-miterlimit="10" stroke-linejoin="miter" fill="none" stroke="#ff0000" d="M0 138.1152 .78947 134.25278"/>
<path transform="matrix(1.00003,0,0,-1.00002,2.0964967,163.22095)" stroke-width=".3985" stroke-linecap="butt" stroke-miterlimit="10" stroke-linejoin="miter" fill="none" stroke="#ff0000" d="M13.7208 138.1152 14.7298 134.2869"/>
<path transform="matrix(1.00003,0,0,-1.00002,2.0964967,163.22095)" stroke-width=".3985" stroke-linecap="butt" stroke-miterlimit="10" stroke-linejoin="miter" fill="none" stroke="#ff0000" d="M27.4416 138.1152 28.77164 134.35268"/>
<path transform="matrix(1.00003,0,0,-1.00002,2.0964967,163.22095)" stroke-width=".3985" stroke-linecap="butt" stroke-miterlimit="10" stroke-linejoin="miter" fill="none" stroke="#ff0000" d="M41.1624 138.1152 42.97786 134.48999"/>
<path transform="matrix(1.00003,0,0,-1.00002,2.0964967,163.22095)" stroke-width=".3985" stroke-linecap="butt" stroke-miterlimit="10" stroke-linejoin="miter" fill="none" stroke="#ff0000" d="M54.88321 138.1152 57.43779 134.79943"/>
<path transform="matrix(1.00003,0,0,-1.00002,2.0964967,163.22095)" stroke-width=".3985" stroke-linecap="butt" stroke-miterlimit="10" stroke-linejoin="miter" fill="none" stroke="#ff0000" d="M68.60402 138.1152 72.17706 135.49897"/>
<path transform="matrix(1.00003,0,0,-1.00002,2.0964967,163.22095)" stroke-width=".3985" stroke-linecap="butt" stroke-miterlimit="10" stroke-linejoin="miter" fill="none" stroke="#ff0000" d="M82.32481 138.1152 86.8326 136.76494"/>
<path transform="matrix(1.00003,0,0,-1.00002,2.0964967,163.22095)" stroke-width=".3985" stroke-linecap="butt" stroke-miterlimit="10" stroke-linejoin="miter" fill="none" stroke="#ff0000" d="M96.04562 138.1152 100.84793 138.11518"/>
<path transform="matrix(1.00003,0,0,-1.00002,2.0964967,163.22095)" stroke-width=".3985" stroke-linecap="butt" stroke-miterlimit="10" stroke-linejoin="miter" fill="none" stroke="#ff0000" d="M109.76642 138.1152 114.47173 138.8982"/>
<path transform="matrix(1.00003,0,0,-1.00002,2.0964967,163.22095)" stroke-width=".3985" stroke-linecap="butt" stroke-miterlimit="10" stroke-linejoin="miter" fill="none" stroke="#ff0000" d="M123.48723 138.1152 128.15172 139.04665"/>
<path transform="matrix(1.00003,0,0,-1.00002,2.0964967,163.22095)" stroke-width=".3985" stroke-linecap="butt" stroke-miterlimit="10" stroke-linejoin="miter" fill="none" stroke="#ff0000" d="M137.20804 138.1152 141.9748 138.59117"/>
<path transform="matrix(1.00003,0,0,-1.00002,2.0964967,163.22095)" stroke-width=".3985" stroke-linecap="butt" stroke-miterlimit="10" stroke-linejoin="miter" fill="none" stroke="#ff0000" d="M150.92884 138.1152 155.66846 137.48433"/>
<path transform="matrix(1.00003,0,0,-1.00002,2.0964967,163.22095)" stroke-width=".3985" stroke-linecap="butt" stroke-miterlimit="10" stroke-linejoin="miter" fill="none" stroke="#ff0000" d="M164.64965 138.1152 168.74538 136.07065"/>
<path transform="matrix(1.00003,0,0,-1.00002,2.0964967,163.22095)" stroke-width=".3985" stroke-linecap="butt" stroke-miterlimit="10" stroke-linejoin="miter" fill="none" stroke="#ff0000" d="M178.37044 138.1152 181.40814 135.0824"/>
<path transform="matrix(1.00003,0,0,-1.00002,2.0964967,163.22095)" stroke-width=".3985" stroke-linecap="butt" stroke-miterlimit="10" stroke-linejoin="miter" fill="none" stroke="#ff0000" d="M192.09125 138.1152 194.23903 134.61283"/>
<path transform="matrix(1.00003,0,0,-1.00002,2.0964967,163.22095)" stroke-width=".3985" stroke-linecap="butt" stroke-miterlimit="10" stroke-linejoin="miter" fill="none" stroke="#ff0000" d="M0 149.30294 .78947 145.4405"/>
<path transform="matrix(1.00003,0,0,-1.00002,2.0964967,163.22095)" stroke-width=".3985" stroke-linecap="butt" stroke-miterlimit="10" stroke-linejoin="miter" fill="none" stroke="#ff0000" d="M13.7208 149.30294 14.7298 145.47463"/>
<path transform="matrix(1.00003,0,0,-1.00002,2.0964967,163.22095)" stroke-width=".3985" stroke-linecap="butt" stroke-miterlimit="10" stroke-linejoin="miter" fill="none" stroke="#ff0000" d="M27.4416 149.30294 28.77164 145.5404"/>
<path transform="matrix(1.00003,0,0,-1.00002,2.0964967,163.22095)" stroke-width=".3985" stroke-linecap="butt" stroke-miterlimit="10" stroke-linejoin="miter" fill="none" stroke="#ff0000" d="M41.1624 149.30294 42.97786 145.67774"/>
<path transform="matrix(1.00003,0,0,-1.00002,2.0964967,163.22095)" stroke-width=".3985" stroke-linecap="butt" stroke-miterlimit="10" stroke-linejoin="miter" fill="none" stroke="#ff0000" d="M54.88321 149.30294 57.43779 145.98715"/>
<path transform="matrix(1.00003,0,0,-1.00002,2.0964967,163.22095)" stroke-width=".3985" stroke-linecap="butt" stroke-miterlimit="10" stroke-linejoin="miter" fill="none" stroke="#ff0000" d="M68.60402 149.30294 72.17706 146.68669"/>
<path transform="matrix(1.00003,0,0,-1.00002,2.0964967,163.22095)" stroke-width=".3985" stroke-linecap="butt" stroke-miterlimit="10" stroke-linejoin="miter" fill="none" stroke="#ff0000" d="M82.32481 149.30294 86.8326 147.95269"/>
<path transform="matrix(1.00003,0,0,-1.00002,2.0964967,163.22095)" stroke-width=".3985" stroke-linecap="butt" stroke-miterlimit="10" stroke-linejoin="miter" fill="none" stroke="#ff0000" d="M96.04562 149.30294 100.84793 149.3029"/>
<path transform="matrix(1.00003,0,0,-1.00002,2.0964967,163.22095)" stroke-width=".3985" stroke-linecap="butt" stroke-miterlimit="10" stroke-linejoin="miter" fill="none" stroke="#ff0000" d="M109.76642 149.30294 114.47173 150.08592"/>
<path transform="matrix(1.00003,0,0,-1.00002,2.0964967,163.22095)" stroke-width=".3985" stroke-linecap="butt" stroke-miterlimit="10" stroke-linejoin="miter" fill="none" stroke="#ff0000" d="M123.48723 149.30294 128.15172 150.23438"/>
<path transform="matrix(1.00003,0,0,-1.00002,2.0964967,163.22095)" stroke-width=".3985" stroke-linecap="butt" stroke-miterlimit="10" stroke-linejoin="miter" fill="none" stroke="#ff0000" d="M137.20804 149.30294 141.9748 149.77892"/>
<path transform="matrix(1.00003,0,0,-1.00002,2.0964967,163.22095)" stroke-width=".3985" stroke-linecap="butt" stroke-miterlimit="10" stroke-linejoin="miter" fill="none" stroke="#ff0000" d="M150.92884 149.30294 155.66846 148.67208"/>
<path transform="matrix(1.00003,0,0,-1.00002,2.0964967,163.22095)" stroke-width=".3985" stroke-linecap="butt" stroke-miterlimit="10" stroke-linejoin="miter" fill="none" stroke="#ff0000" d="M164.64965 149.30294 168.74538 147.25838"/>
<path transform="matrix(1.00003,0,0,-1.00002,2.0964967,163.22095)" stroke-width=".3985" stroke-linecap="butt" stroke-miterlimit="10" stroke-linejoin="miter" fill="none" stroke="#ff0000" d="M178.37044 149.30294 181.40814 146.27014"/>
<path transform="matrix(1.00003,0,0,-1.00002,2.0964967,163.22095)" stroke-width=".3985" stroke-linecap="butt" stroke-miterlimit="10" stroke-linejoin="miter" fill="none" stroke="#ff0000" d="M192.09125 149.30294 194.23903 145.80057"/>
<path transform="matrix(1.00003,0,0,-1.00002,2.0964967,163.22095)" stroke-width=".3985" stroke-linecap="butt" stroke-miterlimit="10" stroke-linejoin="miter" fill="none" stroke="#ff0000" d="M0 160.49068 .78947 156.62825"/>
<path transform="matrix(1.00003,0,0,-1.00002,2.0964967,163.22095)" stroke-width=".3985" stroke-linecap="butt" stroke-miterlimit="10" stroke-linejoin="miter" fill="none" stroke="#ff0000" d="M13.7208 160.49068 14.7298 156.66236"/>
<path transform="matrix(1.00003,0,0,-1.00002,2.0964967,163.22095)" stroke-width=".3985" stroke-linecap="butt" stroke-miterlimit="10" stroke-linejoin="miter" fill="none" stroke="#ff0000" d="M27.4416 160.49068 28.77164 156.72814"/>
<path transform="matrix(1.00003,0,0,-1.00002,2.0964967,163.22095)" stroke-width=".3985" stroke-linecap="butt" stroke-miterlimit="10" stroke-linejoin="miter" fill="none" stroke="#ff0000" d="M41.1624 160.49068 42.97786 156.86547"/>
<path transform="matrix(1.00003,0,0,-1.00002,2.0964967,163.22095)" stroke-width=".3985" stroke-linecap="butt" stroke-miterlimit="10" stroke-linejoin="miter" fill="none" stroke="#ff0000" d="M54.88321 160.49068 57.43779 157.1749"/>
<path transform="matrix(1.00003,0,0,-1.00002,2.0964967,163.22095)" stroke-width=".3985" stroke-linecap="butt" stroke-miterlimit="10" stroke-linejoin="miter" fill="none" stroke="#ff0000" d="M68.60402 160.49068 72.17706 157.87442"/>
<path transform="matrix(1.00003,0,0,-1.00002,2.0964967,163.22095)" stroke-width=".3985" stroke-linecap="butt" stroke-miterlimit="10" stroke-linejoin="miter" fill="none" stroke="#ff0000" d="M82.32481 160.49068 86.8326 159.14041"/>
<path transform="matrix(1.00003,0,0,-1.00002,2.0964967,163.22095)" stroke-width=".3985" stroke-linecap="butt" stroke-miterlimit="10" stroke-linejoin="miter" fill="none" stroke="#ff0000" d="M96.04562 160.49068 100.84793 160.49063"/>
<path transform="matrix(1.00003,0,0,-1.00002,2.0964967,163.22095)" stroke-width=".3985" stroke-linecap="butt" stroke-miterlimit="10" stroke-linejoin="miter" fill="none" stroke="#ff0000" d="M109.76642 160.49068 114.47173 161.27365"/>
<path transform="matrix(1.00003,0,0,-1.00002,2.0964967,163.22095)" stroke-width=".3985" stroke-linecap="butt" stroke-miterlimit="10" stroke-linejoin="miter" fill="none" stroke="#ff0000" d="M123.48723 160.49068 128.15172 161.4221"/>
<path transform="matrix(1.00003,0,0,-1.00002,2.0964967,163.22095)" stroke-width=".3985" stroke-linecap="butt" stroke-miterlimit="10" stroke-linejoin="miter" fill="none" stroke="#ff0000" d="M137.20804 160.49068 141.9748 160.96665"/>
<path transform="matrix(1.00003,0,0,-1.00002,2.0964967,163.22095)" stroke-width=".3985" stroke-linecap="butt" stroke-miterlimit="10" stroke-linejoin="miter" fill="none" stroke="#ff0000" d="M150.92884 160.49068 155.66846 159.8598"/>
<path transform="matrix(1.00003,0,0,-1.00002,2.0964967,163.22095)" stroke-width=".3985" stroke-linecap="butt" stroke-miterlimit="10" stroke-linejoin="miter" fill="none" stroke="#ff0000" d="M164.64965 160.49068 168.74538 158.4461"/>
<path transform="matrix(1.00003,0,0,-1.00002,2.0964967,163.22095)" stroke-width=".3985" stroke-linecap="butt" stroke-miterlimit="10" stroke-linejoin="miter" fill="none" stroke="#ff0000" d="M178.37044 160.49068 181.40814 157.45787"/>
<path transform="matrix(1.00003,0,0,-1.00002,2.0964967,163.22095)" stroke-width=".3985" stroke-linecap="butt" stroke-miterlimit="10" stroke-linejoin="miter" fill="none" stroke="#ff0000" d="M192.09125 160.49068 194.23903 156.9883"/>
<path transform="matrix(1.00003,0,0,-1.00002,2.0964967,163.22095)" stroke-width=".3985" stroke-linecap="butt" stroke-miterlimit="10" stroke-linejoin="miter" fill="none" stroke="#ff0000" d=""/>
</g>
<path transform="matrix(1.00003,0,0,-1.00002,2.0964967,163.22095)" stroke-width=".19925" stroke-linecap="butt" stroke-miterlimit="10" stroke-linejoin="miter" fill="none" stroke="#7f807f" d="M24.01152 80.75957V83.5943M72.03456 80.75957V83.5943M120.05762 80.75957V83.5943M168.08068 80.75957V83.5943"/>
<path transform="matrix(1.00003,0,0,-1.00002,2.0964967,163.22095)" stroke-width=".19925" stroke-linecap="butt" stroke-miterlimit="10" stroke-linejoin="miter" fill="none" stroke="#7f807f" d="M0 80.05109V84.30276M48.02304 80.05109V84.30276M144.06914 80.05109V84.30276M192.0922 80.05109V84.30276"/>
<path transform="matrix(1.00003,0,0,-1.00002,2.0964967,163.22095)" stroke-width=".19925" stroke-linecap="butt" stroke-miterlimit="10" stroke-linejoin="miter" fill="none" stroke="#7f807f" d="M94.62874 23.44106H97.46346M94.62874 62.5983H97.46346M94.62874 101.75555H97.46346M94.62874 140.91281H97.46346"/>
<path transform="matrix(1.00003,0,0,-1.00002,2.0964967,163.22095)" stroke-width=".19925" stroke-linecap="butt" stroke-miterlimit="10" stroke-linejoin="miter" fill="none" stroke="#7f807f" d="M93.92026 3.86243H98.1719M93.92026 43.01967H98.1719M93.92026 121.33418H98.1719M93.92026 160.49144H98.1719"/>
<path transform="matrix(1.00003,0,0,-1.00002,2.0964967,163.22095)" stroke-width=".3985" stroke-linecap="butt" stroke-miterlimit="10" stroke-linejoin="miter" fill="none" stroke="#000000" d="M0 82.17693H192.2465"/>
<path transform="matrix(1.00003,0,0,-1.00002,194.34877,81.042369)" d="M1.99252 0-1.19551 1.59401 0 0-1.19551-1.59401"/>
<path transform="matrix(1.00003,0,0,-1.00002,2.0964967,163.22095)" stroke-width=".3985" stroke-linecap="butt" stroke-miterlimit="10" stroke-linejoin="miter" fill="none" stroke="#000000" d="M96.0461 0V159.42958"/>
<path transform="matrix(0,-1.00002,-1.00003,-0,98.14548,3.7881776)" d="M1.99252 0-1.19551 1.59401 0 0-1.19551-1.59401"/>
<path transform="matrix(1.00003,0,0,-1.00002,2.0964967,163.22095)" stroke-width=".19925" stroke-linecap="butt" stroke-miterlimit="10" stroke-linejoin="miter" fill="none" stroke="#7f807f" d="M24.01152 80.75957V83.5943M72.03456 80.75957V83.5943M120.05762 80.75957V83.5943M168.08068 80.75957V83.5943"/>
<path transform="matrix(1.00003,0,0,-1.00002,2.0964967,163.22095)" stroke-width=".19925" stroke-linecap="butt" stroke-miterlimit="10" stroke-linejoin="miter" fill="none" stroke="#7f807f" d="M0 80.05109V84.30276M48.02304 80.05109V84.30276M144.06914 80.05109V84.30276M192.0922 80.05109V84.30276"/>
<path transform="matrix(1.00003,0,0,-1.00002,2.0964967,163.22095)" stroke-width=".19925" stroke-linecap="butt" stroke-miterlimit="10" stroke-linejoin="miter" fill="none" stroke="#7f807f" d="M94.62874 23.44106H97.46346M94.62874 62.5983H97.46346M94.62874 101.75555H97.46346M94.62874 140.91281H97.46346"/>
<path transform="matrix(1.00003,0,0,-1.00002,2.0964967,163.22095)" stroke-width=".19925" stroke-linecap="butt" stroke-miterlimit="10" stroke-linejoin="miter" fill="none" stroke="#7f807f" d="M93.92026 3.86243H98.1719M93.92026 43.01967H98.1719M93.92026 121.33418H98.1719M93.92026 160.49144H98.1719"/>
<path transform="matrix(1.00003,0,0,-1.00002,2.0964967,163.22095)" stroke-width=".3985" stroke-linecap="butt" stroke-miterlimit="10" stroke-linejoin="miter" fill="none" stroke="#000000" d="M0 82.17693H192.2465"/>
<path transform="matrix(1.00003,0,0,-1.00002,194.34877,81.042369)" d="M1.99252 0-1.19551 1.59401 0 0-1.19551-1.59401"/>
<path transform="matrix(1.00003,0,0,-1.00002,2.0964967,163.22095)" stroke-width=".3985" stroke-linecap="butt" stroke-miterlimit="10" stroke-linejoin="miter" fill="none" stroke="#000000" d="M96.0461 0V159.42958"/>
<path transform="matrix(0,-1.00002,-1.00003,-0,98.14548,3.7881776)" d="M1.99252 0-1.19551 1.59401 0 0-1.19551-1.59401"/>
<use data-text="x" xlink:href="#font_2_1" transform="matrix(9.962899,0,0,-9.962799,187.12406,77.52423)"/>
<use data-text="y" xlink:href="#font_2_2" transform="matrix(9.962899,0,0,-9.962799,101.66148,9.616867)"/>
</svg>
