<svg xmlns="http://www.w3.org/2000/svg" xmlns:xlink="http://www.w3.org/1999/xlink" xmlns:inkscape="http://www.inkscape.org/namespaces/inkscape" version="1.1" width="198" height="165" viewBox="0 0 198 165">
<defs>
<clipPath id="clip_1">
<path transform="matrix(1.00003,0,0,-1,2.0964967,163.37201)" d="M194.23894 0V0H0V161.57474H194.23894Z"/>
</clipPath>
<path id="font_2_1" d="M.33399964 .30233766C.33999635 .32835389 .36299134 .42037965 .43299867 .42037965 .43798829 .42037965 .46199037 .42037965 .48298646 .40734864 .45498658 .402359 .43499757 .37734986 .43499757 .35334779 .43499757 .33735658 .44599916 .31835938 .47299195 .31835938 .49499513 .31835938 .5269928 .3363495 .5269928 .37635804 .5269928 .42837525 .46798707 .4423828 .43399049 .4423828 .37599183 .4423828 .34098817 .38935853 .32899476 .36634828 .3039856 .43237306 .25 .4423828 .22099304 .4423828 .116989139 .4423828 .05999756 .3133545 .05999756 .28834535 .05999756 .27833558 .069992069 .27833558 .07199097 .27833558 .07998657 .27833558 .08299255 .28033448 .084991458 .28933717 .11898804 .39535523 .18499756 .42037965 .21899414 .42037965 .23799134 .42037965 .272995 .4113617 .272995 .35334779 .272995 .32235719 .2559967 .25532533 .21899414 .11528015 .20298767 .053268434 .16799927 .011245728 .12399292 .011245728 .117996219 .011245728 .09498596 .011245728 .07398987 .024276734 .09899902 .029266358 .12098694 .05027771 .12098694 .07827759 .12098694 .105270389 .09899902 .11328125 .083999637 .11328125 .053985597 .11328125 .0289917 .08728027 .0289917 .055267335 .0289917 .009246826 .07899475-.0107421879 .12298584-.0107421879 .18899536-.0107421879 .22499085 .059280397 .22799683 .0652771 .23999024 .028274537 .27598573-.0107421879 .33599855-.0107421879 .43899537-.0107421879 .49598695 .118270877 .49598695 .14328003 .49598695 .1532898 .4869995 .1532898 .48399354 .1532898 .47499085 .1532898 .47299195 .14929199 .47099305 .14228821 .43798829 .03527832 .36999513 .011245728 .33799745 .011245728 .29899598 .011245728 .2829895 .043273927 .2829895 .07727051 .2829895 .09927368 .2889862 .121276859 .2999878 .16529846L.33399964 .30233766Z"/>
<path id="font_2_2" d="M.48599244 .38136292C.48999024 .39537049 .48999024 .39736939 .48999024 .40437318 .48999024 .42237855 .47599793 .43138124 .46099855 .43138124 .45098878 .43138124 .43499757 .42536927 .42599488 .41036988 .42399598 .405365 .41600038 .37435914 .4119873 .35635377 .40499879 .33035279 .397995 .30334474 .3919983 .27633668L.34700013 .09628296C.34298707 .08126831 .2999878 .011245728 .23399353 .011245728 .18299866 .011245728 .17199707 .055267335 .17199707 .0922699 .17199707 .1382904 .18899536 .20030213 .22299195 .28833009 .23899842 .3293457 .24299622 .3403473 .24299622 .36035157 .24299622 .405365 .21099854 .4423828 .16099549 .4423828 .06599426 .4423828 .0289917 .29733277 .0289917 .28833009 .0289917 .27833558 .038986207 .27833558 .040985109 .27833558 .050994874 .27833558 .051986696 .28033448 .056991579 .29634095 .083999637 .3903656 .12399292 .42037965 .1579895 .42037965 .1659851 .42037965 .18299866 .42037965 .18299866 .3883667 .18299866 .36335755 .17298889 .3373413 .1659851 .31834413 .12599182 .21231079 .10798645 .1552887 .10798645 .10827637 .10798645 .019256592 .17098999-.0107421879 .22999573-.0107421879 .2689972-.0107421879 .30299378 .0062561037 .33099366 .03425598 .31799317-.017745972 .30599977-.06674194 .2659912-.11973572 .23999024-.15385437 .20199585-.18309021 .1559906-.18309021 .14199829-.18309021 .09700012-.18005371 .07998657-.14074707 .09599304-.14074707 .10899353-.14074707 .12298584-.1287384 .1329956-.11973572 .14299011-.10673523 .14299011-.08773804 .14299011-.056747438 .115997318-.052734376 .10598755-.052734376 .08299255-.052734376 .049987794-.068740848 .049987794-.11773682 .049987794-.16796875 .09399414-.20507813 .1559906-.20507813 .25898744-.20507813 .3619995-.11373901 .3899994-.00074768069L.48599244 .38136292Z"/>
</defs>
<g clip-path="url(#clip_1)">
<path transform="matrix(1.00003,0,0,-1,2.0964967,163.37201)" stroke-width=".3985" stroke-linecap="butt" stroke-miterlimit="10" stroke-linejoin="miter" fill="none" stroke="#000000" d="M0 3.45831 2.14767 6.91664"/>
<path transform="matrix(1.00003,0,0,-1,2.0964967,163.37201)" stroke-width=".3985" stroke-linecap="butt" stroke-miterlimit="10" stroke-linejoin="miter" fill="none" stroke="#000000" d="M13.7208 3.45831 16.14056 6.7981"/>
<path transform="matrix(1.00003,0,0,-1,2.0964967,163.37201)" stroke-width=".3985" stroke-linecap="butt" stroke-miterlimit="10" stroke-linejoin="miter" fill="none" stroke="#000000" d="M27.4416 3.45831 30.19557 6.62589"/>
<path transform="matrix(1.00003,0,0,-1,2.0964967,163.37201)" stroke-width=".3985" stroke-linecap="butt" stroke-miterlimit="10" stroke-linejoin="miter" fill="none" stroke="#000000" d="M41.1624 3.45831 44.32477 6.36821"/>
<path transform="matrix(1.00003,0,0,-1,2.0964967,163.37201)" stroke-width=".3985" stroke-linecap="butt" stroke-miterlimit="10" stroke-linejoin="miter" fill="none" stroke="#000000" d="M54.88321 3.45831 58.5294 5.97461"/>
<path transform="matrix(1.00003,0,0,-1,2.0964967,163.37201)" stroke-width=".3985" stroke-linecap="butt" stroke-miterlimit="10" stroke-linejoin="miter" fill="none" stroke="#000000" d="M68.60402 3.45831 72.77365 5.37668"/>
<path transform="matrix(1.00003,0,0,-1,2.0964967,163.37201)" stroke-width=".3985" stroke-linecap="butt" stroke-miterlimit="10" stroke-linejoin="miter" fill="none" stroke="#000000" d="M82.32481 3.45831 86.94232 4.52054"/>
<path transform="matrix(1.00003,0,0,-1,2.0964967,163.37201)" stroke-width=".3985" stroke-linecap="butt" stroke-miterlimit="10" stroke-linejoin="miter" fill="none" stroke="#000000" d="M96.04562 3.45831 100.84793 3.45836"/>
<path transform="matrix(1.00003,0,0,-1,2.0964967,163.37201)" stroke-width=".3985" stroke-linecap="butt" stroke-miterlimit="10" stroke-linejoin="miter" fill="none" stroke="#000000" d="M109.76642 3.45831 114.38399 2.39613"/>
<path transform="matrix(1.00003,0,0,-1,2.0964967,163.37201)" stroke-width=".3985" stroke-linecap="butt" stroke-miterlimit="10" stroke-linejoin="miter" fill="none" stroke="#000000" d="M123.48723 3.45831 127.65689 1.54001"/>
<path transform="matrix(1.00003,0,0,-1,2.0964967,163.37201)" stroke-width=".3985" stroke-linecap="butt" stroke-miterlimit="10" stroke-linejoin="miter" fill="none" stroke="#000000" d="M137.20804 3.45831 140.85433 .94203"/>
<path transform="matrix(1.00003,0,0,-1,2.0964967,163.37201)" stroke-width=".3985" stroke-linecap="butt" stroke-miterlimit="10" stroke-linejoin="miter" fill="none" stroke="#000000" d="M150.92884 3.45831 154.09125 .54848"/>
<path transform="matrix(1.00003,0,0,-1,2.0964967,163.37201)" stroke-width=".3985" stroke-linecap="butt" stroke-miterlimit="10" stroke-linejoin="miter" fill="none" stroke="#000000" d="M164.64965 3.45831 167.40361 .29079"/>
<path transform="matrix(1.00003,0,0,-1,2.0964967,163.37201)" stroke-width=".3985" stroke-linecap="butt" stroke-miterlimit="10" stroke-linejoin="miter" fill="none" stroke="#000000" d="M178.37044 3.45831 180.79024 .11853"/>
<path transform="matrix(1.00003,0,0,-1,2.0964967,163.37201)" stroke-width=".3985" stroke-linecap="butt" stroke-miterlimit="10" stroke-linejoin="miter" fill="none" stroke="#000000" d="M192.09125 3.45831 194.23894 0"/>
<path transform="matrix(1.00003,0,0,-1,2.0964967,163.37201)" stroke-width=".3985" stroke-linecap="butt" stroke-miterlimit="10" stroke-linejoin="miter" fill="none" stroke="#000000" d="M0 14.50531 2.14767 17.96364"/>
<path transform="matrix(1.00003,0,0,-1,2.0964967,163.37201)" stroke-width=".3985" stroke-linecap="butt" stroke-miterlimit="10" stroke-linejoin="miter" fill="none" stroke="#000000" d="M13.7208 14.50531 16.14056 17.8451"/>
<path transform="matrix(1.00003,0,0,-1,2.0964967,163.37201)" stroke-width=".3985" stroke-linecap="butt" stroke-miterlimit="10" stroke-linejoin="miter" fill="none" stroke="#000000" d="M27.4416 14.50531 30.19557 17.67288"/>
<path transform="matrix(1.00003,0,0,-1,2.0964967,163.37201)" stroke-width=".3985" stroke-linecap="butt" stroke-miterlimit="10" stroke-linejoin="miter" fill="none" stroke="#000000" d="M41.1624 14.50531 44.32477 17.4152"/>
<path transform="matrix(1.00003,0,0,-1,2.0964967,163.37201)" stroke-width=".3985" stroke-linecap="butt" stroke-miterlimit="10" stroke-linejoin="miter" fill="none" stroke="#000000" d="M54.88321 14.50531 58.5294 17.02164"/>
<path transform="matrix(1.00003,0,0,-1,2.0964967,163.37201)" stroke-width=".3985" stroke-linecap="butt" stroke-miterlimit="10" stroke-linejoin="miter" fill="none" stroke="#000000" d="M68.60402 14.50531 72.77365 16.42368"/>
<path transform="matrix(1.00003,0,0,-1,2.0964967,163.37201)" stroke-width=".3985" stroke-linecap="butt" stroke-miterlimit="10" stroke-linejoin="miter" fill="none" stroke="#000000" d="M82.32481 14.50531 86.94232 15.56755"/>
<path transform="matrix(1.00003,0,0,-1,2.0964967,163.37201)" stroke-width=".3985" stroke-linecap="butt" stroke-miterlimit="10" stroke-linejoin="miter" fill="none" stroke="#000000" d="M96.04562 14.50531 100.84793 14.50536"/>
<path transform="matrix(1.00003,0,0,-1,2.0964967,163.37201)" stroke-width=".3985" stroke-linecap="butt" stroke-miterlimit="10" stroke-linejoin="miter" fill="none" stroke="#000000" d="M109.76642 14.50531 114.38399 13.44315"/>
<path transform="matrix(1.00003,0,0,-1,2.0964967,163.37201)" stroke-width=".3985" stroke-linecap="butt" stroke-miterlimit="10" stroke-linejoin="miter" fill="none" stroke="#000000" d="M123.48723 14.50531 127.65689 12.58702"/>
<path transform="matrix(1.00003,0,0,-1,2.0964967,163.37201)" stroke-width=".3985" stroke-linecap="butt" stroke-miterlimit="10" stroke-linejoin="miter" fill="none" stroke="#000000" d="M137.20804 14.50531 140.85433 11.98903"/>
<path transform="matrix(1.00003,0,0,-1,2.0964967,163.37201)" stroke-width=".3985" stroke-linecap="butt" stroke-miterlimit="10" stroke-linejoin="miter" fill="none" stroke="#000000" d="M150.92884 14.50531 154.09125 11.5955"/>
<path transform="matrix(1.00003,0,0,-1,2.0964967,163.37201)" stroke-width=".3985" stroke-linecap="butt" stroke-miterlimit="10" stroke-linejoin="miter" fill="none" stroke="#000000" d="M164.64965 14.50531 167.40361 11.3378"/>
<path transform="matrix(1.00003,0,0,-1,2.0964967,163.37201)" stroke-width=".3985" stroke-linecap="butt" stroke-miterlimit="10" stroke-linejoin="miter" fill="none" stroke="#000000" d="M178.37044 14.50531 180.79024 11.16554"/>
<path transform="matrix(1.00003,0,0,-1,2.0964967,163.37201)" stroke-width=".3985" stroke-linecap="butt" stroke-miterlimit="10" stroke-linejoin="miter" fill="none" stroke="#000000" d="M192.09125 14.50531 194.23894 11.047"/>
<path transform="matrix(1.00003,0,0,-1,2.0964967,163.37201)" stroke-width=".3985" stroke-linecap="butt" stroke-miterlimit="10" stroke-linejoin="miter" fill="none" stroke="#000000" d="M0 25.55232 2.14767 29.01064"/>
<path transform="matrix(1.00003,0,0,-1,2.0964967,163.37201)" stroke-width=".3985" stroke-linecap="butt" stroke-miterlimit="10" stroke-linejoin="miter" fill="none" stroke="#000000" d="M13.7208 25.55232 16.14056 28.89209"/>
<path transform="matrix(1.00003,0,0,-1,2.0964967,163.37201)" stroke-width=".3985" stroke-linecap="butt" stroke-miterlimit="10" stroke-linejoin="miter" fill="none" stroke="#000000" d="M27.4416 25.55232 30.19557 28.7199"/>
<path transform="matrix(1.00003,0,0,-1,2.0964967,163.37201)" stroke-width=".3985" stroke-linecap="butt" stroke-miterlimit="10" stroke-linejoin="miter" fill="none" stroke="#000000" d="M41.1624 25.55232 44.32477 28.46223"/>
<path transform="matrix(1.00003,0,0,-1,2.0964967,163.37201)" stroke-width=".3985" stroke-linecap="butt" stroke-miterlimit="10" stroke-linejoin="miter" fill="none" stroke="#000000" d="M54.88321 25.55232 58.5294 28.06863"/>
<path transform="matrix(1.00003,0,0,-1,2.0964967,163.37201)" stroke-width=".3985" stroke-linecap="butt" stroke-miterlimit="10" stroke-linejoin="miter" fill="none" stroke="#000000" d="M68.60402 25.55232 72.77365 27.47069"/>
<path transform="matrix(1.00003,0,0,-1,2.0964967,163.37201)" stroke-width=".3985" stroke-linecap="butt" stroke-miterlimit="10" stroke-linejoin="miter" fill="none" stroke="#000000" d="M82.32481 25.55232 86.94232 26.61455"/>
<path transform="matrix(1.00003,0,0,-1,2.0964967,163.37201)" stroke-width=".3985" stroke-linecap="butt" stroke-miterlimit="10" stroke-linejoin="miter" fill="none" stroke="#000000" d="M96.04562 25.55232 100.84793 25.55235"/>
<path transform="matrix(1.00003,0,0,-1,2.0964967,163.37201)" stroke-width=".3985" stroke-linecap="butt" stroke-miterlimit="10" stroke-linejoin="miter" fill="none" stroke="#000000" d="M109.76642 25.55232 114.38399 24.49016"/>
<path transform="matrix(1.00003,0,0,-1,2.0964967,163.37201)" stroke-width=".3985" stroke-linecap="butt" stroke-miterlimit="10" stroke-linejoin="miter" fill="none" stroke="#000000" d="M123.48723 25.55232 127.65689 23.63402"/>
<path transform="matrix(1.00003,0,0,-1,2.0964967,163.37201)" stroke-width=".3985" stroke-linecap="butt" stroke-miterlimit="10" stroke-linejoin="miter" fill="none" stroke="#000000" d="M137.20804 25.55232 140.85433 23.03604"/>
<path transform="matrix(1.00003,0,0,-1,2.0964967,163.37201)" stroke-width=".3985" stroke-linecap="butt" stroke-miterlimit="10" stroke-linejoin="miter" fill="none" stroke="#000000" d="M150.92884 25.55232 154.09125 22.6425"/>
<path transform="matrix(1.00003,0,0,-1,2.0964967,163.37201)" stroke-width=".3985" stroke-linecap="butt" stroke-miterlimit="10" stroke-linejoin="miter" fill="none" stroke="#000000" d="M164.64965 25.55232 167.40361 22.3848"/>
<path transform="matrix(1.00003,0,0,-1,2.0964967,163.37201)" stroke-width=".3985" stroke-linecap="butt" stroke-miterlimit="10" stroke-linejoin="miter" fill="none" stroke="#000000" d="M178.37044 25.55232 180.79024 22.21254"/>
<path transform="matrix(1.00003,0,0,-1,2.0964967,163.37201)" stroke-width=".3985" stroke-linecap="butt" stroke-miterlimit="10" stroke-linejoin="miter" fill="none" stroke="#000000" d="M192.09125 25.55232 194.23894 22.094"/>
<path transform="matrix(1.00003,0,0,-1,2.0964967,163.37201)" stroke-width=".3985" stroke-linecap="butt" stroke-miterlimit="10" stroke-linejoin="miter" fill="none" stroke="#000000" d="M0 36.59933 2.14767 40.05766"/>
<path transform="matrix(1.00003,0,0,-1,2.0964967,163.37201)" stroke-width=".3985" stroke-linecap="butt" stroke-miterlimit="10" stroke-linejoin="miter" fill="none" stroke="#000000" d="M13.7208 36.59933 16.14056 39.9391"/>
<path transform="matrix(1.00003,0,0,-1,2.0964967,163.37201)" stroke-width=".3985" stroke-linecap="butt" stroke-miterlimit="10" stroke-linejoin="miter" fill="none" stroke="#000000" d="M27.4416 36.59933 30.19557 39.76689"/>
<path transform="matrix(1.00003,0,0,-1,2.0964967,163.37201)" stroke-width=".3985" stroke-linecap="butt" stroke-miterlimit="10" stroke-linejoin="miter" fill="none" stroke="#000000" d="M41.1624 36.59933 44.32477 39.50923"/>
<path transform="matrix(1.00003,0,0,-1,2.0964967,163.37201)" stroke-width=".3985" stroke-linecap="butt" stroke-miterlimit="10" stroke-linejoin="miter" fill="none" stroke="#000000" d="M54.88321 36.59933 58.5294 39.11565"/>
<path transform="matrix(1.00003,0,0,-1,2.0964967,163.37201)" stroke-width=".3985" stroke-linecap="butt" stroke-miterlimit="10" stroke-linejoin="miter" fill="none" stroke="#000000" d="M68.60402 36.59933 72.77365 38.51768"/>
<path transform="matrix(1.00003,0,0,-1,2.0964967,163.37201)" stroke-width=".3985" stroke-linecap="butt" stroke-miterlimit="10" stroke-linejoin="miter" fill="none" stroke="#000000" d="M82.32481 36.59933 86.94232 37.66158"/>
<path transform="matrix(1.00003,0,0,-1,2.0964967,163.37201)" stroke-width=".3985" stroke-linecap="butt" stroke-miterlimit="10" stroke-linejoin="miter" fill="none" stroke="#000000" d="M96.04562 36.59933 100.84793 36.59937"/>
<path transform="matrix(1.00003,0,0,-1,2.0964967,163.37201)" stroke-width=".3985" stroke-linecap="butt" stroke-miterlimit="10" stroke-linejoin="miter" fill="none" stroke="#000000" d="M109.76642 36.59933 114.38399 35.53716"/>
<path transform="matrix(1.00003,0,0,-1,2.0964967,163.37201)" stroke-width=".3985" stroke-linecap="butt" stroke-miterlimit="10" stroke-linejoin="miter" fill="none" stroke="#000000" d="M123.48723 36.59933 127.65689 34.68103"/>
<path transform="matrix(1.00003,0,0,-1,2.0964967,163.37201)" stroke-width=".3985" stroke-linecap="butt" stroke-miterlimit="10" stroke-linejoin="miter" fill="none" stroke="#000000" d="M137.20804 36.59933 140.85433 34.08305"/>
<path transform="matrix(1.00003,0,0,-1,2.0964967,163.37201)" stroke-width=".3985" stroke-linecap="butt" stroke-miterlimit="10" stroke-linejoin="miter" fill="none" stroke="#000000" d="M150.92884 36.59933 154.09125 33.68951"/>
<path transform="matrix(1.00003,0,0,-1,2.0964967,163.37201)" stroke-width=".3985" stroke-linecap="butt" stroke-miterlimit="10" stroke-linejoin="miter" fill="none" stroke="#000000" d="M164.64965 36.59933 167.40361 33.43181"/>
<path transform="matrix(1.00003,0,0,-1,2.0964967,163.37201)" stroke-width=".3985" stroke-linecap="butt" stroke-miterlimit="10" stroke-linejoin="miter" fill="none" stroke="#000000" d="M178.37044 36.59933 180.79024 33.25955"/>
<path transform="matrix(1.00003,0,0,-1,2.0964967,163.37201)" stroke-width=".3985" stroke-linecap="butt" stroke-miterlimit="10" stroke-linejoin="miter" fill="none" stroke="#000000" d="M192.09125 36.59933 194.23894 33.141"/>
<path transform="matrix(1.00003,0,0,-1,2.0964967,163.37201)" stroke-width=".3985" stroke-linecap="butt" stroke-miterlimit="10" stroke-linejoin="miter" fill="none" stroke="#000000" d="M0 47.64633 2.14767 51.10466"/>
<path transform="matrix(1.00003,0,0,-1,2.0964967,163.37201)" stroke-width=".3985" stroke-linecap="butt" stroke-miterlimit="10" stroke-linejoin="miter" fill="none" stroke="#000000" d="M13.7208 47.64633 16.14056 50.98611"/>
<path transform="matrix(1.00003,0,0,-1,2.0964967,163.37201)" stroke-width=".3985" stroke-linecap="butt" stroke-miterlimit="10" stroke-linejoin="miter" fill="none" stroke="#000000" d="M27.4416 47.64633 30.19557 50.8139"/>
<path transform="matrix(1.00003,0,0,-1,2.0964967,163.37201)" stroke-width=".3985" stroke-linecap="butt" stroke-miterlimit="10" stroke-linejoin="miter" fill="none" stroke="#000000" d="M41.1624 47.64633 44.32477 50.55624"/>
<path transform="matrix(1.00003,0,0,-1,2.0964967,163.37201)" stroke-width=".3985" stroke-linecap="butt" stroke-miterlimit="10" stroke-linejoin="miter" fill="none" stroke="#000000" d="M54.88321 47.64633 58.5294 50.16264"/>
<path transform="matrix(1.00003,0,0,-1,2.0964967,163.37201)" stroke-width=".3985" stroke-linecap="butt" stroke-miterlimit="10" stroke-linejoin="miter" fill="none" stroke="#000000" d="M68.60402 47.64633 72.77365 49.5647"/>
<path transform="matrix(1.00003,0,0,-1,2.0964967,163.37201)" stroke-width=".3985" stroke-linecap="butt" stroke-miterlimit="10" stroke-linejoin="miter" fill="none" stroke="#000000" d="M82.32481 47.64633 86.94232 48.70857"/>
<path transform="matrix(1.00003,0,0,-1,2.0964967,163.37201)" stroke-width=".3985" stroke-linecap="butt" stroke-miterlimit="10" stroke-linejoin="miter" fill="none" stroke="#000000" d="M96.04562 47.64633 100.84793 47.64636"/>
<path transform="matrix(1.00003,0,0,-1,2.0964967,163.37201)" stroke-width=".3985" stroke-linecap="butt" stroke-miterlimit="10" stroke-linejoin="miter" fill="none" stroke="#000000" d="M109.76642 47.64633 114.38399 46.58415"/>
<path transform="matrix(1.00003,0,0,-1,2.0964967,163.37201)" stroke-width=".3985" stroke-linecap="butt" stroke-miterlimit="10" stroke-linejoin="miter" fill="none" stroke="#000000" d="M123.48723 47.64633 127.65689 45.72803"/>
<path transform="matrix(1.00003,0,0,-1,2.0964967,163.37201)" stroke-width=".3985" stroke-linecap="butt" stroke-miterlimit="10" stroke-linejoin="miter" fill="none" stroke="#000000" d="M137.20804 47.64633 140.85433 45.13007"/>
<path transform="matrix(1.00003,0,0,-1,2.0964967,163.37201)" stroke-width=".3985" stroke-linecap="butt" stroke-miterlimit="10" stroke-linejoin="miter" fill="none" stroke="#000000" d="M150.92884 47.64633 154.09125 44.73651"/>
<path transform="matrix(1.00003,0,0,-1,2.0964967,163.37201)" stroke-width=".3985" stroke-linecap="butt" stroke-miterlimit="10" stroke-linejoin="miter" fill="none" stroke="#000000" d="M164.64965 47.64633 167.40361 44.4788"/>
<path transform="matrix(1.00003,0,0,-1,2.0964967,163.37201)" stroke-width=".3985" stroke-linecap="butt" stroke-miterlimit="10" stroke-linejoin="miter" fill="none" stroke="#000000" d="M178.37044 47.64633 180.79024 44.30655"/>
<path transform="matrix(1.00003,0,0,-1,2.0964967,163.37201)" stroke-width=".3985" stroke-linecap="butt" stroke-miterlimit="10" stroke-linejoin="miter" fill="none" stroke="#000000" d="M192.09125 47.64633 194.23894 44.188"/>
<path transform="matrix(1.00003,0,0,-1,2.0964967,163.37201)" stroke-width=".3985" stroke-linecap="butt" stroke-miterlimit="10" stroke-linejoin="miter" fill="none" stroke="#000000" d="M0 58.69334 2.14767 62.15167"/>
<path transform="matrix(1.00003,0,0,-1,2.0964967,163.37201)" stroke-width=".3985" stroke-linecap="butt" stroke-miterlimit="10" stroke-linejoin="miter" fill="none" stroke="#000000" d="M13.7208 58.69334 16.14056 62.03313"/>
<path transform="matrix(1.00003,0,0,-1,2.0964967,163.37201)" stroke-width=".3985" stroke-linecap="butt" stroke-miterlimit="10" stroke-linejoin="miter" fill="none" stroke="#000000" d="M27.4416 58.69334 30.19557 61.86092"/>
<path transform="matrix(1.00003,0,0,-1,2.0964967,163.37201)" stroke-width=".3985" stroke-linecap="butt" stroke-miterlimit="10" stroke-linejoin="miter" fill="none" stroke="#000000" d="M41.1624 58.69334 44.32477 61.60324"/>
<path transform="matrix(1.00003,0,0,-1,2.0964967,163.37201)" stroke-width=".3985" stroke-linecap="butt" stroke-miterlimit="10" stroke-linejoin="miter" fill="none" stroke="#000000" d="M54.88321 58.69334 58.5294 61.20967"/>
<path transform="matrix(1.00003,0,0,-1,2.0964967,163.37201)" stroke-width=".3985" stroke-linecap="butt" stroke-miterlimit="10" stroke-linejoin="miter" fill="none" stroke="#000000" d="M68.60402 58.69334 72.77365 60.6117"/>
<path transform="matrix(1.00003,0,0,-1,2.0964967,163.37201)" stroke-width=".3985" stroke-linecap="butt" stroke-miterlimit="10" stroke-linejoin="miter" fill="none" stroke="#000000" d="M82.32481 58.69334 86.94232 59.75558"/>
<path transform="matrix(1.00003,0,0,-1,2.0964967,163.37201)" stroke-width=".3985" stroke-linecap="butt" stroke-miterlimit="10" stroke-linejoin="miter" fill="none" stroke="#000000" d="M96.04562 58.69334 100.84793 58.69339"/>
<path transform="matrix(1.00003,0,0,-1,2.0964967,163.37201)" stroke-width=".3985" stroke-linecap="butt" stroke-miterlimit="10" stroke-linejoin="miter" fill="none" stroke="#000000" d="M109.76642 58.69334 114.38399 57.63116"/>
<path transform="matrix(1.00003,0,0,-1,2.0964967,163.37201)" stroke-width=".3985" stroke-linecap="butt" stroke-miterlimit="10" stroke-linejoin="miter" fill="none" stroke="#000000" d="M123.48723 58.69334 127.65689 56.77504"/>
<path transform="matrix(1.00003,0,0,-1,2.0964967,163.37201)" stroke-width=".3985" stroke-linecap="butt" stroke-miterlimit="10" stroke-linejoin="miter" fill="none" stroke="#000000" d="M137.20804 58.69334 140.85433 56.17706"/>
<path transform="matrix(1.00003,0,0,-1,2.0964967,163.37201)" stroke-width=".3985" stroke-linecap="butt" stroke-miterlimit="10" stroke-linejoin="miter" fill="none" stroke="#000000" d="M150.92884 58.69334 154.09125 55.78351"/>
<path transform="matrix(1.00003,0,0,-1,2.0964967,163.37201)" stroke-width=".3985" stroke-linecap="butt" stroke-miterlimit="10" stroke-linejoin="miter" fill="none" stroke="#000000" d="M164.64965 58.69334 167.40361 55.52582"/>
<path transform="matrix(1.00003,0,0,-1,2.0964967,163.37201)" stroke-width=".3985" stroke-linecap="butt" stroke-miterlimit="10" stroke-linejoin="miter" fill="none" stroke="#000000" d="M178.37044 58.69334 180.79024 55.35356"/>
<path transform="matrix(1.00003,0,0,-1,2.0964967,163.37201)" stroke-width=".3985" stroke-linecap="butt" stroke-miterlimit="10" stroke-linejoin="miter" fill="none" stroke="#000000" d="M192.09125 58.69334 194.23894 55.23502"/>
<path transform="matrix(1.00003,0,0,-1,2.0964967,163.37201)" stroke-width=".3985" stroke-linecap="butt" stroke-miterlimit="10" stroke-linejoin="miter" fill="none" stroke="#000000" d="M0 69.74034 2.14767 73.19867"/>
<path transform="matrix(1.00003,0,0,-1,2.0964967,163.37201)" stroke-width=".3985" stroke-linecap="butt" stroke-miterlimit="10" stroke-linejoin="miter" fill="none" stroke="#000000" d="M13.7208 69.74034 16.14056 73.08012"/>
<path transform="matrix(1.00003,0,0,-1,2.0964967,163.37201)" stroke-width=".3985" stroke-linecap="butt" stroke-miterlimit="10" stroke-linejoin="miter" fill="none" stroke="#000000" d="M27.4416 69.74034 30.19557 72.90791"/>
<path transform="matrix(1.00003,0,0,-1,2.0964967,163.37201)" stroke-width=".3985" stroke-linecap="butt" stroke-miterlimit="10" stroke-linejoin="miter" fill="none" stroke="#000000" d="M41.1624 69.74034 44.32477 72.65027"/>
<path transform="matrix(1.00003,0,0,-1,2.0964967,163.37201)" stroke-width=".3985" stroke-linecap="butt" stroke-miterlimit="10" stroke-linejoin="miter" fill="none" stroke="#000000" d="M54.88321 69.74034 58.5294 72.25667"/>
<path transform="matrix(1.00003,0,0,-1,2.0964967,163.37201)" stroke-width=".3985" stroke-linecap="butt" stroke-miterlimit="10" stroke-linejoin="miter" fill="none" stroke="#000000" d="M68.60402 69.74034 72.77365 71.6587"/>
<path transform="matrix(1.00003,0,0,-1,2.0964967,163.37201)" stroke-width=".3985" stroke-linecap="butt" stroke-miterlimit="10" stroke-linejoin="miter" fill="none" stroke="#000000" d="M82.32481 69.74034 86.94232 70.80258"/>
<path transform="matrix(1.00003,0,0,-1,2.0964967,163.37201)" stroke-width=".3985" stroke-linecap="butt" stroke-miterlimit="10" stroke-linejoin="miter" fill="none" stroke="#000000" d="M96.04562 69.74034 100.84793 69.74039"/>
<path transform="matrix(1.00003,0,0,-1,2.0964967,163.37201)" stroke-width=".3985" stroke-linecap="butt" stroke-miterlimit="10" stroke-linejoin="miter" fill="none" stroke="#000000" d="M109.76642 69.74034 114.38399 68.67816"/>
<path transform="matrix(1.00003,0,0,-1,2.0964967,163.37201)" stroke-width=".3985" stroke-linecap="butt" stroke-miterlimit="10" stroke-linejoin="miter" fill="none" stroke="#000000" d="M123.48723 69.74034 127.65689 67.82205"/>
<path transform="matrix(1.00003,0,0,-1,2.0964967,163.37201)" stroke-width=".3985" stroke-linecap="butt" stroke-miterlimit="10" stroke-linejoin="miter" fill="none" stroke="#000000" d="M137.20804 69.74034 140.85433 67.22408"/>
<path transform="matrix(1.00003,0,0,-1,2.0964967,163.37201)" stroke-width=".3985" stroke-linecap="butt" stroke-miterlimit="10" stroke-linejoin="miter" fill="none" stroke="#000000" d="M150.92884 69.74034 154.09125 66.83052"/>
<path transform="matrix(1.00003,0,0,-1,2.0964967,163.37201)" stroke-width=".3985" stroke-linecap="butt" stroke-miterlimit="10" stroke-linejoin="miter" fill="none" stroke="#000000" d="M164.64965 69.74034 167.40361 66.57283"/>
<path transform="matrix(1.00003,0,0,-1,2.0964967,163.37201)" stroke-width=".3985" stroke-linecap="butt" stroke-miterlimit="10" stroke-linejoin="miter" fill="none" stroke="#000000" d="M178.37044 69.74034 180.79024 66.40057"/>
<path transform="matrix(1.00003,0,0,-1,2.0964967,163.37201)" stroke-width=".3985" stroke-linecap="butt" stroke-miterlimit="10" stroke-linejoin="miter" fill="none" stroke="#000000" d="M192.09125 69.74034 194.23894 66.28201"/>
<path transform="matrix(1.00003,0,0,-1,2.0964967,163.37201)" stroke-width=".3985" stroke-linecap="butt" stroke-miterlimit="10" stroke-linejoin="miter" fill="none" stroke="#000000" d="M0 80.78735 2.14767 84.2457"/>
<path transform="matrix(1.00003,0,0,-1,2.0964967,163.37201)" stroke-width=".3985" stroke-linecap="butt" stroke-miterlimit="10" stroke-linejoin="miter" fill="none" stroke="#000000" d="M13.7208 80.78735 16.14056 84.12714"/>
<path transform="matrix(1.00003,0,0,-1,2.0964967,163.37201)" stroke-width=".3985" stroke-linecap="butt" stroke-miterlimit="10" stroke-linejoin="miter" fill="none" stroke="#000000" d="M27.4416 80.78735 30.19557 83.95493"/>
<path transform="matrix(1.00003,0,0,-1,2.0964967,163.37201)" stroke-width=".3985" stroke-linecap="butt" stroke-miterlimit="10" stroke-linejoin="miter" fill="none" stroke="#000000" d="M41.1624 80.78735 44.32477 83.69727"/>
<path transform="matrix(1.00003,0,0,-1,2.0964967,163.37201)" stroke-width=".3985" stroke-linecap="butt" stroke-miterlimit="10" stroke-linejoin="miter" fill="none" stroke="#000000" d="M54.88321 80.78735 58.5294 83.30367"/>
<path transform="matrix(1.00003,0,0,-1,2.0964967,163.37201)" stroke-width=".3985" stroke-linecap="butt" stroke-miterlimit="10" stroke-linejoin="miter" fill="none" stroke="#000000" d="M68.60402 80.78735 72.77365 82.70572"/>
<path transform="matrix(1.00003,0,0,-1,2.0964967,163.37201)" stroke-width=".3985" stroke-linecap="butt" stroke-miterlimit="10" stroke-linejoin="miter" fill="none" stroke="#000000" d="M82.32481 80.78735 86.94232 81.84961"/>
<path transform="matrix(1.00003,0,0,-1,2.0964967,163.37201)" stroke-width=".3985" stroke-linecap="butt" stroke-miterlimit="10" stroke-linejoin="miter" fill="none" stroke="#000000" d="M96.04562 80.78735 100.84793 80.7874"/>
<path transform="matrix(1.00003,0,0,-1,2.0964967,163.37201)" stroke-width=".3985" stroke-linecap="butt" stroke-miterlimit="10" stroke-linejoin="miter" fill="none" stroke="#000000" d="M109.76642 80.78735 114.38399 79.72519"/>
<path transform="matrix(1.00003,0,0,-1,2.0964967,163.37201)" stroke-width=".3985" stroke-linecap="butt" stroke-miterlimit="10" stroke-linejoin="miter" fill="none" stroke="#000000" d="M123.48723 80.78735 127.65689 78.86906"/>
<path transform="matrix(1.00003,0,0,-1,2.0964967,163.37201)" stroke-width=".3985" stroke-linecap="butt" stroke-miterlimit="10" stroke-linejoin="miter" fill="none" stroke="#000000" d="M137.20804 80.78735 140.85433 78.27107"/>
<path transform="matrix(1.00003,0,0,-1,2.0964967,163.37201)" stroke-width=".3985" stroke-linecap="butt" stroke-miterlimit="10" stroke-linejoin="miter" fill="none" stroke="#000000" d="M150.92884 80.78735 154.09125 77.87753"/>
<path transform="matrix(1.00003,0,0,-1,2.0964967,163.37201)" stroke-width=".3985" stroke-linecap="butt" stroke-miterlimit="10" stroke-linejoin="miter" fill="none" stroke="#000000" d="M164.64965 80.78735 167.40361 77.61983"/>
<path transform="matrix(1.00003,0,0,-1,2.0964967,163.37201)" stroke-width=".3985" stroke-linecap="butt" stroke-miterlimit="10" stroke-linejoin="miter" fill="none" stroke="#000000" d="M178.37044 80.78735 180.79024 77.44759"/>
<path transform="matrix(1.00003,0,0,-1,2.0964967,163.37201)" stroke-width=".3985" stroke-linecap="butt" stroke-miterlimit="10" stroke-linejoin="miter" fill="none" stroke="#000000" d="M192.09125 80.78735 194.23894 77.32904"/>
<path transform="matrix(1.00003,0,0,-1,2.0964967,163.37201)" stroke-width=".3985" stroke-linecap="butt" stroke-miterlimit="10" stroke-linejoin="miter" fill="none" stroke="#000000" d="M0 91.83437 2.14767 95.2927"/>
<path transform="matrix(1.00003,0,0,-1,2.0964967,163.37201)" stroke-width=".3985" stroke-linecap="butt" stroke-miterlimit="10" stroke-linejoin="miter" fill="none" stroke="#000000" d="M13.7208 91.83437 16.14056 95.17413"/>
<path transform="matrix(1.00003,0,0,-1,2.0964967,163.37201)" stroke-width=".3985" stroke-linecap="butt" stroke-miterlimit="10" stroke-linejoin="miter" fill="none" stroke="#000000" d="M27.4416 91.83437 30.19557 95.00192"/>
<path transform="matrix(1.00003,0,0,-1,2.0964967,163.37201)" stroke-width=".3985" stroke-linecap="butt" stroke-miterlimit="10" stroke-linejoin="miter" fill="none" stroke="#000000" d="M41.1624 91.83437 44.32477 94.74428"/>
<path transform="matrix(1.00003,0,0,-1,2.0964967,163.37201)" stroke-width=".3985" stroke-linecap="butt" stroke-miterlimit="10" stroke-linejoin="miter" fill="none" stroke="#000000" d="M54.88321 91.83437 58.5294 94.35068"/>
<path transform="matrix(1.00003,0,0,-1,2.0964967,163.37201)" stroke-width=".3985" stroke-linecap="butt" stroke-miterlimit="10" stroke-linejoin="miter" fill="none" stroke="#000000" d="M68.60402 91.83437 72.77365 93.75272"/>
<path transform="matrix(1.00003,0,0,-1,2.0964967,163.37201)" stroke-width=".3985" stroke-linecap="butt" stroke-miterlimit="10" stroke-linejoin="miter" fill="none" stroke="#000000" d="M82.32481 91.83437 86.94232 92.8966"/>
<path transform="matrix(1.00003,0,0,-1,2.0964967,163.37201)" stroke-width=".3985" stroke-linecap="butt" stroke-miterlimit="10" stroke-linejoin="miter" fill="none" stroke="#000000" d="M96.04562 91.83437 100.84793 91.8344"/>
<path transform="matrix(1.00003,0,0,-1,2.0964967,163.37201)" stroke-width=".3985" stroke-linecap="butt" stroke-miterlimit="10" stroke-linejoin="miter" fill="none" stroke="#000000" d="M109.76642 91.83437 114.38399 90.77219"/>
<path transform="matrix(1.00003,0,0,-1,2.0964967,163.37201)" stroke-width=".3985" stroke-linecap="butt" stroke-miterlimit="10" stroke-linejoin="miter" fill="none" stroke="#000000" d="M123.48723 91.83437 127.65689 89.91606"/>
<path transform="matrix(1.00003,0,0,-1,2.0964967,163.37201)" stroke-width=".3985" stroke-linecap="butt" stroke-miterlimit="10" stroke-linejoin="miter" fill="none" stroke="#000000" d="M137.20804 91.83437 140.85433 89.31808"/>
<path transform="matrix(1.00003,0,0,-1,2.0964967,163.37201)" stroke-width=".3985" stroke-linecap="butt" stroke-miterlimit="10" stroke-linejoin="miter" fill="none" stroke="#000000" d="M150.92884 91.83437 154.09125 88.92455"/>
<path transform="matrix(1.00003,0,0,-1,2.0964967,163.37201)" stroke-width=".3985" stroke-linecap="butt" stroke-miterlimit="10" stroke-linejoin="miter" fill="none" stroke="#000000" d="M164.64965 91.83437 167.40361 88.66684"/>
<path transform="matrix(1.00003,0,0,-1,2.0964967,163.37201)" stroke-width=".3985" stroke-linecap="butt" stroke-miterlimit="10" stroke-linejoin="miter" fill="none" stroke="#000000" d="M178.37044 91.83437 180.79024 88.49458"/>
<path transform="matrix(1.00003,0,0,-1,2.0964967,163.37201)" stroke-width=".3985" stroke-linecap="butt" stroke-miterlimit="10" stroke-linejoin="miter" fill="none" stroke="#000000" d="M192.09125 91.83437 194.23894 88.37604"/>
<path transform="matrix(1.00003,0,0,-1,2.0964967,163.37201)" stroke-width=".3985" stroke-linecap="butt" stroke-miterlimit="10" stroke-linejoin="miter" fill="none" stroke="#000000" d="M0 102.88138 2.14767 106.3397"/>
<path transform="matrix(1.00003,0,0,-1,2.0964967,163.37201)" stroke-width=".3985" stroke-linecap="butt" stroke-miterlimit="10" stroke-linejoin="miter" fill="none" stroke="#000000" d="M13.7208 102.88138 16.14056 106.22116"/>
<path transform="matrix(1.00003,0,0,-1,2.0964967,163.37201)" stroke-width=".3985" stroke-linecap="butt" stroke-miterlimit="10" stroke-linejoin="miter" fill="none" stroke="#000000" d="M27.4416 102.88138 30.19557 106.04895"/>
<path transform="matrix(1.00003,0,0,-1,2.0964967,163.37201)" stroke-width=".3985" stroke-linecap="butt" stroke-miterlimit="10" stroke-linejoin="miter" fill="none" stroke="#000000" d="M41.1624 102.88138 44.32477 105.79128"/>
<path transform="matrix(1.00003,0,0,-1,2.0964967,163.37201)" stroke-width=".3985" stroke-linecap="butt" stroke-miterlimit="10" stroke-linejoin="miter" fill="none" stroke="#000000" d="M54.88321 102.88138 58.5294 105.39767"/>
<path transform="matrix(1.00003,0,0,-1,2.0964967,163.37201)" stroke-width=".3985" stroke-linecap="butt" stroke-miterlimit="10" stroke-linejoin="miter" fill="none" stroke="#000000" d="M68.60402 102.88138 72.77365 104.79973"/>
<path transform="matrix(1.00003,0,0,-1,2.0964967,163.37201)" stroke-width=".3985" stroke-linecap="butt" stroke-miterlimit="10" stroke-linejoin="miter" fill="none" stroke="#000000" d="M82.32481 102.88138 86.94232 103.9436"/>
<path transform="matrix(1.00003,0,0,-1,2.0964967,163.37201)" stroke-width=".3985" stroke-linecap="butt" stroke-miterlimit="10" stroke-linejoin="miter" fill="none" stroke="#000000" d="M96.04562 102.88138 100.84793 102.88142"/>
<path transform="matrix(1.00003,0,0,-1,2.0964967,163.37201)" stroke-width=".3985" stroke-linecap="butt" stroke-miterlimit="10" stroke-linejoin="miter" fill="none" stroke="#000000" d="M109.76642 102.88138 114.38399 101.8192"/>
<path transform="matrix(1.00003,0,0,-1,2.0964967,163.37201)" stroke-width=".3985" stroke-linecap="butt" stroke-miterlimit="10" stroke-linejoin="miter" fill="none" stroke="#000000" d="M123.48723 102.88138 127.65689 100.96306"/>
<path transform="matrix(1.00003,0,0,-1,2.0964967,163.37201)" stroke-width=".3985" stroke-linecap="butt" stroke-miterlimit="10" stroke-linejoin="miter" fill="none" stroke="#000000" d="M137.20804 102.88138 140.85433 100.3651"/>
<path transform="matrix(1.00003,0,0,-1,2.0964967,163.37201)" stroke-width=".3985" stroke-linecap="butt" stroke-miterlimit="10" stroke-linejoin="miter" fill="none" stroke="#000000" d="M150.92884 102.88138 154.09125 99.97154"/>
<path transform="matrix(1.00003,0,0,-1,2.0964967,163.37201)" stroke-width=".3985" stroke-linecap="butt" stroke-miterlimit="10" stroke-linejoin="miter" fill="none" stroke="#000000" d="M164.64965 102.88138 167.40361 99.71384"/>
<path transform="matrix(1.00003,0,0,-1,2.0964967,163.37201)" stroke-width=".3985" stroke-linecap="butt" stroke-miterlimit="10" stroke-linejoin="miter" fill="none" stroke="#000000" d="M178.37044 102.88138 180.79024 99.5416"/>
<path transform="matrix(1.00003,0,0,-1,2.0964967,163.37201)" stroke-width=".3985" stroke-linecap="butt" stroke-miterlimit="10" stroke-linejoin="miter" fill="none" stroke="#000000" d="M192.09125 102.88138 194.23894 99.42305"/>
<path transform="matrix(1.00003,0,0,-1,2.0964967,163.37201)" stroke-width=".3985" stroke-linecap="butt" stroke-miterlimit="10" stroke-linejoin="miter" fill="none" stroke="#000000" d="M0 113.92838 2.14767 117.3867"/>
<path transform="matrix(1.00003,0,0,-1,2.0964967,163.37201)" stroke-width=".3985" stroke-linecap="butt" stroke-miterlimit="10" stroke-linejoin="miter" fill="none" stroke="#000000" d="M13.7208 113.92838 16.14056 117.26816"/>
<path transform="matrix(1.00003,0,0,-1,2.0964967,163.37201)" stroke-width=".3985" stroke-linecap="butt" stroke-miterlimit="10" stroke-linejoin="miter" fill="none" stroke="#000000" d="M27.4416 113.92838 30.19557 117.09595"/>
<path transform="matrix(1.00003,0,0,-1,2.0964967,163.37201)" stroke-width=".3985" stroke-linecap="butt" stroke-miterlimit="10" stroke-linejoin="miter" fill="none" stroke="#000000" d="M41.1624 113.92838 44.32477 116.83829"/>
<path transform="matrix(1.00003,0,0,-1,2.0964967,163.37201)" stroke-width=".3985" stroke-linecap="butt" stroke-miterlimit="10" stroke-linejoin="miter" fill="none" stroke="#000000" d="M54.88321 113.92838 58.5294 116.44469"/>
<path transform="matrix(1.00003,0,0,-1,2.0964967,163.37201)" stroke-width=".3985" stroke-linecap="butt" stroke-miterlimit="10" stroke-linejoin="miter" fill="none" stroke="#000000" d="M68.60402 113.92838 72.77365 115.84674"/>
<path transform="matrix(1.00003,0,0,-1,2.0964967,163.37201)" stroke-width=".3985" stroke-linecap="butt" stroke-miterlimit="10" stroke-linejoin="miter" fill="none" stroke="#000000" d="M82.32481 113.92838 86.94232 114.99063"/>
<path transform="matrix(1.00003,0,0,-1,2.0964967,163.37201)" stroke-width=".3985" stroke-linecap="butt" stroke-miterlimit="10" stroke-linejoin="miter" fill="none" stroke="#000000" d="M96.04562 113.92838 100.84793 113.92842"/>
<path transform="matrix(1.00003,0,0,-1,2.0964967,163.37201)" stroke-width=".3985" stroke-linecap="butt" stroke-miterlimit="10" stroke-linejoin="miter" fill="none" stroke="#000000" d="M109.76642 113.92838 114.38399 112.8662"/>
<path transform="matrix(1.00003,0,0,-1,2.0964967,163.37201)" stroke-width=".3985" stroke-linecap="butt" stroke-miterlimit="10" stroke-linejoin="miter" fill="none" stroke="#000000" d="M123.48723 113.92838 127.65689 112.01009"/>
<path transform="matrix(1.00003,0,0,-1,2.0964967,163.37201)" stroke-width=".3985" stroke-linecap="butt" stroke-miterlimit="10" stroke-linejoin="miter" fill="none" stroke="#000000" d="M137.20804 113.92838 140.85433 111.4121"/>
<path transform="matrix(1.00003,0,0,-1,2.0964967,163.37201)" stroke-width=".3985" stroke-linecap="butt" stroke-miterlimit="10" stroke-linejoin="miter" fill="none" stroke="#000000" d="M150.92884 113.92838 154.09125 111.01855"/>
<path transform="matrix(1.00003,0,0,-1,2.0964967,163.37201)" stroke-width=".3985" stroke-linecap="butt" stroke-miterlimit="10" stroke-linejoin="miter" fill="none" stroke="#000000" d="M164.64965 113.92838 167.40361 110.76085"/>
<path transform="matrix(1.00003,0,0,-1,2.0964967,163.37201)" stroke-width=".3985" stroke-linecap="butt" stroke-miterlimit="10" stroke-linejoin="miter" fill="none" stroke="#000000" d="M178.37044 113.92838 180.79024 110.5886"/>
<path transform="matrix(1.00003,0,0,-1,2.0964967,163.37201)" stroke-width=".3985" stroke-linecap="butt" stroke-miterlimit="10" stroke-linejoin="miter" fill="none" stroke="#000000" d="M192.09125 113.92838 194.23894 110.47006"/>
<path transform="matrix(1.00003,0,0,-1,2.0964967,163.37201)" stroke-width=".3985" stroke-linecap="butt" stroke-miterlimit="10" stroke-linejoin="miter" fill="none" stroke="#000000" d="M0 124.9754 2.14767 128.43372"/>
<path transform="matrix(1.00003,0,0,-1,2.0964967,163.37201)" stroke-width=".3985" stroke-linecap="butt" stroke-miterlimit="10" stroke-linejoin="miter" fill="none" stroke="#000000" d="M13.7208 124.9754 16.14056 128.31517"/>
<path transform="matrix(1.00003,0,0,-1,2.0964967,163.37201)" stroke-width=".3985" stroke-linecap="butt" stroke-miterlimit="10" stroke-linejoin="miter" fill="none" stroke="#000000" d="M27.4416 124.9754 30.19557 128.14296"/>
<path transform="matrix(1.00003,0,0,-1,2.0964967,163.37201)" stroke-width=".3985" stroke-linecap="butt" stroke-miterlimit="10" stroke-linejoin="miter" fill="none" stroke="#000000" d="M41.1624 124.9754 44.32477 127.88528"/>
<path transform="matrix(1.00003,0,0,-1,2.0964967,163.37201)" stroke-width=".3985" stroke-linecap="butt" stroke-miterlimit="10" stroke-linejoin="miter" fill="none" stroke="#000000" d="M54.88321 124.9754 58.5294 127.4917"/>
<path transform="matrix(1.00003,0,0,-1,2.0964967,163.37201)" stroke-width=".3985" stroke-linecap="butt" stroke-miterlimit="10" stroke-linejoin="miter" fill="none" stroke="#000000" d="M68.60402 124.9754 72.77365 126.89375"/>
<path transform="matrix(1.00003,0,0,-1,2.0964967,163.37201)" stroke-width=".3985" stroke-linecap="butt" stroke-miterlimit="10" stroke-linejoin="miter" fill="none" stroke="#000000" d="M82.32481 124.9754 86.94232 126.03761"/>
<path transform="matrix(1.00003,0,0,-1,2.0964967,163.37201)" stroke-width=".3985" stroke-linecap="butt" stroke-miterlimit="10" stroke-linejoin="miter" fill="none" stroke="#000000" d="M96.04562 124.9754 100.84793 124.97543"/>
<path transform="matrix(1.00003,0,0,-1,2.0964967,163.37201)" stroke-width=".3985" stroke-linecap="butt" stroke-miterlimit="10" stroke-linejoin="miter" fill="none" stroke="#000000" d="M109.76642 124.9754 114.38399 123.91322"/>
<path transform="matrix(1.00003,0,0,-1,2.0964967,163.37201)" stroke-width=".3985" stroke-linecap="butt" stroke-miterlimit="10" stroke-linejoin="miter" fill="none" stroke="#000000" d="M123.48723 124.9754 127.65689 123.05708"/>
<path transform="matrix(1.00003,0,0,-1,2.0964967,163.37201)" stroke-width=".3985" stroke-linecap="butt" stroke-miterlimit="10" stroke-linejoin="miter" fill="none" stroke="#000000" d="M137.20804 124.9754 140.85433 122.4591"/>
<path transform="matrix(1.00003,0,0,-1,2.0964967,163.37201)" stroke-width=".3985" stroke-linecap="butt" stroke-miterlimit="10" stroke-linejoin="miter" fill="none" stroke="#000000" d="M150.92884 124.9754 154.09125 122.06557"/>
<path transform="matrix(1.00003,0,0,-1,2.0964967,163.37201)" stroke-width=".3985" stroke-linecap="butt" stroke-miterlimit="10" stroke-linejoin="miter" fill="none" stroke="#000000" d="M164.64965 124.9754 167.40361 121.80786"/>
<path transform="matrix(1.00003,0,0,-1,2.0964967,163.37201)" stroke-width=".3985" stroke-linecap="butt" stroke-miterlimit="10" stroke-linejoin="miter" fill="none" stroke="#000000" d="M178.37044 124.9754 180.79024 121.6356"/>
<path transform="matrix(1.00003,0,0,-1,2.0964967,163.37201)" stroke-width=".3985" stroke-linecap="butt" stroke-miterlimit="10" stroke-linejoin="miter" fill="none" stroke="#000000" d="M192.09125 124.9754 194.23894 121.51707"/>
<path transform="matrix(1.00003,0,0,-1,2.0964967,163.37201)" stroke-width=".3985" stroke-linecap="butt" stroke-miterlimit="10" stroke-linejoin="miter" fill="none" stroke="#000000" d="M0 136.0224 2.14767 139.48072"/>
<path transform="matrix(1.00003,0,0,-1,2.0964967,163.37201)" stroke-width=".3985" stroke-linecap="butt" stroke-miterlimit="10" stroke-linejoin="miter" fill="none" stroke="#000000" d="M13.7208 136.0224 16.14056 139.36217"/>
<path transform="matrix(1.00003,0,0,-1,2.0964967,163.37201)" stroke-width=".3985" stroke-linecap="butt" stroke-miterlimit="10" stroke-linejoin="miter" fill="none" stroke="#000000" d="M27.4416 136.0224 30.19557 139.18996"/>
<path transform="matrix(1.00003,0,0,-1,2.0964967,163.37201)" stroke-width=".3985" stroke-linecap="butt" stroke-miterlimit="10" stroke-linejoin="miter" fill="none" stroke="#000000" d="M41.1624 136.0224 44.32477 138.9323"/>
<path transform="matrix(1.00003,0,0,-1,2.0964967,163.37201)" stroke-width=".3985" stroke-linecap="butt" stroke-miterlimit="10" stroke-linejoin="miter" fill="none" stroke="#000000" d="M54.88321 136.0224 58.5294 138.53871"/>
<path transform="matrix(1.00003,0,0,-1,2.0964967,163.37201)" stroke-width=".3985" stroke-linecap="butt" stroke-miterlimit="10" stroke-linejoin="miter" fill="none" stroke="#000000" d="M68.60402 136.0224 72.77365 137.94075"/>
<path transform="matrix(1.00003,0,0,-1,2.0964967,163.37201)" stroke-width=".3985" stroke-linecap="butt" stroke-miterlimit="10" stroke-linejoin="miter" fill="none" stroke="#000000" d="M82.32481 136.0224 86.94232 137.08463"/>
<path transform="matrix(1.00003,0,0,-1,2.0964967,163.37201)" stroke-width=".3985" stroke-linecap="butt" stroke-miterlimit="10" stroke-linejoin="miter" fill="none" stroke="#000000" d="M96.04562 136.0224 100.84793 136.02243"/>
<path transform="matrix(1.00003,0,0,-1,2.0964967,163.37201)" stroke-width=".3985" stroke-linecap="butt" stroke-miterlimit="10" stroke-linejoin="miter" fill="none" stroke="#000000" d="M109.76642 136.0224 114.38399 134.96022"/>
<path transform="matrix(1.00003,0,0,-1,2.0964967,163.37201)" stroke-width=".3985" stroke-linecap="butt" stroke-miterlimit="10" stroke-linejoin="miter" fill="none" stroke="#000000" d="M123.48723 136.0224 127.65689 134.1041"/>
<path transform="matrix(1.00003,0,0,-1,2.0964967,163.37201)" stroke-width=".3985" stroke-linecap="butt" stroke-miterlimit="10" stroke-linejoin="miter" fill="none" stroke="#000000" d="M137.20804 136.0224 140.85433 133.5061"/>
<path transform="matrix(1.00003,0,0,-1,2.0964967,163.37201)" stroke-width=".3985" stroke-linecap="butt" stroke-miterlimit="10" stroke-linejoin="miter" fill="none" stroke="#000000" d="M150.92884 136.0224 154.09125 133.11258"/>
<path transform="matrix(1.00003,0,0,-1,2.0964967,163.37201)" stroke-width=".3985" stroke-linecap="butt" stroke-miterlimit="10" stroke-linejoin="miter" fill="none" stroke="#000000" d="M164.64965 136.0224 167.40361 132.85488"/>
<path transform="matrix(1.00003,0,0,-1,2.0964967,163.37201)" stroke-width=".3985" stroke-linecap="butt" stroke-miterlimit="10" stroke-linejoin="miter" fill="none" stroke="#000000" d="M178.37044 136.0224 180.79024 132.68262"/>
<path transform="matrix(1.00003,0,0,-1,2.0964967,163.37201)" stroke-width=".3985" stroke-linecap="butt" stroke-miterlimit="10" stroke-linejoin="miter" fill="none" stroke="#000000" d="M192.09125 136.0224 194.23894 132.56407"/>
<path transform="matrix(1.00003,0,0,-1,2.0964967,163.37201)" stroke-width=".3985" stroke-linecap="butt" stroke-miterlimit="10" stroke-linejoin="miter" fill="none" stroke="#000000" d="M0 147.0694 2.14767 150.52773"/>
<path transform="matrix(1.00003,0,0,-1,2.0964967,163.37201)" stroke-width=".3985" stroke-linecap="butt" stroke-miterlimit="10" stroke-linejoin="miter" fill="none" stroke="#000000" d="M13.7208 147.0694 16.14056 150.40918"/>
<path transform="matrix(1.00003,0,0,-1,2.0964967,163.37201)" stroke-width=".3985" stroke-linecap="butt" stroke-miterlimit="10" stroke-linejoin="miter" fill="none" stroke="#000000" d="M27.4416 147.0694 30.19557 150.23697"/>
<path transform="matrix(1.00003,0,0,-1,2.0964967,163.37201)" stroke-width=".3985" stroke-linecap="butt" stroke-miterlimit="10" stroke-linejoin="miter" fill="none" stroke="#000000" d="M41.1624 147.0694 44.32477 149.97931"/>
<path transform="matrix(1.00003,0,0,-1,2.0964967,163.37201)" stroke-width=".3985" stroke-linecap="butt" stroke-miterlimit="10" stroke-linejoin="miter" fill="none" stroke="#000000" d="M54.88321 147.0694 58.5294 149.58571"/>
<path transform="matrix(1.00003,0,0,-1,2.0964967,163.37201)" stroke-width=".3985" stroke-linecap="butt" stroke-miterlimit="10" stroke-linejoin="miter" fill="none" stroke="#000000" d="M68.60402 147.0694 72.77365 148.98777"/>
<path transform="matrix(1.00003,0,0,-1,2.0964967,163.37201)" stroke-width=".3985" stroke-linecap="butt" stroke-miterlimit="10" stroke-linejoin="miter" fill="none" stroke="#000000" d="M82.32481 147.0694 86.94232 148.13164"/>
<path transform="matrix(1.00003,0,0,-1,2.0964967,163.37201)" stroke-width=".3985" stroke-linecap="butt" stroke-miterlimit="10" stroke-linejoin="miter" fill="none" stroke="#000000" d="M96.04562 147.0694 100.84793 147.06943"/>
<path transform="matrix(1.00003,0,0,-1,2.0964967,163.37201)" stroke-width=".3985" stroke-linecap="butt" stroke-miterlimit="10" stroke-linejoin="miter" fill="none" stroke="#000000" d="M109.76642 147.0694 114.38399 146.00724"/>
<path transform="matrix(1.00003,0,0,-1,2.0964967,163.37201)" stroke-width=".3985" stroke-linecap="butt" stroke-miterlimit="10" stroke-linejoin="miter" fill="none" stroke="#000000" d="M123.48723 147.0694 127.65689 145.1511"/>
<path transform="matrix(1.00003,0,0,-1,2.0964967,163.37201)" stroke-width=".3985" stroke-linecap="butt" stroke-miterlimit="10" stroke-linejoin="miter" fill="none" stroke="#000000" d="M137.20804 147.0694 140.85433 144.55313"/>
<path transform="matrix(1.00003,0,0,-1,2.0964967,163.37201)" stroke-width=".3985" stroke-linecap="butt" stroke-miterlimit="10" stroke-linejoin="miter" fill="none" stroke="#000000" d="M150.92884 147.0694 154.09125 144.15958"/>
<path transform="matrix(1.00003,0,0,-1,2.0964967,163.37201)" stroke-width=".3985" stroke-linecap="butt" stroke-miterlimit="10" stroke-linejoin="miter" fill="none" stroke="#000000" d="M164.64965 147.0694 167.40361 143.90187"/>
<path transform="matrix(1.00003,0,0,-1,2.0964967,163.37201)" stroke-width=".3985" stroke-linecap="butt" stroke-miterlimit="10" stroke-linejoin="miter" fill="none" stroke="#000000" d="M178.37044 147.0694 180.79024 143.72962"/>
<path transform="matrix(1.00003,0,0,-1,2.0964967,163.37201)" stroke-width=".3985" stroke-linecap="butt" stroke-miterlimit="10" stroke-linejoin="miter" fill="none" stroke="#000000" d="M192.09125 147.0694 194.23894 143.61107"/>
<path transform="matrix(1.00003,0,0,-1,2.0964967,163.37201)" stroke-width=".3985" stroke-linecap="butt" stroke-miterlimit="10" stroke-linejoin="miter" fill="none" stroke="#000000" d="M0 158.11641 2.14767 161.57474"/>
<path transform="matrix(1.00003,0,0,-1,2.0964967,163.37201)" stroke-width=".3985" stroke-linecap="butt" stroke-miterlimit="10" stroke-linejoin="miter" fill="none" stroke="#000000" d="M13.7208 158.11641 16.14056 161.45618"/>
<path transform="matrix(1.00003,0,0,-1,2.0964967,163.37201)" stroke-width=".3985" stroke-linecap="butt" stroke-miterlimit="10" stroke-linejoin="miter" fill="none" stroke="#000000" d="M27.4416 158.11641 30.19557 161.28397"/>
<path transform="matrix(1.00003,0,0,-1,2.0964967,163.37201)" stroke-width=".3985" stroke-linecap="butt" stroke-miterlimit="10" stroke-linejoin="miter" fill="none" stroke="#000000" d="M41.1624 158.11641 44.32477 161.0263"/>
<path transform="matrix(1.00003,0,0,-1,2.0964967,163.37201)" stroke-width=".3985" stroke-linecap="butt" stroke-miterlimit="10" stroke-linejoin="miter" fill="none" stroke="#000000" d="M54.88321 158.11641 58.5294 160.63272"/>
<path transform="matrix(1.00003,0,0,-1,2.0964967,163.37201)" stroke-width=".3985" stroke-linecap="butt" stroke-miterlimit="10" stroke-linejoin="miter" fill="none" stroke="#000000" d="M68.60402 158.11641 72.77365 160.03476"/>
<path transform="matrix(1.00003,0,0,-1,2.0964967,163.37201)" stroke-width=".3985" stroke-linecap="butt" stroke-miterlimit="10" stroke-linejoin="miter" fill="none" stroke="#000000" d="M82.32481 158.11641 86.94232 159.17865"/>
<path transform="matrix(1.00003,0,0,-1,2.0964967,163.37201)" stroke-width=".3985" stroke-linecap="butt" stroke-miterlimit="10" stroke-linejoin="miter" fill="none" stroke="#000000" d="M96.04562 158.11641 100.84793 158.11644"/>
<path transform="matrix(1.00003,0,0,-1,2.0964967,163.37201)" stroke-width=".3985" stroke-linecap="butt" stroke-miterlimit="10" stroke-linejoin="miter" fill="none" stroke="#000000" d="M109.76642 158.11641 114.38399 157.05423"/>
<path transform="matrix(1.00003,0,0,-1,2.0964967,163.37201)" stroke-width=".3985" stroke-linecap="butt" stroke-miterlimit="10" stroke-linejoin="miter" fill="none" stroke="#000000" d="M123.48723 158.11641 127.65689 156.1981"/>
<path transform="matrix(1.00003,0,0,-1,2.0964967,163.37201)" stroke-width=".3985" stroke-linecap="butt" stroke-miterlimit="10" stroke-linejoin="miter" fill="none" stroke="#000000" d="M137.20804 158.11641 140.85433 155.60013"/>
<path transform="matrix(1.00003,0,0,-1,2.0964967,163.37201)" stroke-width=".3985" stroke-linecap="butt" stroke-miterlimit="10" stroke-linejoin="miter" fill="none" stroke="#000000" d="M150.92884 158.11641 154.09125 155.20659"/>
<path transform="matrix(1.00003,0,0,-1,2.0964967,163.37201)" stroke-width=".3985" stroke-linecap="butt" stroke-miterlimit="10" stroke-linejoin="miter" fill="none" stroke="#000000" d="M164.64965 158.11641 167.40361 154.94889"/>
<path transform="matrix(1.00003,0,0,-1,2.0964967,163.37201)" stroke-width=".3985" stroke-linecap="butt" stroke-miterlimit="10" stroke-linejoin="miter" fill="none" stroke="#000000" d="M178.37044 158.11641 180.79024 154.77664"/>
<path transform="matrix(1.00003,0,0,-1,2.0964967,163.37201)" stroke-width=".3985" stroke-linecap="butt" stroke-miterlimit="10" stroke-linejoin="miter" fill="none" stroke="#000000" d="M192.09125 158.11641 194.23894 154.65808"/>
<path transform="matrix(1.00003,0,0,-1,2.0964967,163.37201)" stroke-width=".3985" stroke-linecap="butt" stroke-miterlimit="10" stroke-linejoin="miter" fill="none" stroke="#000000" d=""/>
</g>
<path transform="matrix(1.00003,0,0,-1,2.0964967,163.37201)" stroke-width=".19925" stroke-linecap="butt" stroke-miterlimit="10" stroke-linejoin="miter" fill="none" stroke="#7f807f" d="M24.01152 79.37025V82.20522M72.03456 79.37025V82.20522M120.05762 79.37025V82.20522M168.08068 79.37025V82.20522"/>
<path transform="matrix(1.00003,0,0,-1,2.0964967,163.37201)" stroke-width=".19925" stroke-linecap="butt" stroke-miterlimit="10" stroke-linejoin="miter" fill="none" stroke="#7f807f" d="M0 78.66171V82.91376M48.02304 78.66171V82.91376M144.06914 78.66171V82.91376M192.0922 78.66171V82.91376"/>
<path transform="matrix(1.00003,0,0,-1,2.0964967,163.37201)" stroke-width=".19925" stroke-linecap="butt" stroke-miterlimit="10" stroke-linejoin="miter" fill="none" stroke="#7f807f" d="M94.62872 22.79066H97.46347M94.62872 61.45537H97.46347M94.62872 100.12009H97.46347M94.62872 138.78479H97.46347"/>
<path transform="matrix(1.00003,0,0,-1,2.0964967,163.37201)" stroke-width=".19925" stroke-linecap="butt" stroke-miterlimit="10" stroke-linejoin="miter" fill="none" stroke="#7f807f" d="M93.92024 3.45831H98.17192M93.92024 42.12302H98.17192M93.92024 119.45244H98.17192M93.92024 158.11716H98.17192"/>
<path transform="matrix(1.00003,0,0,-1,2.0964967,163.37201)" stroke-width=".3985" stroke-linecap="butt" stroke-miterlimit="10" stroke-linejoin="miter" fill="none" stroke="#000000" d="M0 80.78773H192.24642"/>
<path transform="matrix(1.00003,0,0,-1,194.34868,82.58428)" d="M1.99252 0-1.19551 1.59401 0 0-1.19551-1.59401"/>
<path transform="matrix(1.00003,0,0,-1,2.0964967,163.37201)" stroke-width=".3985" stroke-linecap="butt" stroke-miterlimit="10" stroke-linejoin="miter" fill="none" stroke="#000000" d="M96.0461 0V159.58222"/>
<path transform="matrix(0,-1,-1.00003,-0,98.14548,3.789795)" d="M1.99252 0-1.19551 1.59401 0 0-1.19551-1.59401"/>
<path transform="matrix(1.00003,0,0,-1,2.0964967,163.37201)" stroke-width=".19925" stroke-linecap="butt" stroke-miterlimit="10" stroke-linejoin="miter" fill="none" stroke="#7f807f" d="M24.01152 79.37025V82.20522M72.03456 79.37025V82.20522M120.05762 79.37025V82.20522M168.08068 79.37025V82.20522"/>
<path transform="matrix(1.00003,0,0,-1,2.0964967,163.37201)" stroke-width=".19925" stroke-linecap="butt" stroke-miterlimit="10" stroke-linejoin="miter" fill="none" stroke="#7f807f" d="M0 78.66171V82.91376M48.02304 78.66171V82.91376M144.06914 78.66171V82.91376M192.0922 78.66171V82.91376"/>
<path transform="matrix(1.00003,0,0,-1,2.0964967,163.37201)" stroke-width=".19925" stroke-linecap="butt" stroke-miterlimit="10" stroke-linejoin="miter" fill="none" stroke="#7f807f" d="M94.62872 22.79066H97.46347M94.62872 61.45537H97.46347M94.62872 100.12009H97.46347M94.62872 138.78479H97.46347"/>
<path transform="matrix(1.00003,0,0,-1,2.0964967,163.37201)" stroke-width=".19925" stroke-linecap="butt" stroke-miterlimit="10" stroke-linejoin="miter" fill="none" stroke="#7f807f" d="M93.92024 3.45831H98.17192M93.92024 42.12302H98.17192M93.92024 119.45244H98.17192M93.92024 158.11716H98.17192"/>
<path transform="matrix(1.00003,0,0,-1,2.0964967,163.37201)" stroke-width=".3985" stroke-linecap="butt" stroke-miterlimit="10" stroke-linejoin="miter" fill="none" stroke="#000000" d="M0 80.78773H192.24642"/>
<path transform="matrix(1.00003,0,0,-1,194.34868,82.58428)" d="M1.99252 0-1.19551 1.59401 0 0-1.19551-1.59401"/>
<path transform="matrix(1.00003,0,0,-1,2.0964967,163.37201)" stroke-width=".3985" stroke-linecap="butt" stroke-miterlimit="10" stroke-linejoin="miter" fill="none" stroke="#000000" d="M96.0461 0V159.58222"/>
<path transform="matrix(0,-1,-1.00003,-0,98.14548,3.789795)" d="M1.99252 0-1.19551 1.59401 0 0-1.19551-1.59401"/>
<use data-text="x" xlink:href="#font_2_1" transform="matrix(9.962899,0,0,-9.9626,187.16005,79.05201)"/>
<use data-text="y" xlink:href="#font_2_2" transform="matrix(9.962899,0,0,-9.9626,101.687488,9.578003)"/>
</svg>
