<svg xmlns="http://www.w3.org/2000/svg" xmlns:xlink="http://www.w3.org/1999/xlink" xmlns:inkscape="http://www.inkscape.org/namespaces/inkscape" version="1.1" width="198" height="165" viewBox="0 0 198 165">
<defs>
<clipPath id="clip_1">
<path transform="matrix(1.00006,0,0,-1.00006,2.0959855,163.35984)" d="M194.46277 0V0H0V161.55367H194.46277Z"/>
</clipPath>
<path id="font_2_1" d="M.33399964 .30233766C.33999635 .32835389 .36299134 .42037965 .43299867 .42037965 .43798829 .42037965 .46199037 .42037965 .48298646 .40734864 .45498658 .402359 .43499757 .37734986 .43499757 .35334779 .43499757 .33735658 .44599916 .31835938 .47299195 .31835938 .49499513 .31835938 .5269928 .3363495 .5269928 .37635804 .5269928 .42837525 .46798707 .4423828 .43399049 .4423828 .37599183 .4423828 .34098817 .38935853 .32899476 .36634828 .3039856 .43237306 .25 .4423828 .22099304 .4423828 .116989139 .4423828 .05999756 .3133545 .05999756 .28834535 .05999756 .27833558 .069992069 .27833558 .07199097 .27833558 .07998657 .27833558 .08299255 .28033448 .084991458 .28933717 .11898804 .39535523 .18499756 .42037965 .21899414 .42037965 .23799134 .42037965 .272995 .4113617 .272995 .35334779 .272995 .32235719 .2559967 .25532533 .21899414 .11528015 .20298767 .053268434 .16799927 .011245728 .12399292 .011245728 .117996219 .011245728 .09498596 .011245728 .07398987 .024276734 .09899902 .029266358 .12098694 .05027771 .12098694 .07827759 .12098694 .105270389 .09899902 .11328125 .083999637 .11328125 .053985597 .11328125 .0289917 .08728027 .0289917 .055267335 .0289917 .009246826 .07899475-.0107421879 .12298584-.0107421879 .18899536-.0107421879 .22499085 .059280397 .22799683 .0652771 .23999024 .028274537 .27598573-.0107421879 .33599855-.0107421879 .43899537-.0107421879 .49598695 .118270877 .49598695 .14328003 .49598695 .1532898 .4869995 .1532898 .48399354 .1532898 .47499085 .1532898 .47299195 .14929199 .47099305 .14228821 .43798829 .03527832 .36999513 .011245728 .33799745 .011245728 .29899598 .011245728 .2829895 .043273927 .2829895 .07727051 .2829895 .09927368 .2889862 .121276859 .2999878 .16529846L.33399964 .30233766Z"/>
<path id="font_2_2" d="M.48599244 .38136292C.48999024 .39537049 .48999024 .39736939 .48999024 .40437318 .48999024 .42237855 .47599793 .43138124 .46099855 .43138124 .45098878 .43138124 .43499757 .42536927 .42599488 .41036988 .42399598 .405365 .41600038 .37435914 .4119873 .35635377 .40499879 .33035279 .397995 .30334474 .3919983 .27633668L.34700013 .09628296C.34298707 .08126831 .2999878 .011245728 .23399353 .011245728 .18299866 .011245728 .17199707 .055267335 .17199707 .0922699 .17199707 .1382904 .18899536 .20030213 .22299195 .28833009 .23899842 .3293457 .24299622 .3403473 .24299622 .36035157 .24299622 .405365 .21099854 .4423828 .16099549 .4423828 .06599426 .4423828 .0289917 .29733277 .0289917 .28833009 .0289917 .27833558 .038986207 .27833558 .040985109 .27833558 .050994874 .27833558 .051986696 .28033448 .056991579 .29634095 .083999637 .3903656 .12399292 .42037965 .1579895 .42037965 .1659851 .42037965 .18299866 .42037965 .18299866 .3883667 .18299866 .36335755 .17298889 .3373413 .1659851 .31834413 .12599182 .21231079 .10798645 .1552887 .10798645 .10827637 .10798645 .019256592 .17098999-.0107421879 .22999573-.0107421879 .2689972-.0107421879 .30299378 .0062561037 .33099366 .03425598 .31799317-.017745972 .30599977-.06674194 .2659912-.11973572 .23999024-.15385437 .20199585-.18309021 .1559906-.18309021 .14199829-.18309021 .09700012-.18005371 .07998657-.14074707 .09599304-.14074707 .10899353-.14074707 .12298584-.1287384 .1329956-.11973572 .14299011-.10673523 .14299011-.08773804 .14299011-.056747438 .115997318-.052734376 .10598755-.052734376 .08299255-.052734376 .049987794-.068740848 .049987794-.11773682 .049987794-.16796875 .09399414-.20507813 .1559906-.20507813 .25898744-.20507813 .3619995-.11373901 .3899994-.00074768069L.48599244 .38136292Z"/>
</defs>
<g clip-path="url(#clip_1)">
<path transform="matrix(1.00006,0,0,-1.00006,2.0959855,163.35984)" stroke-width=".3985" stroke-linecap="butt" stroke-miterlimit="10" stroke-linejoin="miter" fill="none" stroke="#000000" d="M0 0 2.12115 3.6125"/>
<path transform="matrix(1.00006,0,0,-1.00006,2.0959855,163.35984)" stroke-width=".3985" stroke-linecap="butt" stroke-miterlimit="10" stroke-linejoin="miter" fill="none" stroke="#000000" d="M13.5514 0 15.67256 3.6125"/>
<path transform="matrix(1.00006,0,0,-1.00006,2.0959855,163.35984)" stroke-width=".3985" stroke-linecap="butt" stroke-miterlimit="10" stroke-linejoin="miter" fill="none" stroke="#000000" d="M27.10281 0 29.22398 3.6125"/>
<path transform="matrix(1.00006,0,0,-1.00006,2.0959855,163.35984)" stroke-width=".3985" stroke-linecap="butt" stroke-miterlimit="10" stroke-linejoin="miter" fill="none" stroke="#000000" d="M40.65422 0 42.77539 3.6125"/>
<path transform="matrix(1.00006,0,0,-1.00006,2.0959855,163.35984)" stroke-width=".3985" stroke-linecap="butt" stroke-miterlimit="10" stroke-linejoin="miter" fill="none" stroke="#000000" d="M54.20563 0 56.3268 3.6125"/>
<path transform="matrix(1.00006,0,0,-1.00006,2.0959855,163.35984)" stroke-width=".3985" stroke-linecap="butt" stroke-miterlimit="10" stroke-linejoin="miter" fill="none" stroke="#000000" d="M67.75705 0 69.8782 3.6125"/>
<path transform="matrix(1.00006,0,0,-1.00006,2.0959855,163.35984)" stroke-width=".3985" stroke-linecap="butt" stroke-miterlimit="10" stroke-linejoin="miter" fill="none" stroke="#000000" d="M81.30846 0 83.42963 3.6125"/>
<path transform="matrix(1.00006,0,0,-1.00006,2.0959855,163.35984)" stroke-width=".3985" stroke-linecap="butt" stroke-miterlimit="10" stroke-linejoin="miter" fill="none" stroke="#000000" d="M94.85986 0 96.98105 3.6125"/>
<path transform="matrix(1.00006,0,0,-1.00006,2.0959855,163.35984)" stroke-width=".3985" stroke-linecap="butt" stroke-miterlimit="10" stroke-linejoin="miter" fill="none" stroke="#000000" d="M108.41129 0 110.53246 3.6125"/>
<path transform="matrix(1.00006,0,0,-1.00006,2.0959855,163.35984)" stroke-width=".3985" stroke-linecap="butt" stroke-miterlimit="10" stroke-linejoin="miter" fill="none" stroke="#000000" d="M121.96269 0 124.08388 3.6125"/>
<path transform="matrix(1.00006,0,0,-1.00006,2.0959855,163.35984)" stroke-width=".3985" stroke-linecap="butt" stroke-miterlimit="10" stroke-linejoin="miter" fill="none" stroke="#000000" d="M135.5141 0 137.63529 3.6125"/>
<path transform="matrix(1.00006,0,0,-1.00006,2.0959855,163.35984)" stroke-width=".3985" stroke-linecap="butt" stroke-miterlimit="10" stroke-linejoin="miter" fill="none" stroke="#000000" d="M149.06552 0 151.18669 3.6125"/>
<path transform="matrix(1.00006,0,0,-1.00006,2.0959855,163.35984)" stroke-width=".3985" stroke-linecap="butt" stroke-miterlimit="10" stroke-linejoin="miter" fill="none" stroke="#000000" d="M162.61695 0 164.7381 3.6125"/>
<path transform="matrix(1.00006,0,0,-1.00006,2.0959855,163.35984)" stroke-width=".3985" stroke-linecap="butt" stroke-miterlimit="10" stroke-linejoin="miter" fill="none" stroke="#000000" d="M176.16835 0 178.2895 3.6125"/>
<path transform="matrix(1.00006,0,0,-1.00006,2.0959855,163.35984)" stroke-width=".3985" stroke-linecap="butt" stroke-miterlimit="10" stroke-linejoin="miter" fill="none" stroke="#000000" d="M189.71976 0 191.84093 3.6125"/>
<path transform="matrix(1.00006,0,0,-1.00006,2.0959855,163.35984)" stroke-width=".3985" stroke-linecap="butt" stroke-miterlimit="10" stroke-linejoin="miter" fill="none" stroke="#000000" d="M0 11.53954 2.3899 15.02821"/>
<path transform="matrix(1.00006,0,0,-1.00006,2.0959855,163.35984)" stroke-width=".3985" stroke-linecap="butt" stroke-miterlimit="10" stroke-linejoin="miter" fill="none" stroke="#000000" d="M13.5514 11.53954 15.9413 15.02821"/>
<path transform="matrix(1.00006,0,0,-1.00006,2.0959855,163.35984)" stroke-width=".3985" stroke-linecap="butt" stroke-miterlimit="10" stroke-linejoin="miter" fill="none" stroke="#000000" d="M27.10281 11.53954 29.4927 15.02821"/>
<path transform="matrix(1.00006,0,0,-1.00006,2.0959855,163.35984)" stroke-width=".3985" stroke-linecap="butt" stroke-miterlimit="10" stroke-linejoin="miter" fill="none" stroke="#000000" d="M40.65422 11.53954 43.04411 15.02821"/>
<path transform="matrix(1.00006,0,0,-1.00006,2.0959855,163.35984)" stroke-width=".3985" stroke-linecap="butt" stroke-miterlimit="10" stroke-linejoin="miter" fill="none" stroke="#000000" d="M54.20563 11.53954 56.59555 15.02821"/>
<path transform="matrix(1.00006,0,0,-1.00006,2.0959855,163.35984)" stroke-width=".3985" stroke-linecap="butt" stroke-miterlimit="10" stroke-linejoin="miter" fill="none" stroke="#000000" d="M67.75705 11.53954 70.14696 15.02821"/>
<path transform="matrix(1.00006,0,0,-1.00006,2.0959855,163.35984)" stroke-width=".3985" stroke-linecap="butt" stroke-miterlimit="10" stroke-linejoin="miter" fill="none" stroke="#000000" d="M81.30846 11.53954 83.69836 15.02821"/>
<path transform="matrix(1.00006,0,0,-1.00006,2.0959855,163.35984)" stroke-width=".3985" stroke-linecap="butt" stroke-miterlimit="10" stroke-linejoin="miter" fill="none" stroke="#000000" d="M94.85986 11.53954 97.24979 15.02821"/>
<path transform="matrix(1.00006,0,0,-1.00006,2.0959855,163.35984)" stroke-width=".3985" stroke-linecap="butt" stroke-miterlimit="10" stroke-linejoin="miter" fill="none" stroke="#000000" d="M108.41129 11.53954 110.8012 15.02821"/>
<path transform="matrix(1.00006,0,0,-1.00006,2.0959855,163.35984)" stroke-width=".3985" stroke-linecap="butt" stroke-miterlimit="10" stroke-linejoin="miter" fill="none" stroke="#000000" d="M121.96269 11.53954 124.3526 15.02821"/>
<path transform="matrix(1.00006,0,0,-1.00006,2.0959855,163.35984)" stroke-width=".3985" stroke-linecap="butt" stroke-miterlimit="10" stroke-linejoin="miter" fill="none" stroke="#000000" d="M135.5141 11.53954 137.90402 15.02821"/>
<path transform="matrix(1.00006,0,0,-1.00006,2.0959855,163.35984)" stroke-width=".3985" stroke-linecap="butt" stroke-miterlimit="10" stroke-linejoin="miter" fill="none" stroke="#000000" d="M149.06552 11.53954 151.45543 15.02821"/>
<path transform="matrix(1.00006,0,0,-1.00006,2.0959855,163.35984)" stroke-width=".3985" stroke-linecap="butt" stroke-miterlimit="10" stroke-linejoin="miter" fill="none" stroke="#000000" d="M162.61695 11.53954 165.00684 15.02821"/>
<path transform="matrix(1.00006,0,0,-1.00006,2.0959855,163.35984)" stroke-width=".3985" stroke-linecap="butt" stroke-miterlimit="10" stroke-linejoin="miter" fill="none" stroke="#000000" d="M176.16835 11.53954 178.55825 15.02821"/>
<path transform="matrix(1.00006,0,0,-1.00006,2.0959855,163.35984)" stroke-width=".3985" stroke-linecap="butt" stroke-miterlimit="10" stroke-linejoin="miter" fill="none" stroke="#000000" d="M189.71976 11.53954 192.10967 15.02821"/>
<path transform="matrix(1.00006,0,0,-1.00006,2.0959855,163.35984)" stroke-width=".3985" stroke-linecap="butt" stroke-miterlimit="10" stroke-linejoin="miter" fill="none" stroke="#000000" d="M0 23.07909 2.71996 26.38788"/>
<path transform="matrix(1.00006,0,0,-1.00006,2.0959855,163.35984)" stroke-width=".3985" stroke-linecap="butt" stroke-miterlimit="10" stroke-linejoin="miter" fill="none" stroke="#000000" d="M13.5514 23.07909 16.27136 26.38788"/>
<path transform="matrix(1.00006,0,0,-1.00006,2.0959855,163.35984)" stroke-width=".3985" stroke-linecap="butt" stroke-miterlimit="10" stroke-linejoin="miter" fill="none" stroke="#000000" d="M27.10281 23.07909 29.82278 26.38788"/>
<path transform="matrix(1.00006,0,0,-1.00006,2.0959855,163.35984)" stroke-width=".3985" stroke-linecap="butt" stroke-miterlimit="10" stroke-linejoin="miter" fill="none" stroke="#000000" d="M40.65422 23.07909 43.3742 26.38788"/>
<path transform="matrix(1.00006,0,0,-1.00006,2.0959855,163.35984)" stroke-width=".3985" stroke-linecap="butt" stroke-miterlimit="10" stroke-linejoin="miter" fill="none" stroke="#000000" d="M54.20563 23.07909 56.92561 26.38788"/>
<path transform="matrix(1.00006,0,0,-1.00006,2.0959855,163.35984)" stroke-width=".3985" stroke-linecap="butt" stroke-miterlimit="10" stroke-linejoin="miter" fill="none" stroke="#000000" d="M67.75705 23.07909 70.47704 26.38788"/>
<path transform="matrix(1.00006,0,0,-1.00006,2.0959855,163.35984)" stroke-width=".3985" stroke-linecap="butt" stroke-miterlimit="10" stroke-linejoin="miter" fill="none" stroke="#000000" d="M81.30846 23.07909 84.02844 26.38788"/>
<path transform="matrix(1.00006,0,0,-1.00006,2.0959855,163.35984)" stroke-width=".3985" stroke-linecap="butt" stroke-miterlimit="10" stroke-linejoin="miter" fill="none" stroke="#000000" d="M94.85986 23.07909 97.57985 26.38788"/>
<path transform="matrix(1.00006,0,0,-1.00006,2.0959855,163.35984)" stroke-width=".3985" stroke-linecap="butt" stroke-miterlimit="10" stroke-linejoin="miter" fill="none" stroke="#000000" d="M108.41129 23.07909 111.13126 26.38788"/>
<path transform="matrix(1.00006,0,0,-1.00006,2.0959855,163.35984)" stroke-width=".3985" stroke-linecap="butt" stroke-miterlimit="10" stroke-linejoin="miter" fill="none" stroke="#000000" d="M121.96269 23.07909 124.68266 26.38788"/>
<path transform="matrix(1.00006,0,0,-1.00006,2.0959855,163.35984)" stroke-width=".3985" stroke-linecap="butt" stroke-miterlimit="10" stroke-linejoin="miter" fill="none" stroke="#000000" d="M135.5141 23.07909 138.23409 26.38788"/>
<path transform="matrix(1.00006,0,0,-1.00006,2.0959855,163.35984)" stroke-width=".3985" stroke-linecap="butt" stroke-miterlimit="10" stroke-linejoin="miter" fill="none" stroke="#000000" d="M149.06552 23.07909 151.78549 26.38788"/>
<path transform="matrix(1.00006,0,0,-1.00006,2.0959855,163.35984)" stroke-width=".3985" stroke-linecap="butt" stroke-miterlimit="10" stroke-linejoin="miter" fill="none" stroke="#000000" d="M162.61695 23.07909 165.33692 26.38788"/>
<path transform="matrix(1.00006,0,0,-1.00006,2.0959855,163.35984)" stroke-width=".3985" stroke-linecap="butt" stroke-miterlimit="10" stroke-linejoin="miter" fill="none" stroke="#000000" d="M176.16835 23.07909 178.88832 26.38788"/>
<path transform="matrix(1.00006,0,0,-1.00006,2.0959855,163.35984)" stroke-width=".3985" stroke-linecap="butt" stroke-miterlimit="10" stroke-linejoin="miter" fill="none" stroke="#000000" d="M189.71976 23.07909 192.43975 26.38788"/>
<path transform="matrix(1.00006,0,0,-1.00006,2.0959855,163.35984)" stroke-width=".3985" stroke-linecap="butt" stroke-miterlimit="10" stroke-linejoin="miter" fill="none" stroke="#000000" d="M0 34.61864 3.12332 37.65828"/>
<path transform="matrix(1.00006,0,0,-1.00006,2.0959855,163.35984)" stroke-width=".3985" stroke-linecap="butt" stroke-miterlimit="10" stroke-linejoin="miter" fill="none" stroke="#000000" d="M13.5514 34.61864 16.67473 37.65828"/>
<path transform="matrix(1.00006,0,0,-1.00006,2.0959855,163.35984)" stroke-width=".3985" stroke-linecap="butt" stroke-miterlimit="10" stroke-linejoin="miter" fill="none" stroke="#000000" d="M27.10281 34.61864 30.22614 37.65828"/>
<path transform="matrix(1.00006,0,0,-1.00006,2.0959855,163.35984)" stroke-width=".3985" stroke-linecap="butt" stroke-miterlimit="10" stroke-linejoin="miter" fill="none" stroke="#000000" d="M40.65422 34.61864 43.77754 37.65828"/>
<path transform="matrix(1.00006,0,0,-1.00006,2.0959855,163.35984)" stroke-width=".3985" stroke-linecap="butt" stroke-miterlimit="10" stroke-linejoin="miter" fill="none" stroke="#000000" d="M54.20563 34.61864 57.32895 37.65828"/>
<path transform="matrix(1.00006,0,0,-1.00006,2.0959855,163.35984)" stroke-width=".3985" stroke-linecap="butt" stroke-miterlimit="10" stroke-linejoin="miter" fill="none" stroke="#000000" d="M67.75705 34.61864 70.88037 37.65828"/>
<path transform="matrix(1.00006,0,0,-1.00006,2.0959855,163.35984)" stroke-width=".3985" stroke-linecap="butt" stroke-miterlimit="10" stroke-linejoin="miter" fill="none" stroke="#000000" d="M81.30846 34.61864 84.43178 37.65828"/>
<path transform="matrix(1.00006,0,0,-1.00006,2.0959855,163.35984)" stroke-width=".3985" stroke-linecap="butt" stroke-miterlimit="10" stroke-linejoin="miter" fill="none" stroke="#000000" d="M94.85986 34.61864 97.9832 37.65828"/>
<path transform="matrix(1.00006,0,0,-1.00006,2.0959855,163.35984)" stroke-width=".3985" stroke-linecap="butt" stroke-miterlimit="10" stroke-linejoin="miter" fill="none" stroke="#000000" d="M108.41129 34.61864 111.5346 37.65828"/>
<path transform="matrix(1.00006,0,0,-1.00006,2.0959855,163.35984)" stroke-width=".3985" stroke-linecap="butt" stroke-miterlimit="10" stroke-linejoin="miter" fill="none" stroke="#000000" d="M121.96269 34.61864 125.08601 37.65828"/>
<path transform="matrix(1.00006,0,0,-1.00006,2.0959855,163.35984)" stroke-width=".3985" stroke-linecap="butt" stroke-miterlimit="10" stroke-linejoin="miter" fill="none" stroke="#000000" d="M135.5141 34.61864 138.63744 37.65828"/>
<path transform="matrix(1.00006,0,0,-1.00006,2.0959855,163.35984)" stroke-width=".3985" stroke-linecap="butt" stroke-miterlimit="10" stroke-linejoin="miter" fill="none" stroke="#000000" d="M149.06552 34.61864 152.18885 37.65828"/>
<path transform="matrix(1.00006,0,0,-1.00006,2.0959855,163.35984)" stroke-width=".3985" stroke-linecap="butt" stroke-miterlimit="10" stroke-linejoin="miter" fill="none" stroke="#000000" d="M162.61695 34.61864 165.74027 37.65828"/>
<path transform="matrix(1.00006,0,0,-1.00006,2.0959855,163.35984)" stroke-width=".3985" stroke-linecap="butt" stroke-miterlimit="10" stroke-linejoin="miter" fill="none" stroke="#000000" d="M176.16835 34.61864 179.29167 37.65828"/>
<path transform="matrix(1.00006,0,0,-1.00006,2.0959855,163.35984)" stroke-width=".3985" stroke-linecap="butt" stroke-miterlimit="10" stroke-linejoin="miter" fill="none" stroke="#000000" d="M189.71976 34.61864 192.84308 37.65828"/>
<path transform="matrix(1.00006,0,0,-1.00006,2.0959855,163.35984)" stroke-width=".3985" stroke-linecap="butt" stroke-miterlimit="10" stroke-linejoin="miter" fill="none" stroke="#000000" d="M0 46.15819 3.60117 48.78668"/>
<path transform="matrix(1.00006,0,0,-1.00006,2.0959855,163.35984)" stroke-width=".3985" stroke-linecap="butt" stroke-miterlimit="10" stroke-linejoin="miter" fill="none" stroke="#000000" d="M13.5514 46.15819 17.15259 48.78668"/>
<path transform="matrix(1.00006,0,0,-1.00006,2.0959855,163.35984)" stroke-width=".3985" stroke-linecap="butt" stroke-miterlimit="10" stroke-linejoin="miter" fill="none" stroke="#000000" d="M27.10281 46.15819 30.704 48.78668"/>
<path transform="matrix(1.00006,0,0,-1.00006,2.0959855,163.35984)" stroke-width=".3985" stroke-linecap="butt" stroke-miterlimit="10" stroke-linejoin="miter" fill="none" stroke="#000000" d="M40.65422 46.15819 44.2554 48.78668"/>
<path transform="matrix(1.00006,0,0,-1.00006,2.0959855,163.35984)" stroke-width=".3985" stroke-linecap="butt" stroke-miterlimit="10" stroke-linejoin="miter" fill="none" stroke="#000000" d="M54.20563 46.15819 57.80682 48.78668"/>
<path transform="matrix(1.00006,0,0,-1.00006,2.0959855,163.35984)" stroke-width=".3985" stroke-linecap="butt" stroke-miterlimit="10" stroke-linejoin="miter" fill="none" stroke="#000000" d="M67.75705 46.15819 71.35823 48.78668"/>
<path transform="matrix(1.00006,0,0,-1.00006,2.0959855,163.35984)" stroke-width=".3985" stroke-linecap="butt" stroke-miterlimit="10" stroke-linejoin="miter" fill="none" stroke="#000000" d="M81.30846 46.15819 84.90964 48.78668"/>
<path transform="matrix(1.00006,0,0,-1.00006,2.0959855,163.35984)" stroke-width=".3985" stroke-linecap="butt" stroke-miterlimit="10" stroke-linejoin="miter" fill="none" stroke="#000000" d="M94.85986 46.15819 98.46104 48.78668"/>
<path transform="matrix(1.00006,0,0,-1.00006,2.0959855,163.35984)" stroke-width=".3985" stroke-linecap="butt" stroke-miterlimit="10" stroke-linejoin="miter" fill="none" stroke="#000000" d="M108.41129 46.15819 112.01247 48.78668"/>
<path transform="matrix(1.00006,0,0,-1.00006,2.0959855,163.35984)" stroke-width=".3985" stroke-linecap="butt" stroke-miterlimit="10" stroke-linejoin="miter" fill="none" stroke="#000000" d="M121.96269 46.15819 125.56387 48.78668"/>
<path transform="matrix(1.00006,0,0,-1.00006,2.0959855,163.35984)" stroke-width=".3985" stroke-linecap="butt" stroke-miterlimit="10" stroke-linejoin="miter" fill="none" stroke="#000000" d="M135.5141 46.15819 139.1153 48.78668"/>
<path transform="matrix(1.00006,0,0,-1.00006,2.0959855,163.35984)" stroke-width=".3985" stroke-linecap="butt" stroke-miterlimit="10" stroke-linejoin="miter" fill="none" stroke="#000000" d="M149.06552 46.15819 152.6667 48.78668"/>
<path transform="matrix(1.00006,0,0,-1.00006,2.0959855,163.35984)" stroke-width=".3985" stroke-linecap="butt" stroke-miterlimit="10" stroke-linejoin="miter" fill="none" stroke="#000000" d="M162.61695 46.15819 166.21811 48.78668"/>
<path transform="matrix(1.00006,0,0,-1.00006,2.0959855,163.35984)" stroke-width=".3985" stroke-linecap="butt" stroke-miterlimit="10" stroke-linejoin="miter" fill="none" stroke="#000000" d="M176.16835 46.15819 179.76953 48.78668"/>
<path transform="matrix(1.00006,0,0,-1.00006,2.0959855,163.35984)" stroke-width=".3985" stroke-linecap="butt" stroke-miterlimit="10" stroke-linejoin="miter" fill="none" stroke="#000000" d="M189.71976 46.15819 193.32094 48.78668"/>
<path transform="matrix(1.00006,0,0,-1.00006,2.0959855,163.35984)" stroke-width=".3985" stroke-linecap="butt" stroke-miterlimit="10" stroke-linejoin="miter" fill="none" stroke="#000000" d="M0 57.69774 4.11815 59.70161"/>
<path transform="matrix(1.00006,0,0,-1.00006,2.0959855,163.35984)" stroke-width=".3985" stroke-linecap="butt" stroke-miterlimit="10" stroke-linejoin="miter" fill="none" stroke="#000000" d="M13.5514 57.69774 17.66956 59.70161"/>
<path transform="matrix(1.00006,0,0,-1.00006,2.0959855,163.35984)" stroke-width=".3985" stroke-linecap="butt" stroke-miterlimit="10" stroke-linejoin="miter" fill="none" stroke="#000000" d="M27.10281 57.69774 31.22098 59.70161"/>
<path transform="matrix(1.00006,0,0,-1.00006,2.0959855,163.35984)" stroke-width=".3985" stroke-linecap="butt" stroke-miterlimit="10" stroke-linejoin="miter" fill="none" stroke="#000000" d="M40.65422 57.69774 44.77238 59.70161"/>
<path transform="matrix(1.00006,0,0,-1.00006,2.0959855,163.35984)" stroke-width=".3985" stroke-linecap="butt" stroke-miterlimit="10" stroke-linejoin="miter" fill="none" stroke="#000000" d="M54.20563 57.69774 58.3238 59.70161"/>
<path transform="matrix(1.00006,0,0,-1.00006,2.0959855,163.35984)" stroke-width=".3985" stroke-linecap="butt" stroke-miterlimit="10" stroke-linejoin="miter" fill="none" stroke="#000000" d="M67.75705 57.69774 71.87521 59.70161"/>
<path transform="matrix(1.00006,0,0,-1.00006,2.0959855,163.35984)" stroke-width=".3985" stroke-linecap="butt" stroke-miterlimit="10" stroke-linejoin="miter" fill="none" stroke="#000000" d="M81.30846 57.69774 85.42664 59.70161"/>
<path transform="matrix(1.00006,0,0,-1.00006,2.0959855,163.35984)" stroke-width=".3985" stroke-linecap="butt" stroke-miterlimit="10" stroke-linejoin="miter" fill="none" stroke="#000000" d="M94.85986 57.69774 98.97804 59.70161"/>
<path transform="matrix(1.00006,0,0,-1.00006,2.0959855,163.35984)" stroke-width=".3985" stroke-linecap="butt" stroke-miterlimit="10" stroke-linejoin="miter" fill="none" stroke="#000000" d="M108.41129 57.69774 112.52945 59.70161"/>
<path transform="matrix(1.00006,0,0,-1.00006,2.0959855,163.35984)" stroke-width=".3985" stroke-linecap="butt" stroke-miterlimit="10" stroke-linejoin="miter" fill="none" stroke="#000000" d="M121.96269 57.69774 126.08087 59.70161"/>
<path transform="matrix(1.00006,0,0,-1.00006,2.0959855,163.35984)" stroke-width=".3985" stroke-linecap="butt" stroke-miterlimit="10" stroke-linejoin="miter" fill="none" stroke="#000000" d="M135.5141 57.69774 139.63228 59.70161"/>
<path transform="matrix(1.00006,0,0,-1.00006,2.0959855,163.35984)" stroke-width=".3985" stroke-linecap="butt" stroke-miterlimit="10" stroke-linejoin="miter" fill="none" stroke="#000000" d="M149.06552 57.69774 153.18369 59.70161"/>
<path transform="matrix(1.00006,0,0,-1.00006,2.0959855,163.35984)" stroke-width=".3985" stroke-linecap="butt" stroke-miterlimit="10" stroke-linejoin="miter" fill="none" stroke="#000000" d="M162.61695 57.69774 166.73509 59.70161"/>
<path transform="matrix(1.00006,0,0,-1.00006,2.0959855,163.35984)" stroke-width=".3985" stroke-linecap="butt" stroke-miterlimit="10" stroke-linejoin="miter" fill="none" stroke="#000000" d="M176.16835 57.69774 180.28652 59.70161"/>
<path transform="matrix(1.00006,0,0,-1.00006,2.0959855,163.35984)" stroke-width=".3985" stroke-linecap="butt" stroke-miterlimit="10" stroke-linejoin="miter" fill="none" stroke="#000000" d="M189.71976 57.69774 193.83792 59.70161"/>
<path transform="matrix(1.00006,0,0,-1.00006,2.0959855,163.35984)" stroke-width=".3985" stroke-linecap="butt" stroke-miterlimit="10" stroke-linejoin="miter" fill="none" stroke="#000000" d="M0 69.23727 4.56049 70.34688"/>
<path transform="matrix(1.00006,0,0,-1.00006,2.0959855,163.35984)" stroke-width=".3985" stroke-linecap="butt" stroke-miterlimit="10" stroke-linejoin="miter" fill="none" stroke="#000000" d="M13.5514 69.23727 18.11191 70.34688"/>
<path transform="matrix(1.00006,0,0,-1.00006,2.0959855,163.35984)" stroke-width=".3985" stroke-linecap="butt" stroke-miterlimit="10" stroke-linejoin="miter" fill="none" stroke="#000000" d="M27.10281 69.23727 31.66331 70.34688"/>
<path transform="matrix(1.00006,0,0,-1.00006,2.0959855,163.35984)" stroke-width=".3985" stroke-linecap="butt" stroke-miterlimit="10" stroke-linejoin="miter" fill="none" stroke="#000000" d="M40.65422 69.23727 45.21472 70.34688"/>
<path transform="matrix(1.00006,0,0,-1.00006,2.0959855,163.35984)" stroke-width=".3985" stroke-linecap="butt" stroke-miterlimit="10" stroke-linejoin="miter" fill="none" stroke="#000000" d="M54.20563 69.23727 58.76614 70.34688"/>
<path transform="matrix(1.00006,0,0,-1.00006,2.0959855,163.35984)" stroke-width=".3985" stroke-linecap="butt" stroke-miterlimit="10" stroke-linejoin="miter" fill="none" stroke="#000000" d="M67.75705 69.23727 72.31755 70.34688"/>
<path transform="matrix(1.00006,0,0,-1.00006,2.0959855,163.35984)" stroke-width=".3985" stroke-linecap="butt" stroke-miterlimit="10" stroke-linejoin="miter" fill="none" stroke="#000000" d="M81.30846 69.23727 85.86896 70.34688"/>
<path transform="matrix(1.00006,0,0,-1.00006,2.0959855,163.35984)" stroke-width=".3985" stroke-linecap="butt" stroke-miterlimit="10" stroke-linejoin="miter" fill="none" stroke="#000000" d="M94.85986 69.23727 99.42036 70.34688"/>
<path transform="matrix(1.00006,0,0,-1.00006,2.0959855,163.35984)" stroke-width=".3985" stroke-linecap="butt" stroke-miterlimit="10" stroke-linejoin="miter" fill="none" stroke="#000000" d="M108.41129 69.23727 112.97179 70.34688"/>
<path transform="matrix(1.00006,0,0,-1.00006,2.0959855,163.35984)" stroke-width=".3985" stroke-linecap="butt" stroke-miterlimit="10" stroke-linejoin="miter" fill="none" stroke="#000000" d="M121.96269 69.23727 126.5232 70.34688"/>
<path transform="matrix(1.00006,0,0,-1.00006,2.0959855,163.35984)" stroke-width=".3985" stroke-linecap="butt" stroke-miterlimit="10" stroke-linejoin="miter" fill="none" stroke="#000000" d="M135.5141 69.23727 140.07462 70.34688"/>
<path transform="matrix(1.00006,0,0,-1.00006,2.0959855,163.35984)" stroke-width=".3985" stroke-linecap="butt" stroke-miterlimit="10" stroke-linejoin="miter" fill="none" stroke="#000000" d="M149.06552 69.23727 153.62602 70.34688"/>
<path transform="matrix(1.00006,0,0,-1.00006,2.0959855,163.35984)" stroke-width=".3985" stroke-linecap="butt" stroke-miterlimit="10" stroke-linejoin="miter" fill="none" stroke="#000000" d="M162.61695 69.23727 167.17743 70.34688"/>
<path transform="matrix(1.00006,0,0,-1.00006,2.0959855,163.35984)" stroke-width=".3985" stroke-linecap="butt" stroke-miterlimit="10" stroke-linejoin="miter" fill="none" stroke="#000000" d="M176.16835 69.23727 180.72885 70.34688"/>
<path transform="matrix(1.00006,0,0,-1.00006,2.0959855,163.35984)" stroke-width=".3985" stroke-linecap="butt" stroke-miterlimit="10" stroke-linejoin="miter" fill="none" stroke="#000000" d="M189.71976 69.23727 194.28026 70.34688"/>
<path transform="matrix(1.00006,0,0,-1.00006,2.0959855,163.35984)" stroke-width=".3985" stroke-linecap="butt" stroke-miterlimit="10" stroke-linejoin="miter" fill="none" stroke="#000000" d="M0 80.77682 4.74301 80.77686"/>
<path transform="matrix(1.00006,0,0,-1.00006,2.0959855,163.35984)" stroke-width=".3985" stroke-linecap="butt" stroke-miterlimit="10" stroke-linejoin="miter" fill="none" stroke="#000000" d="M13.5514 80.77682 18.29442 80.77686"/>
<path transform="matrix(1.00006,0,0,-1.00006,2.0959855,163.35984)" stroke-width=".3985" stroke-linecap="butt" stroke-miterlimit="10" stroke-linejoin="miter" fill="none" stroke="#000000" d="M27.10281 80.77682 31.84583 80.77686"/>
<path transform="matrix(1.00006,0,0,-1.00006,2.0959855,163.35984)" stroke-width=".3985" stroke-linecap="butt" stroke-miterlimit="10" stroke-linejoin="miter" fill="none" stroke="#000000" d="M40.65422 80.77682 45.39723 80.77686"/>
<path transform="matrix(1.00006,0,0,-1.00006,2.0959855,163.35984)" stroke-width=".3985" stroke-linecap="butt" stroke-miterlimit="10" stroke-linejoin="miter" fill="none" stroke="#000000" d="M54.20563 80.77682 58.94864 80.77686"/>
<path transform="matrix(1.00006,0,0,-1.00006,2.0959855,163.35984)" stroke-width=".3985" stroke-linecap="butt" stroke-miterlimit="10" stroke-linejoin="miter" fill="none" stroke="#000000" d="M67.75705 80.77682 72.50006 80.77686"/>
<path transform="matrix(1.00006,0,0,-1.00006,2.0959855,163.35984)" stroke-width=".3985" stroke-linecap="butt" stroke-miterlimit="10" stroke-linejoin="miter" fill="none" stroke="#000000" d="M81.30846 80.77682 86.05147 80.77686"/>
<path transform="matrix(1.00006,0,0,-1.00006,2.0959855,163.35984)" stroke-width=".3985" stroke-linecap="butt" stroke-miterlimit="10" stroke-linejoin="miter" fill="none" stroke="#000000" d="M94.85986 80.77682 99.60289 80.77686"/>
<path transform="matrix(1.00006,0,0,-1.00006,2.0959855,163.35984)" stroke-width=".3985" stroke-linecap="butt" stroke-miterlimit="10" stroke-linejoin="miter" fill="none" stroke="#000000" d="M108.41129 80.77682 113.15431 80.77686"/>
<path transform="matrix(1.00006,0,0,-1.00006,2.0959855,163.35984)" stroke-width=".3985" stroke-linecap="butt" stroke-miterlimit="10" stroke-linejoin="miter" fill="none" stroke="#000000" d="M121.96269 80.77682 126.70572 80.77686"/>
<path transform="matrix(1.00006,0,0,-1.00006,2.0959855,163.35984)" stroke-width=".3985" stroke-linecap="butt" stroke-miterlimit="10" stroke-linejoin="miter" fill="none" stroke="#000000" d="M135.5141 80.77682 140.25713 80.77686"/>
<path transform="matrix(1.00006,0,0,-1.00006,2.0959855,163.35984)" stroke-width=".3985" stroke-linecap="butt" stroke-miterlimit="10" stroke-linejoin="miter" fill="none" stroke="#000000" d="M149.06552 80.77682 153.80854 80.77686"/>
<path transform="matrix(1.00006,0,0,-1.00006,2.0959855,163.35984)" stroke-width=".3985" stroke-linecap="butt" stroke-miterlimit="10" stroke-linejoin="miter" fill="none" stroke="#000000" d="M162.61695 80.77682 167.35996 80.77686"/>
<path transform="matrix(1.00006,0,0,-1.00006,2.0959855,163.35984)" stroke-width=".3985" stroke-linecap="butt" stroke-miterlimit="10" stroke-linejoin="miter" fill="none" stroke="#000000" d="M176.16835 80.77682 180.91136 80.77686"/>
<path transform="matrix(1.00006,0,0,-1.00006,2.0959855,163.35984)" stroke-width=".3985" stroke-linecap="butt" stroke-miterlimit="10" stroke-linejoin="miter" fill="none" stroke="#000000" d="M189.71976 80.77682 194.46277 80.77686"/>
<path transform="matrix(1.00006,0,0,-1.00006,2.0959855,163.35984)" stroke-width=".3985" stroke-linecap="butt" stroke-miterlimit="10" stroke-linejoin="miter" fill="none" stroke="#000000" d="M0 92.31638 4.56055 91.20683"/>
<path transform="matrix(1.00006,0,0,-1.00006,2.0959855,163.35984)" stroke-width=".3985" stroke-linecap="butt" stroke-miterlimit="10" stroke-linejoin="miter" fill="none" stroke="#000000" d="M13.5514 92.31638 18.11195 91.20683"/>
<path transform="matrix(1.00006,0,0,-1.00006,2.0959855,163.35984)" stroke-width=".3985" stroke-linecap="butt" stroke-miterlimit="10" stroke-linejoin="miter" fill="none" stroke="#000000" d="M27.10281 92.31638 31.66336 91.20683"/>
<path transform="matrix(1.00006,0,0,-1.00006,2.0959855,163.35984)" stroke-width=".3985" stroke-linecap="butt" stroke-miterlimit="10" stroke-linejoin="miter" fill="none" stroke="#000000" d="M40.65422 92.31638 45.21477 91.20683"/>
<path transform="matrix(1.00006,0,0,-1.00006,2.0959855,163.35984)" stroke-width=".3985" stroke-linecap="butt" stroke-miterlimit="10" stroke-linejoin="miter" fill="none" stroke="#000000" d="M54.20563 92.31638 58.76619 91.20683"/>
<path transform="matrix(1.00006,0,0,-1.00006,2.0959855,163.35984)" stroke-width=".3985" stroke-linecap="butt" stroke-miterlimit="10" stroke-linejoin="miter" fill="none" stroke="#000000" d="M67.75705 92.31638 72.3176 91.20683"/>
<path transform="matrix(1.00006,0,0,-1.00006,2.0959855,163.35984)" stroke-width=".3985" stroke-linecap="butt" stroke-miterlimit="10" stroke-linejoin="miter" fill="none" stroke="#000000" d="M81.30846 92.31638 85.86902 91.20683"/>
<path transform="matrix(1.00006,0,0,-1.00006,2.0959855,163.35984)" stroke-width=".3985" stroke-linecap="butt" stroke-miterlimit="10" stroke-linejoin="miter" fill="none" stroke="#000000" d="M94.85986 92.31638 99.42043 91.20683"/>
<path transform="matrix(1.00006,0,0,-1.00006,2.0959855,163.35984)" stroke-width=".3985" stroke-linecap="butt" stroke-miterlimit="10" stroke-linejoin="miter" fill="none" stroke="#000000" d="M108.41129 92.31638 112.97183 91.20683"/>
<path transform="matrix(1.00006,0,0,-1.00006,2.0959855,163.35984)" stroke-width=".3985" stroke-linecap="butt" stroke-miterlimit="10" stroke-linejoin="miter" fill="none" stroke="#000000" d="M121.96269 92.31638 126.52324 91.20683"/>
<path transform="matrix(1.00006,0,0,-1.00006,2.0959855,163.35984)" stroke-width=".3985" stroke-linecap="butt" stroke-miterlimit="10" stroke-linejoin="miter" fill="none" stroke="#000000" d="M135.5141 92.31638 140.07466 91.20683"/>
<path transform="matrix(1.00006,0,0,-1.00006,2.0959855,163.35984)" stroke-width=".3985" stroke-linecap="butt" stroke-miterlimit="10" stroke-linejoin="miter" fill="none" stroke="#000000" d="M149.06552 92.31638 153.62609 91.20683"/>
<path transform="matrix(1.00006,0,0,-1.00006,2.0959855,163.35984)" stroke-width=".3985" stroke-linecap="butt" stroke-miterlimit="10" stroke-linejoin="miter" fill="none" stroke="#000000" d="M162.61695 92.31638 167.17749 91.20683"/>
<path transform="matrix(1.00006,0,0,-1.00006,2.0959855,163.35984)" stroke-width=".3985" stroke-linecap="butt" stroke-miterlimit="10" stroke-linejoin="miter" fill="none" stroke="#000000" d="M176.16835 92.31638 180.7289 91.20683"/>
<path transform="matrix(1.00006,0,0,-1.00006,2.0959855,163.35984)" stroke-width=".3985" stroke-linecap="butt" stroke-miterlimit="10" stroke-linejoin="miter" fill="none" stroke="#000000" d="M189.71976 92.31638 194.2803 91.20683"/>
<path transform="matrix(1.00006,0,0,-1.00006,2.0959855,163.35984)" stroke-width=".3985" stroke-linecap="butt" stroke-miterlimit="10" stroke-linejoin="miter" fill="none" stroke="#000000" d="M0 103.85593 4.11815 101.8521"/>
<path transform="matrix(1.00006,0,0,-1.00006,2.0959855,163.35984)" stroke-width=".3985" stroke-linecap="butt" stroke-miterlimit="10" stroke-linejoin="miter" fill="none" stroke="#000000" d="M13.5514 103.85593 17.66956 101.8521"/>
<path transform="matrix(1.00006,0,0,-1.00006,2.0959855,163.35984)" stroke-width=".3985" stroke-linecap="butt" stroke-miterlimit="10" stroke-linejoin="miter" fill="none" stroke="#000000" d="M27.10281 103.85593 31.22098 101.8521"/>
<path transform="matrix(1.00006,0,0,-1.00006,2.0959855,163.35984)" stroke-width=".3985" stroke-linecap="butt" stroke-miterlimit="10" stroke-linejoin="miter" fill="none" stroke="#000000" d="M40.65422 103.85593 44.77238 101.8521"/>
<path transform="matrix(1.00006,0,0,-1.00006,2.0959855,163.35984)" stroke-width=".3985" stroke-linecap="butt" stroke-miterlimit="10" stroke-linejoin="miter" fill="none" stroke="#000000" d="M54.20563 103.85593 58.3238 101.8521"/>
<path transform="matrix(1.00006,0,0,-1.00006,2.0959855,163.35984)" stroke-width=".3985" stroke-linecap="butt" stroke-miterlimit="10" stroke-linejoin="miter" fill="none" stroke="#000000" d="M67.75705 103.85593 71.87521 101.8521"/>
<path transform="matrix(1.00006,0,0,-1.00006,2.0959855,163.35984)" stroke-width=".3985" stroke-linecap="butt" stroke-miterlimit="10" stroke-linejoin="miter" fill="none" stroke="#000000" d="M81.30846 103.85593 85.42664 101.8521"/>
<path transform="matrix(1.00006,0,0,-1.00006,2.0959855,163.35984)" stroke-width=".3985" stroke-linecap="butt" stroke-miterlimit="10" stroke-linejoin="miter" fill="none" stroke="#000000" d="M94.85986 103.85593 98.97804 101.8521"/>
<path transform="matrix(1.00006,0,0,-1.00006,2.0959855,163.35984)" stroke-width=".3985" stroke-linecap="butt" stroke-miterlimit="10" stroke-linejoin="miter" fill="none" stroke="#000000" d="M108.41129 103.85593 112.52945 101.8521"/>
<path transform="matrix(1.00006,0,0,-1.00006,2.0959855,163.35984)" stroke-width=".3985" stroke-linecap="butt" stroke-miterlimit="10" stroke-linejoin="miter" fill="none" stroke="#000000" d="M121.96269 103.85593 126.08087 101.8521"/>
<path transform="matrix(1.00006,0,0,-1.00006,2.0959855,163.35984)" stroke-width=".3985" stroke-linecap="butt" stroke-miterlimit="10" stroke-linejoin="miter" fill="none" stroke="#000000" d="M135.5141 103.85593 139.63228 101.8521"/>
<path transform="matrix(1.00006,0,0,-1.00006,2.0959855,163.35984)" stroke-width=".3985" stroke-linecap="butt" stroke-miterlimit="10" stroke-linejoin="miter" fill="none" stroke="#000000" d="M149.06552 103.85593 153.18369 101.8521"/>
<path transform="matrix(1.00006,0,0,-1.00006,2.0959855,163.35984)" stroke-width=".3985" stroke-linecap="butt" stroke-miterlimit="10" stroke-linejoin="miter" fill="none" stroke="#000000" d="M162.61695 103.85593 166.73509 101.8521"/>
<path transform="matrix(1.00006,0,0,-1.00006,2.0959855,163.35984)" stroke-width=".3985" stroke-linecap="butt" stroke-miterlimit="10" stroke-linejoin="miter" fill="none" stroke="#000000" d="M176.16835 103.85593 180.28652 101.8521"/>
<path transform="matrix(1.00006,0,0,-1.00006,2.0959855,163.35984)" stroke-width=".3985" stroke-linecap="butt" stroke-miterlimit="10" stroke-linejoin="miter" fill="none" stroke="#000000" d="M189.71976 103.85593 193.83792 101.8521"/>
<path transform="matrix(1.00006,0,0,-1.00006,2.0959855,163.35984)" stroke-width=".3985" stroke-linecap="butt" stroke-miterlimit="10" stroke-linejoin="miter" fill="none" stroke="#000000" d="M0 115.39548 3.60127 112.76701"/>
<path transform="matrix(1.00006,0,0,-1.00006,2.0959855,163.35984)" stroke-width=".3985" stroke-linecap="butt" stroke-miterlimit="10" stroke-linejoin="miter" fill="none" stroke="#000000" d="M13.5514 115.39548 17.15268 112.76701"/>
<path transform="matrix(1.00006,0,0,-1.00006,2.0959855,163.35984)" stroke-width=".3985" stroke-linecap="butt" stroke-miterlimit="10" stroke-linejoin="miter" fill="none" stroke="#000000" d="M27.10281 115.39548 30.70409 112.76701"/>
<path transform="matrix(1.00006,0,0,-1.00006,2.0959855,163.35984)" stroke-width=".3985" stroke-linecap="butt" stroke-miterlimit="10" stroke-linejoin="miter" fill="none" stroke="#000000" d="M40.65422 115.39548 44.2555 112.76701"/>
<path transform="matrix(1.00006,0,0,-1.00006,2.0959855,163.35984)" stroke-width=".3985" stroke-linecap="butt" stroke-miterlimit="10" stroke-linejoin="miter" fill="none" stroke="#000000" d="M54.20563 115.39548 57.80692 112.76701"/>
<path transform="matrix(1.00006,0,0,-1.00006,2.0959855,163.35984)" stroke-width=".3985" stroke-linecap="butt" stroke-miterlimit="10" stroke-linejoin="miter" fill="none" stroke="#000000" d="M67.75705 115.39548 71.35832 112.76701"/>
<path transform="matrix(1.00006,0,0,-1.00006,2.0959855,163.35984)" stroke-width=".3985" stroke-linecap="butt" stroke-miterlimit="10" stroke-linejoin="miter" fill="none" stroke="#000000" d="M81.30846 115.39548 84.90973 112.76701"/>
<path transform="matrix(1.00006,0,0,-1.00006,2.0959855,163.35984)" stroke-width=".3985" stroke-linecap="butt" stroke-miterlimit="10" stroke-linejoin="miter" fill="none" stroke="#000000" d="M94.85986 115.39548 98.46115 112.76701"/>
<path transform="matrix(1.00006,0,0,-1.00006,2.0959855,163.35984)" stroke-width=".3985" stroke-linecap="butt" stroke-miterlimit="10" stroke-linejoin="miter" fill="none" stroke="#000000" d="M108.41129 115.39548 112.01256 112.76701"/>
<path transform="matrix(1.00006,0,0,-1.00006,2.0959855,163.35984)" stroke-width=".3985" stroke-linecap="butt" stroke-miterlimit="10" stroke-linejoin="miter" fill="none" stroke="#000000" d="M121.96269 115.39548 125.56396 112.76701"/>
<path transform="matrix(1.00006,0,0,-1.00006,2.0959855,163.35984)" stroke-width=".3985" stroke-linecap="butt" stroke-miterlimit="10" stroke-linejoin="miter" fill="none" stroke="#000000" d="M135.5141 115.39548 139.11537 112.76701"/>
<path transform="matrix(1.00006,0,0,-1.00006,2.0959855,163.35984)" stroke-width=".3985" stroke-linecap="butt" stroke-miterlimit="10" stroke-linejoin="miter" fill="none" stroke="#000000" d="M149.06552 115.39548 152.6668 112.76701"/>
<path transform="matrix(1.00006,0,0,-1.00006,2.0959855,163.35984)" stroke-width=".3985" stroke-linecap="butt" stroke-miterlimit="10" stroke-linejoin="miter" fill="none" stroke="#000000" d="M162.61695 115.39548 166.21822 112.76701"/>
<path transform="matrix(1.00006,0,0,-1.00006,2.0959855,163.35984)" stroke-width=".3985" stroke-linecap="butt" stroke-miterlimit="10" stroke-linejoin="miter" fill="none" stroke="#000000" d="M176.16835 115.39548 179.76963 112.76701"/>
<path transform="matrix(1.00006,0,0,-1.00006,2.0959855,163.35984)" stroke-width=".3985" stroke-linecap="butt" stroke-miterlimit="10" stroke-linejoin="miter" fill="none" stroke="#000000" d="M189.71976 115.39548 193.32103 112.76701"/>
<path transform="matrix(1.00006,0,0,-1.00006,2.0959855,163.35984)" stroke-width=".3985" stroke-linecap="butt" stroke-miterlimit="10" stroke-linejoin="miter" fill="none" stroke="#000000" d="M0 126.93503 3.12335 123.89546"/>
<path transform="matrix(1.00006,0,0,-1.00006,2.0959855,163.35984)" stroke-width=".3985" stroke-linecap="butt" stroke-miterlimit="10" stroke-linejoin="miter" fill="none" stroke="#000000" d="M13.5514 126.93503 16.67477 123.89546"/>
<path transform="matrix(1.00006,0,0,-1.00006,2.0959855,163.35984)" stroke-width=".3985" stroke-linecap="butt" stroke-miterlimit="10" stroke-linejoin="miter" fill="none" stroke="#000000" d="M27.10281 126.93503 30.22618 123.89546"/>
<path transform="matrix(1.00006,0,0,-1.00006,2.0959855,163.35984)" stroke-width=".3985" stroke-linecap="butt" stroke-miterlimit="10" stroke-linejoin="miter" fill="none" stroke="#000000" d="M40.65422 126.93503 43.77759 123.89546"/>
<path transform="matrix(1.00006,0,0,-1.00006,2.0959855,163.35984)" stroke-width=".3985" stroke-linecap="butt" stroke-miterlimit="10" stroke-linejoin="miter" fill="none" stroke="#000000" d="M54.20563 126.93503 57.32901 123.89546"/>
<path transform="matrix(1.00006,0,0,-1.00006,2.0959855,163.35984)" stroke-width=".3985" stroke-linecap="butt" stroke-miterlimit="10" stroke-linejoin="miter" fill="none" stroke="#000000" d="M67.75705 126.93503 70.88042 123.89546"/>
<path transform="matrix(1.00006,0,0,-1.00006,2.0959855,163.35984)" stroke-width=".3985" stroke-linecap="butt" stroke-miterlimit="10" stroke-linejoin="miter" fill="none" stroke="#000000" d="M81.30846 126.93503 84.43182 123.89546"/>
<path transform="matrix(1.00006,0,0,-1.00006,2.0959855,163.35984)" stroke-width=".3985" stroke-linecap="butt" stroke-miterlimit="10" stroke-linejoin="miter" fill="none" stroke="#000000" d="M94.85986 126.93503 97.98323 123.89546"/>
<path transform="matrix(1.00006,0,0,-1.00006,2.0959855,163.35984)" stroke-width=".3985" stroke-linecap="butt" stroke-miterlimit="10" stroke-linejoin="miter" fill="none" stroke="#000000" d="M108.41129 126.93503 111.53465 123.89546"/>
<path transform="matrix(1.00006,0,0,-1.00006,2.0959855,163.35984)" stroke-width=".3985" stroke-linecap="butt" stroke-miterlimit="10" stroke-linejoin="miter" fill="none" stroke="#000000" d="M121.96269 126.93503 125.08606 123.89546"/>
<path transform="matrix(1.00006,0,0,-1.00006,2.0959855,163.35984)" stroke-width=".3985" stroke-linecap="butt" stroke-miterlimit="10" stroke-linejoin="miter" fill="none" stroke="#000000" d="M135.5141 126.93503 138.63748 123.89546"/>
<path transform="matrix(1.00006,0,0,-1.00006,2.0959855,163.35984)" stroke-width=".3985" stroke-linecap="butt" stroke-miterlimit="10" stroke-linejoin="miter" fill="none" stroke="#000000" d="M149.06552 126.93503 152.18889 123.89546"/>
<path transform="matrix(1.00006,0,0,-1.00006,2.0959855,163.35984)" stroke-width=".3985" stroke-linecap="butt" stroke-miterlimit="10" stroke-linejoin="miter" fill="none" stroke="#000000" d="M162.61695 126.93503 165.74031 123.89546"/>
<path transform="matrix(1.00006,0,0,-1.00006,2.0959855,163.35984)" stroke-width=".3985" stroke-linecap="butt" stroke-miterlimit="10" stroke-linejoin="miter" fill="none" stroke="#000000" d="M176.16835 126.93503 179.29172 123.89546"/>
<path transform="matrix(1.00006,0,0,-1.00006,2.0959855,163.35984)" stroke-width=".3985" stroke-linecap="butt" stroke-miterlimit="10" stroke-linejoin="miter" fill="none" stroke="#000000" d="M189.71976 126.93503 192.84313 123.89546"/>
<path transform="matrix(1.00006,0,0,-1.00006,2.0959855,163.35984)" stroke-width=".3985" stroke-linecap="butt" stroke-miterlimit="10" stroke-linejoin="miter" fill="none" stroke="#000000" d="M0 138.47457 2.71996 135.16582"/>
<path transform="matrix(1.00006,0,0,-1.00006,2.0959855,163.35984)" stroke-width=".3985" stroke-linecap="butt" stroke-miterlimit="10" stroke-linejoin="miter" fill="none" stroke="#000000" d="M13.5514 138.47457 16.27136 135.16582"/>
<path transform="matrix(1.00006,0,0,-1.00006,2.0959855,163.35984)" stroke-width=".3985" stroke-linecap="butt" stroke-miterlimit="10" stroke-linejoin="miter" fill="none" stroke="#000000" d="M27.10281 138.47457 29.82278 135.16582"/>
<path transform="matrix(1.00006,0,0,-1.00006,2.0959855,163.35984)" stroke-width=".3985" stroke-linecap="butt" stroke-miterlimit="10" stroke-linejoin="miter" fill="none" stroke="#000000" d="M40.65422 138.47457 43.3742 135.16582"/>
<path transform="matrix(1.00006,0,0,-1.00006,2.0959855,163.35984)" stroke-width=".3985" stroke-linecap="butt" stroke-miterlimit="10" stroke-linejoin="miter" fill="none" stroke="#000000" d="M54.20563 138.47457 56.92561 135.16582"/>
<path transform="matrix(1.00006,0,0,-1.00006,2.0959855,163.35984)" stroke-width=".3985" stroke-linecap="butt" stroke-miterlimit="10" stroke-linejoin="miter" fill="none" stroke="#000000" d="M67.75705 138.47457 70.47704 135.16582"/>
<path transform="matrix(1.00006,0,0,-1.00006,2.0959855,163.35984)" stroke-width=".3985" stroke-linecap="butt" stroke-miterlimit="10" stroke-linejoin="miter" fill="none" stroke="#000000" d="M81.30846 138.47457 84.02844 135.16582"/>
<path transform="matrix(1.00006,0,0,-1.00006,2.0959855,163.35984)" stroke-width=".3985" stroke-linecap="butt" stroke-miterlimit="10" stroke-linejoin="miter" fill="none" stroke="#000000" d="M94.85986 138.47457 97.57985 135.16582"/>
<path transform="matrix(1.00006,0,0,-1.00006,2.0959855,163.35984)" stroke-width=".3985" stroke-linecap="butt" stroke-miterlimit="10" stroke-linejoin="miter" fill="none" stroke="#000000" d="M108.41129 138.47457 111.13126 135.16582"/>
<path transform="matrix(1.00006,0,0,-1.00006,2.0959855,163.35984)" stroke-width=".3985" stroke-linecap="butt" stroke-miterlimit="10" stroke-linejoin="miter" fill="none" stroke="#000000" d="M121.96269 138.47457 124.68266 135.16582"/>
<path transform="matrix(1.00006,0,0,-1.00006,2.0959855,163.35984)" stroke-width=".3985" stroke-linecap="butt" stroke-miterlimit="10" stroke-linejoin="miter" fill="none" stroke="#000000" d="M135.5141 138.47457 138.23409 135.16582"/>
<path transform="matrix(1.00006,0,0,-1.00006,2.0959855,163.35984)" stroke-width=".3985" stroke-linecap="butt" stroke-miterlimit="10" stroke-linejoin="miter" fill="none" stroke="#000000" d="M149.06552 138.47457 151.78549 135.16582"/>
<path transform="matrix(1.00006,0,0,-1.00006,2.0959855,163.35984)" stroke-width=".3985" stroke-linecap="butt" stroke-miterlimit="10" stroke-linejoin="miter" fill="none" stroke="#000000" d="M162.61695 138.47457 165.33692 135.16582"/>
<path transform="matrix(1.00006,0,0,-1.00006,2.0959855,163.35984)" stroke-width=".3985" stroke-linecap="butt" stroke-miterlimit="10" stroke-linejoin="miter" fill="none" stroke="#000000" d="M176.16835 138.47457 178.88832 135.16582"/>
<path transform="matrix(1.00006,0,0,-1.00006,2.0959855,163.35984)" stroke-width=".3985" stroke-linecap="butt" stroke-miterlimit="10" stroke-linejoin="miter" fill="none" stroke="#000000" d="M189.71976 138.47457 192.43975 135.16582"/>
<path transform="matrix(1.00006,0,0,-1.00006,2.0959855,163.35984)" stroke-width=".3985" stroke-linecap="butt" stroke-miterlimit="10" stroke-linejoin="miter" fill="none" stroke="#000000" d="M0 150.01412 2.3899 146.52544"/>
<path transform="matrix(1.00006,0,0,-1.00006,2.0959855,163.35984)" stroke-width=".3985" stroke-linecap="butt" stroke-miterlimit="10" stroke-linejoin="miter" fill="none" stroke="#000000" d="M13.5514 150.01412 15.9413 146.52544"/>
<path transform="matrix(1.00006,0,0,-1.00006,2.0959855,163.35984)" stroke-width=".3985" stroke-linecap="butt" stroke-miterlimit="10" stroke-linejoin="miter" fill="none" stroke="#000000" d="M27.10281 150.01412 29.4927 146.52544"/>
<path transform="matrix(1.00006,0,0,-1.00006,2.0959855,163.35984)" stroke-width=".3985" stroke-linecap="butt" stroke-miterlimit="10" stroke-linejoin="miter" fill="none" stroke="#000000" d="M40.65422 150.01412 43.04411 146.52544"/>
<path transform="matrix(1.00006,0,0,-1.00006,2.0959855,163.35984)" stroke-width=".3985" stroke-linecap="butt" stroke-miterlimit="10" stroke-linejoin="miter" fill="none" stroke="#000000" d="M54.20563 150.01412 56.59555 146.52544"/>
<path transform="matrix(1.00006,0,0,-1.00006,2.0959855,163.35984)" stroke-width=".3985" stroke-linecap="butt" stroke-miterlimit="10" stroke-linejoin="miter" fill="none" stroke="#000000" d="M67.75705 150.01412 70.14696 146.52544"/>
<path transform="matrix(1.00006,0,0,-1.00006,2.0959855,163.35984)" stroke-width=".3985" stroke-linecap="butt" stroke-miterlimit="10" stroke-linejoin="miter" fill="none" stroke="#000000" d="M81.30846 150.01412 83.69836 146.52544"/>
<path transform="matrix(1.00006,0,0,-1.00006,2.0959855,163.35984)" stroke-width=".3985" stroke-linecap="butt" stroke-miterlimit="10" stroke-linejoin="miter" fill="none" stroke="#000000" d="M94.85986 150.01412 97.24979 146.52544"/>
<path transform="matrix(1.00006,0,0,-1.00006,2.0959855,163.35984)" stroke-width=".3985" stroke-linecap="butt" stroke-miterlimit="10" stroke-linejoin="miter" fill="none" stroke="#000000" d="M108.41129 150.01412 110.8012 146.52544"/>
<path transform="matrix(1.00006,0,0,-1.00006,2.0959855,163.35984)" stroke-width=".3985" stroke-linecap="butt" stroke-miterlimit="10" stroke-linejoin="miter" fill="none" stroke="#000000" d="M121.96269 150.01412 124.3526 146.52544"/>
<path transform="matrix(1.00006,0,0,-1.00006,2.0959855,163.35984)" stroke-width=".3985" stroke-linecap="butt" stroke-miterlimit="10" stroke-linejoin="miter" fill="none" stroke="#000000" d="M135.5141 150.01412 137.90402 146.52544"/>
<path transform="matrix(1.00006,0,0,-1.00006,2.0959855,163.35984)" stroke-width=".3985" stroke-linecap="butt" stroke-miterlimit="10" stroke-linejoin="miter" fill="none" stroke="#000000" d="M149.06552 150.01412 151.45543 146.52544"/>
<path transform="matrix(1.00006,0,0,-1.00006,2.0959855,163.35984)" stroke-width=".3985" stroke-linecap="butt" stroke-miterlimit="10" stroke-linejoin="miter" fill="none" stroke="#000000" d="M162.61695 150.01412 165.00684 146.52544"/>
<path transform="matrix(1.00006,0,0,-1.00006,2.0959855,163.35984)" stroke-width=".3985" stroke-linecap="butt" stroke-miterlimit="10" stroke-linejoin="miter" fill="none" stroke="#000000" d="M176.16835 150.01412 178.55825 146.52544"/>
<path transform="matrix(1.00006,0,0,-1.00006,2.0959855,163.35984)" stroke-width=".3985" stroke-linecap="butt" stroke-miterlimit="10" stroke-linejoin="miter" fill="none" stroke="#000000" d="M189.71976 150.01412 192.10967 146.52544"/>
<path transform="matrix(1.00006,0,0,-1.00006,2.0959855,163.35984)" stroke-width=".3985" stroke-linecap="butt" stroke-miterlimit="10" stroke-linejoin="miter" fill="none" stroke="#000000" d="M0 161.55367 2.12115 157.94115"/>
<path transform="matrix(1.00006,0,0,-1.00006,2.0959855,163.35984)" stroke-width=".3985" stroke-linecap="butt" stroke-miterlimit="10" stroke-linejoin="miter" fill="none" stroke="#000000" d="M13.5514 161.55367 15.67256 157.94115"/>
<path transform="matrix(1.00006,0,0,-1.00006,2.0959855,163.35984)" stroke-width=".3985" stroke-linecap="butt" stroke-miterlimit="10" stroke-linejoin="miter" fill="none" stroke="#000000" d="M27.10281 161.55367 29.22398 157.94115"/>
<path transform="matrix(1.00006,0,0,-1.00006,2.0959855,163.35984)" stroke-width=".3985" stroke-linecap="butt" stroke-miterlimit="10" stroke-linejoin="miter" fill="none" stroke="#000000" d="M40.65422 161.55367 42.77539 157.94115"/>
<path transform="matrix(1.00006,0,0,-1.00006,2.0959855,163.35984)" stroke-width=".3985" stroke-linecap="butt" stroke-miterlimit="10" stroke-linejoin="miter" fill="none" stroke="#000000" d="M54.20563 161.55367 56.3268 157.94115"/>
<path transform="matrix(1.00006,0,0,-1.00006,2.0959855,163.35984)" stroke-width=".3985" stroke-linecap="butt" stroke-miterlimit="10" stroke-linejoin="miter" fill="none" stroke="#000000" d="M67.75705 161.55367 69.8782 157.94115"/>
<path transform="matrix(1.00006,0,0,-1.00006,2.0959855,163.35984)" stroke-width=".3985" stroke-linecap="butt" stroke-miterlimit="10" stroke-linejoin="miter" fill="none" stroke="#000000" d="M81.30846 161.55367 83.42963 157.94115"/>
<path transform="matrix(1.00006,0,0,-1.00006,2.0959855,163.35984)" stroke-width=".3985" stroke-linecap="butt" stroke-miterlimit="10" stroke-linejoin="miter" fill="none" stroke="#000000" d="M94.85986 161.55367 96.98105 157.94115"/>
<path transform="matrix(1.00006,0,0,-1.00006,2.0959855,163.35984)" stroke-width=".3985" stroke-linecap="butt" stroke-miterlimit="10" stroke-linejoin="miter" fill="none" stroke="#000000" d="M108.41129 161.55367 110.53246 157.94115"/>
<path transform="matrix(1.00006,0,0,-1.00006,2.0959855,163.35984)" stroke-width=".3985" stroke-linecap="butt" stroke-miterlimit="10" stroke-linejoin="miter" fill="none" stroke="#000000" d="M121.96269 161.55367 124.08388 157.94115"/>
<path transform="matrix(1.00006,0,0,-1.00006,2.0959855,163.35984)" stroke-width=".3985" stroke-linecap="butt" stroke-miterlimit="10" stroke-linejoin="miter" fill="none" stroke="#000000" d="M135.5141 161.55367 137.63529 157.94115"/>
<path transform="matrix(1.00006,0,0,-1.00006,2.0959855,163.35984)" stroke-width=".3985" stroke-linecap="butt" stroke-miterlimit="10" stroke-linejoin="miter" fill="none" stroke="#000000" d="M149.06552 161.55367 151.18669 157.94115"/>
<path transform="matrix(1.00006,0,0,-1.00006,2.0959855,163.35984)" stroke-width=".3985" stroke-linecap="butt" stroke-miterlimit="10" stroke-linejoin="miter" fill="none" stroke="#000000" d="M162.61695 161.55367 164.7381 157.94115"/>
<path transform="matrix(1.00006,0,0,-1.00006,2.0959855,163.35984)" stroke-width=".3985" stroke-linecap="butt" stroke-miterlimit="10" stroke-linejoin="miter" fill="none" stroke="#000000" d="M176.16835 161.55367 178.2895 157.94115"/>
<path transform="matrix(1.00006,0,0,-1.00006,2.0959855,163.35984)" stroke-width=".3985" stroke-linecap="butt" stroke-miterlimit="10" stroke-linejoin="miter" fill="none" stroke="#000000" d="M189.71976 161.55367 191.84093 157.94115"/>
<path transform="matrix(1.00006,0,0,-1.00006,2.0959855,163.35984)" stroke-width=".3985" stroke-linecap="butt" stroke-miterlimit="10" stroke-linejoin="miter" fill="none" stroke="#000000" d=""/>
</g>
<path transform="matrix(1.00006,0,0,-1.00006,2.0959855,163.35984)" stroke-width=".19925" stroke-linecap="butt" stroke-miterlimit="10" stroke-linejoin="miter" fill="none" stroke="#7f807f" d="M23.71507 79.3598V82.19463M71.14525 79.3598V82.19463M118.57542 79.3598V82.19463M166.0056 79.3598V82.19463"/>
<path transform="matrix(1.00006,0,0,-1.00006,2.0959855,163.35984)" stroke-width=".19925" stroke-linecap="butt" stroke-miterlimit="10" stroke-linejoin="miter" fill="none" stroke="#7f807f" d="M0 78.65132V82.90312M47.43016 78.65132V82.90312M142.29051 78.65132V82.90312M189.72069 78.65132V82.90312"/>
<path transform="matrix(1.00006,0,0,-1.00006,2.0959855,163.35984)" stroke-width=".19925" stroke-linecap="butt" stroke-miterlimit="10" stroke-linejoin="miter" fill="none" stroke="#7f807f" d="M93.44292 20.1943H96.27776M93.44292 60.58292H96.27776M93.44292 100.97153H96.27776M93.44292 141.36016H96.27776"/>
<path transform="matrix(1.00006,0,0,-1.00006,2.0959855,163.35984)" stroke-width=".19925" stroke-linecap="butt" stroke-miterlimit="10" stroke-linejoin="miter" fill="none" stroke="#7f807f" d="M92.73442 0H96.98624M92.73442 40.38861H96.98624M92.73442 121.16585H96.98624M92.73442 161.55446H96.98624"/>
<path transform="matrix(1.00006,0,0,-1.00006,2.0959855,163.35984)" stroke-width=".3985" stroke-linecap="butt" stroke-miterlimit="10" stroke-linejoin="miter" fill="none" stroke="#000000" d="M0 80.77722H192.47025"/>
<path transform="matrix(1.00006,0,0,-1.00006,194.57776,82.57777)" d="M1.99252 0-1.19551 1.59401 0 0-1.19551-1.59401"/>
<path transform="matrix(1.00006,0,0,-1.00006,2.0959855,163.35984)" stroke-width=".3985" stroke-linecap="butt" stroke-miterlimit="10" stroke-linejoin="miter" fill="none" stroke="#000000" d="M94.86034 0V159.56114"/>
<path transform="matrix(0,-1.00006,-1.00006,-0,96.96201,3.7891236)" d="M1.99252 0-1.19551 1.59401 0 0-1.19551-1.59401"/>
<path transform="matrix(1.00006,0,0,-1.00006,2.0959855,163.35984)" stroke-width=".19925" stroke-linecap="butt" stroke-miterlimit="10" stroke-linejoin="miter" fill="none" stroke="#7f807f" d="M23.71507 79.3598V82.19463M71.14525 79.3598V82.19463M118.57542 79.3598V82.19463M166.0056 79.3598V82.19463"/>
<path transform="matrix(1.00006,0,0,-1.00006,2.0959855,163.35984)" stroke-width=".19925" stroke-linecap="butt" stroke-miterlimit="10" stroke-linejoin="miter" fill="none" stroke="#7f807f" d="M0 78.65132V82.90312M47.43016 78.65132V82.90312M142.29051 78.65132V82.90312M189.72069 78.65132V82.90312"/>
<path transform="matrix(1.00006,0,0,-1.00006,2.0959855,163.35984)" stroke-width=".19925" stroke-linecap="butt" stroke-miterlimit="10" stroke-linejoin="miter" fill="none" stroke="#7f807f" d="M93.44292 20.1943H96.27776M93.44292 60.58292H96.27776M93.44292 100.97153H96.27776M93.44292 141.36016H96.27776"/>
<path transform="matrix(1.00006,0,0,-1.00006,2.0959855,163.35984)" stroke-width=".19925" stroke-linecap="butt" stroke-miterlimit="10" stroke-linejoin="miter" fill="none" stroke="#7f807f" d="M92.73442 0H96.98624M92.73442 40.38861H96.98624M92.73442 121.16585H96.98624M92.73442 161.55446H96.98624"/>
<path transform="matrix(1.00006,0,0,-1.00006,2.0959855,163.35984)" stroke-width=".3985" stroke-linecap="butt" stroke-miterlimit="10" stroke-linejoin="miter" fill="none" stroke="#000000" d="M0 80.77722H192.47025"/>
<path transform="matrix(1.00006,0,0,-1.00006,194.57776,82.57777)" d="M1.99252 0-1.19551 1.59401 0 0-1.19551-1.59401"/>
<path transform="matrix(1.00006,0,0,-1.00006,2.0959855,163.35984)" stroke-width=".3985" stroke-linecap="butt" stroke-miterlimit="10" stroke-linejoin="miter" fill="none" stroke="#000000" d="M94.86034 0V159.56114"/>
<path transform="matrix(0,-1.00006,-1.00006,-0,96.96201,3.7891236)" d="M1.99252 0-1.19551 1.59401 0 0-1.19551-1.59401"/>
<use data-text="x" xlink:href="#font_2_1" transform="matrix(9.963197,0,0,-9.963197,187.38208,79.046779)"/>
<use data-text="y" xlink:href="#font_2_2" transform="matrix(9.963197,0,0,-9.963197,100.500888,9.5746159)"/>
</svg>
