<svg xmlns="http://www.w3.org/2000/svg" xmlns:xlink="http://www.w3.org/1999/xlink" xmlns:inkscape="http://www.inkscape.org/namespaces/inkscape" version="1.1" width="198" height="164" viewBox="0 0 198 164">
<defs>
<clipPath id="clip_1">
<path transform="matrix(1.00006,0,0,-1.00002,2.0959855,162.92694)" d="M194.46277 0V0H0V161.12726H194.46277Z"/>
</clipPath>
<path id="font_2_1" d="M.33399964 .30233766C.33999635 .32835389 .36299134 .42037965 .43299867 .42037965 .43798829 .42037965 .46199037 .42037965 .48298646 .40734864 .45498658 .402359 .43499757 .37734986 .43499757 .35334779 .43499757 .33735658 .44599916 .31835938 .47299195 .31835938 .49499513 .31835938 .5269928 .3363495 .5269928 .37635804 .5269928 .42837525 .46798707 .4423828 .43399049 .4423828 .37599183 .4423828 .34098817 .38935853 .32899476 .36634828 .3039856 .43237306 .25 .4423828 .22099304 .4423828 .116989139 .4423828 .05999756 .3133545 .05999756 .28834535 .05999756 .27833558 .069992069 .27833558 .07199097 .27833558 .07998657 .27833558 .08299255 .28033448 .084991458 .28933717 .11898804 .39535523 .18499756 .42037965 .21899414 .42037965 .23799134 .42037965 .272995 .4113617 .272995 .35334779 .272995 .32235719 .2559967 .25532533 .21899414 .11528015 .20298767 .053268434 .16799927 .011245728 .12399292 .011245728 .117996219 .011245728 .09498596 .011245728 .07398987 .024276734 .09899902 .029266358 .12098694 .05027771 .12098694 .07827759 .12098694 .105270389 .09899902 .11328125 .083999637 .11328125 .053985597 .11328125 .0289917 .08728027 .0289917 .055267335 .0289917 .009246826 .07899475-.0107421879 .12298584-.0107421879 .18899536-.0107421879 .22499085 .059280397 .22799683 .0652771 .23999024 .028274537 .27598573-.0107421879 .33599855-.0107421879 .43899537-.0107421879 .49598695 .118270877 .49598695 .14328003 .49598695 .1532898 .4869995 .1532898 .48399354 .1532898 .47499085 .1532898 .47299195 .14929199 .47099305 .14228821 .43798829 .03527832 .36999513 .011245728 .33799745 .011245728 .29899598 .011245728 .2829895 .043273927 .2829895 .07727051 .2829895 .09927368 .2889862 .121276859 .2999878 .16529846L.33399964 .30233766Z"/>
<path id="font_2_2" d="M.48599244 .38136292C.48999024 .39537049 .48999024 .39736939 .48999024 .40437318 .48999024 .42237855 .47599793 .43138124 .46099855 .43138124 .45098878 .43138124 .43499757 .42536927 .42599488 .41036988 .42399598 .405365 .41600038 .37435914 .4119873 .35635377 .40499879 .33035279 .397995 .30334474 .3919983 .27633668L.34700013 .09628296C.34298707 .08126831 .2999878 .011245728 .23399353 .011245728 .18299866 .011245728 .17199707 .055267335 .17199707 .0922699 .17199707 .1382904 .18899536 .20030213 .22299195 .28833009 .23899842 .3293457 .24299622 .3403473 .24299622 .36035157 .24299622 .405365 .21099854 .4423828 .16099549 .4423828 .06599426 .4423828 .0289917 .29733277 .0289917 .28833009 .0289917 .27833558 .038986207 .27833558 .040985109 .27833558 .050994874 .27833558 .051986696 .28033448 .056991579 .29634095 .083999637 .3903656 .12399292 .42037965 .1579895 .42037965 .1659851 .42037965 .18299866 .42037965 .18299866 .3883667 .18299866 .36335755 .17298889 .3373413 .1659851 .31834413 .12599182 .21231079 .10798645 .1552887 .10798645 .10827637 .10798645 .019256592 .17098999-.0107421879 .22999573-.0107421879 .2689972-.0107421879 .30299378 .0062561037 .33099366 .03425598 .31799317-.017745972 .30599977-.06674194 .2659912-.11973572 .23999024-.15385437 .20199585-.18309021 .1559906-.18309021 .14199829-.18309021 .09700012-.18005371 .07998657-.14074707 .09599304-.14074707 .10899353-.14074707 .12298584-.1287384 .1329956-.11973572 .14299011-.10673523 .14299011-.08773804 .14299011-.056747438 .115997318-.052734376 .10598755-.052734376 .08299255-.052734376 .049987794-.068740848 .049987794-.11773682 .049987794-.16796875 .09399414-.20507813 .1559906-.20507813 .25898744-.20507813 .3619995-.11373901 .3899994-.00074768069L.48599244 .38136292Z"/>
</defs>
<g clip-path="url(#clip_1)">
<path transform="matrix(1.00006,0,0,-1.00002,2.0959855,162.92694)" stroke-width=".3985" stroke-linecap="butt" stroke-miterlimit="10" stroke-linejoin="miter" fill="none" stroke="#ff0000" d="M0 3.72711 1.15036 7.45424"/>
<path transform="matrix(1.00006,0,0,-1.00002,2.0959855,162.92694)" stroke-width=".3985" stroke-linecap="butt" stroke-miterlimit="10" stroke-linejoin="miter" fill="none" stroke="#ff0000" d="M13.5514 3.72711 14.88419 7.41527"/>
<path transform="matrix(1.00006,0,0,-1.00002,2.0959855,162.92694)" stroke-width=".3985" stroke-linecap="butt" stroke-miterlimit="10" stroke-linejoin="miter" fill="none" stroke="#ff0000" d="M27.10281 3.72711 28.66966 7.35336"/>
<path transform="matrix(1.00006,0,0,-1.00002,2.0959855,162.92694)" stroke-width=".3985" stroke-linecap="butt" stroke-miterlimit="10" stroke-linejoin="miter" fill="none" stroke="#ff0000" d="M40.65422 3.72711 42.55531 7.2469"/>
<path transform="matrix(1.00006,0,0,-1.00002,2.0959855,162.92694)" stroke-width=".3985" stroke-linecap="butt" stroke-miterlimit="10" stroke-linejoin="miter" fill="none" stroke="#ff0000" d="M54.20563 3.72711 56.59555 7.04561"/>
<path transform="matrix(1.00006,0,0,-1.00002,2.0959855,162.92694)" stroke-width=".3985" stroke-linecap="butt" stroke-miterlimit="10" stroke-linejoin="miter" fill="none" stroke="#ff0000" d="M67.75705 3.72711 70.88037 6.61848"/>
<path transform="matrix(1.00006,0,0,-1.00002,2.0959855,162.92694)" stroke-width=".3985" stroke-linecap="butt" stroke-miterlimit="10" stroke-linejoin="miter" fill="none" stroke="#ff0000" d="M81.30846 3.72711 85.42664 5.63329"/>
<path transform="matrix(1.00006,0,0,-1.00002,2.0959855,162.92694)" stroke-width=".3985" stroke-linecap="butt" stroke-miterlimit="10" stroke-linejoin="miter" fill="none" stroke="#ff0000" d="M94.85986 3.72711 99.60289 3.72719"/>
<path transform="matrix(1.00006,0,0,-1.00002,2.0959855,162.92694)" stroke-width=".3985" stroke-linecap="butt" stroke-miterlimit="10" stroke-linejoin="miter" fill="none" stroke="#ff0000" d="M108.41129 3.72711 112.52951 1.82106"/>
<path transform="matrix(1.00006,0,0,-1.00002,2.0959855,162.92694)" stroke-width=".3985" stroke-linecap="butt" stroke-miterlimit="10" stroke-linejoin="miter" fill="none" stroke="#ff0000" d="M121.96269 3.72711 125.08606 .83583"/>
<path transform="matrix(1.00006,0,0,-1.00002,2.0959855,162.92694)" stroke-width=".3985" stroke-linecap="butt" stroke-miterlimit="10" stroke-linejoin="miter" fill="none" stroke="#ff0000" d="M135.5141 3.72711 137.90402 .4086"/>
<path transform="matrix(1.00006,0,0,-1.00002,2.0959855,162.92694)" stroke-width=".3985" stroke-linecap="butt" stroke-miterlimit="10" stroke-linejoin="miter" fill="none" stroke="#ff0000" d="M149.06552 3.72711 150.96666 .20734"/>
<path transform="matrix(1.00006,0,0,-1.00002,2.0959855,162.92694)" stroke-width=".3985" stroke-linecap="butt" stroke-miterlimit="10" stroke-linejoin="miter" fill="none" stroke="#ff0000" d="M162.61695 3.72711 164.18379 .10088"/>
<path transform="matrix(1.00006,0,0,-1.00002,2.0959855,162.92694)" stroke-width=".3985" stroke-linecap="butt" stroke-miterlimit="10" stroke-linejoin="miter" fill="none" stroke="#ff0000" d="M176.16835 3.72711 177.49639 .03899"/>
<path transform="matrix(1.00006,0,0,-1.00002,2.0959855,162.92694)" stroke-width=".3985" stroke-linecap="butt" stroke-miterlimit="10" stroke-linejoin="miter" fill="none" stroke="#ff0000" d="M189.71976 3.72711 190.87014 0"/>
<path transform="matrix(1.00006,0,0,-1.00002,2.0959855,162.92694)" stroke-width=".3985" stroke-linecap="butt" stroke-miterlimit="10" stroke-linejoin="miter" fill="none" stroke="#ff0000" d="M0 14.70375 1.33276 18.39192"/>
<path transform="matrix(1.00006,0,0,-1.00002,2.0959855,162.92694)" stroke-width=".3985" stroke-linecap="butt" stroke-miterlimit="10" stroke-linejoin="miter" fill="none" stroke="#ff0000" d="M13.5514 14.70375 15.0793 18.34084"/>
<path transform="matrix(1.00006,0,0,-1.00002,2.0959855,162.92694)" stroke-width=".3985" stroke-linecap="butt" stroke-miterlimit="10" stroke-linejoin="miter" fill="none" stroke="#ff0000" d="M27.10281 14.70375 28.89586 18.26056"/>
<path transform="matrix(1.00006,0,0,-1.00002,2.0959855,162.92694)" stroke-width=".3985" stroke-linecap="butt" stroke-miterlimit="10" stroke-linejoin="miter" fill="none" stroke="#ff0000" d="M40.65422 14.70375 42.81049 18.12569"/>
<path transform="matrix(1.00006,0,0,-1.00002,2.0959855,162.92694)" stroke-width=".3985" stroke-linecap="butt" stroke-miterlimit="10" stroke-linejoin="miter" fill="none" stroke="#ff0000" d="M54.20563 14.70375 56.87415 17.8799"/>
<path transform="matrix(1.00006,0,0,-1.00002,2.0959855,162.92694)" stroke-width=".3985" stroke-linecap="butt" stroke-miterlimit="10" stroke-linejoin="miter" fill="none" stroke="#ff0000" d="M67.75705 14.70375 71.14526 17.39226"/>
<path transform="matrix(1.00006,0,0,-1.00002,2.0959855,162.92694)" stroke-width=".3985" stroke-linecap="butt" stroke-miterlimit="10" stroke-linejoin="miter" fill="none" stroke="#ff0000" d="M81.30846 14.70375 85.56802 16.39372"/>
<path transform="matrix(1.00006,0,0,-1.00002,2.0959855,162.92694)" stroke-width=".3985" stroke-linecap="butt" stroke-miterlimit="10" stroke-linejoin="miter" fill="none" stroke="#ff0000" d="M94.85986 14.70375 99.60289 14.70381"/>
<path transform="matrix(1.00006,0,0,-1.00002,2.0959855,162.92694)" stroke-width=".3985" stroke-linecap="butt" stroke-miterlimit="10" stroke-linejoin="miter" fill="none" stroke="#ff0000" d="M108.41129 14.70375 112.67094 13.01389"/>
<path transform="matrix(1.00006,0,0,-1.00002,2.0959855,162.92694)" stroke-width=".3985" stroke-linecap="butt" stroke-miterlimit="10" stroke-linejoin="miter" fill="none" stroke="#ff0000" d="M121.96269 14.70375 125.35097 12.0153"/>
<path transform="matrix(1.00006,0,0,-1.00002,2.0959855,162.92694)" stroke-width=".3985" stroke-linecap="butt" stroke-miterlimit="10" stroke-linejoin="miter" fill="none" stroke="#ff0000" d="M135.5141 14.70375 138.18273 11.5277"/>
<path transform="matrix(1.00006,0,0,-1.00002,2.0959855,162.92694)" stroke-width=".3985" stroke-linecap="butt" stroke-miterlimit="10" stroke-linejoin="miter" fill="none" stroke="#ff0000" d="M149.06552 14.70375 151.22188 11.28181"/>
<path transform="matrix(1.00006,0,0,-1.00002,2.0959855,162.92694)" stroke-width=".3985" stroke-linecap="butt" stroke-miterlimit="10" stroke-linejoin="miter" fill="none" stroke="#ff0000" d="M162.61695 14.70375 164.40999 11.14697"/>
<path transform="matrix(1.00006,0,0,-1.00002,2.0959855,162.92694)" stroke-width=".3985" stroke-linecap="butt" stroke-miterlimit="10" stroke-linejoin="miter" fill="none" stroke="#ff0000" d="M176.16835 14.70375 177.69626 11.06668"/>
<path transform="matrix(1.00006,0,0,-1.00002,2.0959855,162.92694)" stroke-width=".3985" stroke-linecap="butt" stroke-miterlimit="10" stroke-linejoin="miter" fill="none" stroke="#ff0000" d="M189.71976 14.70375 191.0478 11.0156"/>
<path transform="matrix(1.00006,0,0,-1.00002,2.0959855,162.92694)" stroke-width=".3985" stroke-linecap="butt" stroke-miterlimit="10" stroke-linejoin="miter" fill="none" stroke="#ff0000" d="M0 25.6804 1.56685 29.30664"/>
<path transform="matrix(1.00006,0,0,-1.00002,2.0959855,162.92694)" stroke-width=".3985" stroke-linecap="butt" stroke-miterlimit="10" stroke-linejoin="miter" fill="none" stroke="#ff0000" d="M13.5514 25.6804 15.34444 29.23721"/>
<path transform="matrix(1.00006,0,0,-1.00002,2.0959855,162.92694)" stroke-width=".3985" stroke-linecap="butt" stroke-miterlimit="10" stroke-linejoin="miter" fill="none" stroke="#ff0000" d="M27.10281 25.6804 29.18983 29.1304"/>
<path transform="matrix(1.00006,0,0,-1.00002,2.0959855,162.92694)" stroke-width=".3985" stroke-linecap="butt" stroke-miterlimit="10" stroke-linejoin="miter" fill="none" stroke="#ff0000" d="M40.65422 25.6804 43.13155 28.95653"/>
<path transform="matrix(1.00006,0,0,-1.00002,2.0959855,162.92694)" stroke-width=".3985" stroke-linecap="butt" stroke-miterlimit="10" stroke-linejoin="miter" fill="none" stroke="#ff0000" d="M54.20563 25.6804 57.20567 28.65605"/>
<path transform="matrix(1.00006,0,0,-1.00002,2.0959855,162.92694)" stroke-width=".3985" stroke-linecap="butt" stroke-miterlimit="10" stroke-linejoin="miter" fill="none" stroke="#ff0000" d="M67.75705 25.6804 71.43117 28.10994"/>
<path transform="matrix(1.00006,0,0,-1.00002,2.0959855,162.92694)" stroke-width=".3985" stroke-linecap="butt" stroke-miterlimit="10" stroke-linejoin="miter" fill="none" stroke="#ff0000" d="M81.30846 25.6804 85.69983 27.13228"/>
<path transform="matrix(1.00006,0,0,-1.00002,2.0959855,162.92694)" stroke-width=".3985" stroke-linecap="butt" stroke-miterlimit="10" stroke-linejoin="miter" fill="none" stroke="#ff0000" d="M94.85986 25.6804 99.60289 25.68045"/>
<path transform="matrix(1.00006,0,0,-1.00002,2.0959855,162.92694)" stroke-width=".3985" stroke-linecap="butt" stroke-miterlimit="10" stroke-linejoin="miter" fill="none" stroke="#ff0000" d="M108.41129 25.6804 112.8027 24.2286"/>
<path transform="matrix(1.00006,0,0,-1.00002,2.0959855,162.92694)" stroke-width=".3985" stroke-linecap="butt" stroke-miterlimit="10" stroke-linejoin="miter" fill="none" stroke="#ff0000" d="M121.96269 25.6804 125.63693 23.2509"/>
<path transform="matrix(1.00006,0,0,-1.00002,2.0959855,162.92694)" stroke-width=".3985" stroke-linecap="butt" stroke-miterlimit="10" stroke-linejoin="miter" fill="none" stroke="#ff0000" d="M135.5141 25.6804 138.51425 22.70474"/>
<path transform="matrix(1.00006,0,0,-1.00002,2.0959855,162.92694)" stroke-width=".3985" stroke-linecap="butt" stroke-miterlimit="10" stroke-linejoin="miter" fill="none" stroke="#ff0000" d="M149.06552 25.6804 151.5429 22.40427"/>
<path transform="matrix(1.00006,0,0,-1.00002,2.0959855,162.92694)" stroke-width=".3985" stroke-linecap="butt" stroke-miterlimit="10" stroke-linejoin="miter" fill="none" stroke="#ff0000" d="M162.61695 25.6804 164.70397 22.23042"/>
<path transform="matrix(1.00006,0,0,-1.00002,2.0959855,162.92694)" stroke-width=".3985" stroke-linecap="butt" stroke-miterlimit="10" stroke-linejoin="miter" fill="none" stroke="#ff0000" d="M176.16835 25.6804 177.9614 22.12361"/>
<path transform="matrix(1.00006,0,0,-1.00002,2.0959855,162.92694)" stroke-width=".3985" stroke-linecap="butt" stroke-miterlimit="10" stroke-linejoin="miter" fill="none" stroke="#ff0000" d="M189.71976 25.6804 191.2866 22.05415"/>
<path transform="matrix(1.00006,0,0,-1.00002,2.0959855,162.92694)" stroke-width=".3985" stroke-linecap="butt" stroke-miterlimit="10" stroke-linejoin="miter" fill="none" stroke="#ff0000" d="M0 36.65704 1.90108 40.17683"/>
<path transform="matrix(1.00006,0,0,-1.00002,2.0959855,162.92694)" stroke-width=".3985" stroke-linecap="butt" stroke-miterlimit="10" stroke-linejoin="miter" fill="none" stroke="#ff0000" d="M13.5514 36.65704 15.70767 40.07898"/>
<path transform="matrix(1.00006,0,0,-1.00002,2.0959855,162.92694)" stroke-width=".3985" stroke-linecap="butt" stroke-miterlimit="10" stroke-linejoin="miter" fill="none" stroke="#ff0000" d="M27.10281 36.65704 29.58014 39.93317"/>
<path transform="matrix(1.00006,0,0,-1.00002,2.0959855,162.92694)" stroke-width=".3985" stroke-linecap="butt" stroke-miterlimit="10" stroke-linejoin="miter" fill="none" stroke="#ff0000" d="M40.65422 36.65704 43.53755 39.70755"/>
<path transform="matrix(1.00006,0,0,-1.00002,2.0959855,162.92694)" stroke-width=".3985" stroke-linecap="butt" stroke-miterlimit="10" stroke-linejoin="miter" fill="none" stroke="#ff0000" d="M54.20563 36.65704 57.59386 39.34554"/>
<path transform="matrix(1.00006,0,0,-1.00002,2.0959855,162.92694)" stroke-width=".3985" stroke-linecap="butt" stroke-miterlimit="10" stroke-linejoin="miter" fill="none" stroke="#ff0000" d="M67.75705 36.65704 71.72823 38.75777"/>
<path transform="matrix(1.00006,0,0,-1.00002,2.0959855,162.92694)" stroke-width=".3985" stroke-linecap="butt" stroke-miterlimit="10" stroke-linejoin="miter" fill="none" stroke="#ff0000" d="M81.30846 36.65704 85.81717 37.84961"/>
<path transform="matrix(1.00006,0,0,-1.00002,2.0959855,162.92694)" stroke-width=".3985" stroke-linecap="butt" stroke-miterlimit="10" stroke-linejoin="miter" fill="none" stroke="#ff0000" d="M94.85986 36.65704 99.60289 36.65709"/>
<path transform="matrix(1.00006,0,0,-1.00002,2.0959855,162.92694)" stroke-width=".3985" stroke-linecap="butt" stroke-miterlimit="10" stroke-linejoin="miter" fill="none" stroke="#ff0000" d="M108.41129 36.65704 112.92009 35.46455"/>
<path transform="matrix(1.00006,0,0,-1.00002,2.0959855,162.92694)" stroke-width=".3985" stroke-linecap="butt" stroke-miterlimit="10" stroke-linejoin="miter" fill="none" stroke="#ff0000" d="M121.96269 36.65704 125.93393 34.55635"/>
<path transform="matrix(1.00006,0,0,-1.00002,2.0959855,162.92694)" stroke-width=".3985" stroke-linecap="butt" stroke-miterlimit="10" stroke-linejoin="miter" fill="none" stroke="#ff0000" d="M135.5141 36.65704 138.90238 33.96858"/>
<path transform="matrix(1.00006,0,0,-1.00002,2.0959855,162.92694)" stroke-width=".3985" stroke-linecap="butt" stroke-miterlimit="10" stroke-linejoin="miter" fill="none" stroke="#ff0000" d="M149.06552 36.65704 151.94895 33.60663"/>
<path transform="matrix(1.00006,0,0,-1.00002,2.0959855,162.92694)" stroke-width=".3985" stroke-linecap="butt" stroke-miterlimit="10" stroke-linejoin="miter" fill="none" stroke="#ff0000" d="M162.61695 36.65704 165.0943 33.3809"/>
<path transform="matrix(1.00006,0,0,-1.00002,2.0959855,162.92694)" stroke-width=".3985" stroke-linecap="butt" stroke-miterlimit="10" stroke-linejoin="miter" fill="none" stroke="#ff0000" d="M176.16835 36.65704 178.32462 33.23515"/>
<path transform="matrix(1.00006,0,0,-1.00002,2.0959855,162.92694)" stroke-width=".3985" stroke-linecap="butt" stroke-miterlimit="10" stroke-linejoin="miter" fill="none" stroke="#ff0000" d="M189.71976 36.65704 191.62085 33.13727"/>
<path transform="matrix(1.00006,0,0,-1.00002,2.0959855,162.92694)" stroke-width=".3985" stroke-linecap="butt" stroke-miterlimit="10" stroke-linejoin="miter" fill="none" stroke="#ff0000" d="M0 47.63368 2.3899 50.9522"/>
<path transform="matrix(1.00006,0,0,-1.00002,2.0959855,162.92694)" stroke-width=".3985" stroke-linecap="butt" stroke-miterlimit="10" stroke-linejoin="miter" fill="none" stroke="#ff0000" d="M13.5514 47.63368 16.21991 50.80981"/>
<path transform="matrix(1.00006,0,0,-1.00002,2.0959855,162.92694)" stroke-width=".3985" stroke-linecap="butt" stroke-miterlimit="10" stroke-linejoin="miter" fill="none" stroke="#ff0000" d="M27.10281 47.63368 30.10286 50.60936"/>
<path transform="matrix(1.00006,0,0,-1.00002,2.0959855,162.92694)" stroke-width=".3985" stroke-linecap="butt" stroke-miterlimit="10" stroke-linejoin="miter" fill="none" stroke="#ff0000" d="M40.65422 47.63368 44.04243 50.32219"/>
<path transform="matrix(1.00006,0,0,-1.00002,2.0959855,162.92694)" stroke-width=".3985" stroke-linecap="butt" stroke-miterlimit="10" stroke-linejoin="miter" fill="none" stroke="#ff0000" d="M54.20563 47.63368 58.02803 49.9084"/>
<path transform="matrix(1.00006,0,0,-1.00002,2.0959855,162.92694)" stroke-width=".3985" stroke-linecap="butt" stroke-miterlimit="10" stroke-linejoin="miter" fill="none" stroke="#ff0000" d="M67.75705 47.63368 72.0166 49.32364"/>
<path transform="matrix(1.00006,0,0,-1.00002,2.0959855,162.92694)" stroke-width=".3985" stroke-linecap="butt" stroke-miterlimit="10" stroke-linejoin="miter" fill="none" stroke="#ff0000" d="M81.30846 47.63368 85.91536 48.54758"/>
<path transform="matrix(1.00006,0,0,-1.00002,2.0959855,162.92694)" stroke-width=".3985" stroke-linecap="butt" stroke-miterlimit="10" stroke-linejoin="miter" fill="none" stroke="#ff0000" d="M94.85986 47.63368 99.60289 47.63371"/>
<path transform="matrix(1.00006,0,0,-1.00002,2.0959855,162.92694)" stroke-width=".3985" stroke-linecap="butt" stroke-miterlimit="10" stroke-linejoin="miter" fill="none" stroke="#ff0000" d="M108.41129 47.63368 113.01822 46.71985"/>
<path transform="matrix(1.00006,0,0,-1.00002,2.0959855,162.92694)" stroke-width=".3985" stroke-linecap="butt" stroke-miterlimit="10" stroke-linejoin="miter" fill="none" stroke="#ff0000" d="M121.96269 47.63368 126.22235 45.94377"/>
<path transform="matrix(1.00006,0,0,-1.00002,2.0959855,162.92694)" stroke-width=".3985" stroke-linecap="butt" stroke-miterlimit="10" stroke-linejoin="miter" fill="none" stroke="#ff0000" d="M135.5141 47.63368 139.3365 45.35902"/>
<path transform="matrix(1.00006,0,0,-1.00002,2.0959855,162.92694)" stroke-width=".3985" stroke-linecap="butt" stroke-miterlimit="10" stroke-linejoin="miter" fill="none" stroke="#ff0000" d="M149.06552 47.63368 152.4538 44.9452"/>
<path transform="matrix(1.00006,0,0,-1.00002,2.0959855,162.92694)" stroke-width=".3985" stroke-linecap="butt" stroke-miterlimit="10" stroke-linejoin="miter" fill="none" stroke="#ff0000" d="M162.61695 47.63368 165.61708 44.65802"/>
<path transform="matrix(1.00006,0,0,-1.00002,2.0959855,162.92694)" stroke-width=".3985" stroke-linecap="butt" stroke-miterlimit="10" stroke-linejoin="miter" fill="none" stroke="#ff0000" d="M176.16835 47.63368 178.83686 44.45763"/>
<path transform="matrix(1.00006,0,0,-1.00002,2.0959855,162.92694)" stroke-width=".3985" stroke-linecap="butt" stroke-miterlimit="10" stroke-linejoin="miter" fill="none" stroke="#ff0000" d="M189.71976 47.63368 192.10967 44.31517"/>
<path transform="matrix(1.00006,0,0,-1.00002,2.0959855,162.92694)" stroke-width=".3985" stroke-linecap="butt" stroke-miterlimit="10" stroke-linejoin="miter" fill="none" stroke="#ff0000" d="M0 58.61032 3.12332 61.5017"/>
<path transform="matrix(1.00006,0,0,-1.00002,2.0959855,162.92694)" stroke-width=".3985" stroke-linecap="butt" stroke-miterlimit="10" stroke-linejoin="miter" fill="none" stroke="#ff0000" d="M13.5514 58.61032 16.93962 61.29884"/>
<path transform="matrix(1.00006,0,0,-1.00002,2.0959855,162.92694)" stroke-width=".3985" stroke-linecap="butt" stroke-miterlimit="10" stroke-linejoin="miter" fill="none" stroke="#ff0000" d="M27.10281 58.61032 30.77695 61.03987"/>
<path transform="matrix(1.00006,0,0,-1.00002,2.0959855,162.92694)" stroke-width=".3985" stroke-linecap="butt" stroke-miterlimit="10" stroke-linejoin="miter" fill="none" stroke="#ff0000" d="M40.65422 58.61032 44.6254 60.71107"/>
<path transform="matrix(1.00006,0,0,-1.00002,2.0959855,162.92694)" stroke-width=".3985" stroke-linecap="butt" stroke-miterlimit="10" stroke-linejoin="miter" fill="none" stroke="#ff0000" d="M54.20563 58.61032 58.4652 60.30028"/>
<path transform="matrix(1.00006,0,0,-1.00002,2.0959855,162.92694)" stroke-width=".3985" stroke-linecap="butt" stroke-miterlimit="10" stroke-linejoin="miter" fill="none" stroke="#ff0000" d="M67.75705 58.61032 72.26585 59.80289"/>
<path transform="matrix(1.00006,0,0,-1.00002,2.0959855,162.92694)" stroke-width=".3985" stroke-linecap="butt" stroke-miterlimit="10" stroke-linejoin="miter" fill="none" stroke="#ff0000" d="M81.30846 58.61032 85.98958 59.22942"/>
<path transform="matrix(1.00006,0,0,-1.00002,2.0959855,162.92694)" stroke-width=".3985" stroke-linecap="butt" stroke-miterlimit="10" stroke-linejoin="miter" fill="none" stroke="#ff0000" d="M94.85986 58.61032 99.60289 58.61035"/>
<path transform="matrix(1.00006,0,0,-1.00002,2.0959855,162.92694)" stroke-width=".3985" stroke-linecap="butt" stroke-miterlimit="10" stroke-linejoin="miter" fill="none" stroke="#ff0000" d="M108.41129 58.61032 113.0924 57.9913"/>
<path transform="matrix(1.00006,0,0,-1.00002,2.0959855,162.92694)" stroke-width=".3985" stroke-linecap="butt" stroke-miterlimit="10" stroke-linejoin="miter" fill="none" stroke="#ff0000" d="M121.96269 58.61032 126.4715 57.41782"/>
<path transform="matrix(1.00006,0,0,-1.00002,2.0959855,162.92694)" stroke-width=".3985" stroke-linecap="butt" stroke-miterlimit="10" stroke-linejoin="miter" fill="none" stroke="#ff0000" d="M135.5141 58.61032 139.77367 56.92041"/>
<path transform="matrix(1.00006,0,0,-1.00002,2.0959855,162.92694)" stroke-width=".3985" stroke-linecap="butt" stroke-miterlimit="10" stroke-linejoin="miter" fill="none" stroke="#ff0000" d="M149.06552 58.61032 153.03675 56.50963"/>
<path transform="matrix(1.00006,0,0,-1.00002,2.0959855,162.92694)" stroke-width=".3985" stroke-linecap="butt" stroke-miterlimit="10" stroke-linejoin="miter" fill="none" stroke="#ff0000" d="M162.61695 58.61032 166.29116 56.1808"/>
<path transform="matrix(1.00006,0,0,-1.00002,2.0959855,162.92694)" stroke-width=".3985" stroke-linecap="butt" stroke-miterlimit="10" stroke-linejoin="miter" fill="none" stroke="#ff0000" d="M176.16835 58.61032 179.55657 55.92186"/>
<path transform="matrix(1.00006,0,0,-1.00002,2.0959855,162.92694)" stroke-width=".3985" stroke-linecap="butt" stroke-miterlimit="10" stroke-linejoin="miter" fill="none" stroke="#ff0000" d="M189.71976 58.61032 192.84308 55.71895"/>
<path transform="matrix(1.00006,0,0,-1.00002,2.0959855,162.92694)" stroke-width=".3985" stroke-linecap="butt" stroke-miterlimit="10" stroke-linejoin="miter" fill="none" stroke="#ff0000" d="M0 69.58698 4.11815 71.49315"/>
<path transform="matrix(1.00006,0,0,-1.00002,2.0959855,162.92694)" stroke-width=".3985" stroke-linecap="butt" stroke-miterlimit="10" stroke-linejoin="miter" fill="none" stroke="#ff0000" d="M13.5514 69.58698 17.81094 71.27695"/>
<path transform="matrix(1.00006,0,0,-1.00002,2.0959855,162.92694)" stroke-width=".3985" stroke-linecap="butt" stroke-miterlimit="10" stroke-linejoin="miter" fill="none" stroke="#ff0000" d="M27.10281 69.58698 31.49417 71.03885"/>
<path transform="matrix(1.00006,0,0,-1.00002,2.0959855,162.92694)" stroke-width=".3985" stroke-linecap="butt" stroke-miterlimit="10" stroke-linejoin="miter" fill="none" stroke="#ff0000" d="M40.65422 69.58698 45.16293 70.77956"/>
<path transform="matrix(1.00006,0,0,-1.00002,2.0959855,162.92694)" stroke-width=".3985" stroke-linecap="butt" stroke-miterlimit="10" stroke-linejoin="miter" fill="none" stroke="#ff0000" d="M54.20563 69.58698 58.81253 70.50087"/>
<path transform="matrix(1.00006,0,0,-1.00002,2.0959855,162.92694)" stroke-width=".3985" stroke-linecap="butt" stroke-miterlimit="10" stroke-linejoin="miter" fill="none" stroke="#ff0000" d="M67.75705 69.58698 72.43817 70.20604"/>
<path transform="matrix(1.00006,0,0,-1.00002,2.0959855,162.92694)" stroke-width=".3985" stroke-linecap="butt" stroke-miterlimit="10" stroke-linejoin="miter" fill="none" stroke="#ff0000" d="M81.30846 69.58698 86.03577 69.89958"/>
<path transform="matrix(1.00006,0,0,-1.00002,2.0959855,162.92694)" stroke-width=".3985" stroke-linecap="butt" stroke-miterlimit="10" stroke-linejoin="miter" fill="none" stroke="#ff0000" d="M94.85986 69.58698 99.60289 69.58699"/>
<path transform="matrix(1.00006,0,0,-1.00002,2.0959855,162.92694)" stroke-width=".3985" stroke-linecap="butt" stroke-miterlimit="10" stroke-linejoin="miter" fill="none" stroke="#ff0000" d="M108.41129 69.58698 113.13861 69.27438"/>
<path transform="matrix(1.00006,0,0,-1.00002,2.0959855,162.92694)" stroke-width=".3985" stroke-linecap="butt" stroke-miterlimit="10" stroke-linejoin="miter" fill="none" stroke="#ff0000" d="M121.96269 69.58698 126.64381 68.96793"/>
<path transform="matrix(1.00006,0,0,-1.00002,2.0959855,162.92694)" stroke-width=".3985" stroke-linecap="butt" stroke-miterlimit="10" stroke-linejoin="miter" fill="none" stroke="#ff0000" d="M135.5141 69.58698 140.121 68.67311"/>
<path transform="matrix(1.00006,0,0,-1.00002,2.0959855,162.92694)" stroke-width=".3985" stroke-linecap="butt" stroke-miterlimit="10" stroke-linejoin="miter" fill="none" stroke="#ff0000" d="M149.06552 69.58698 153.57433 68.39442"/>
<path transform="matrix(1.00006,0,0,-1.00002,2.0959855,162.92694)" stroke-width=".3985" stroke-linecap="butt" stroke-miterlimit="10" stroke-linejoin="miter" fill="none" stroke="#ff0000" d="M162.61695 69.58698 167.0083 68.1351"/>
<path transform="matrix(1.00006,0,0,-1.00002,2.0959855,162.92694)" stroke-width=".3985" stroke-linecap="butt" stroke-miterlimit="10" stroke-linejoin="miter" fill="none" stroke="#ff0000" d="M176.16835 69.58698 180.42792 67.89703"/>
<path transform="matrix(1.00006,0,0,-1.00002,2.0959855,162.92694)" stroke-width=".3985" stroke-linecap="butt" stroke-miterlimit="10" stroke-linejoin="miter" fill="none" stroke="#ff0000" d="M189.71976 69.58698 193.83792 67.68085"/>
<path transform="matrix(1.00006,0,0,-1.00002,2.0959855,162.92694)" stroke-width=".3985" stroke-linecap="butt" stroke-miterlimit="10" stroke-linejoin="miter" fill="none" stroke="#ff0000" d="M0 80.56363 4.74301 80.56369"/>
<path transform="matrix(1.00006,0,0,-1.00002,2.0959855,162.92694)" stroke-width=".3985" stroke-linecap="butt" stroke-miterlimit="10" stroke-linejoin="miter" fill="none" stroke="#ff0000" d="M13.5514 80.56363 18.29442 80.56367"/>
<path transform="matrix(1.00006,0,0,-1.00002,2.0959855,162.92694)" stroke-width=".3985" stroke-linecap="butt" stroke-miterlimit="10" stroke-linejoin="miter" fill="none" stroke="#ff0000" d="M27.10281 80.56363 31.84583 80.56367"/>
<path transform="matrix(1.00006,0,0,-1.00002,2.0959855,162.92694)" stroke-width=".3985" stroke-linecap="butt" stroke-miterlimit="10" stroke-linejoin="miter" fill="none" stroke="#ff0000" d="M40.65422 80.56363 45.39723 80.56367"/>
<path transform="matrix(1.00006,0,0,-1.00002,2.0959855,162.92694)" stroke-width=".3985" stroke-linecap="butt" stroke-miterlimit="10" stroke-linejoin="miter" fill="none" stroke="#ff0000" d="M54.20563 80.56363 58.94864 80.56366"/>
<path transform="matrix(1.00006,0,0,-1.00002,2.0959855,162.92694)" stroke-width=".3985" stroke-linecap="butt" stroke-miterlimit="10" stroke-linejoin="miter" fill="none" stroke="#ff0000" d="M67.75705 80.56363 72.50006 80.56364"/>
<path transform="matrix(1.00006,0,0,-1.00002,2.0959855,162.92694)" stroke-width=".3985" stroke-linecap="butt" stroke-miterlimit="10" stroke-linejoin="miter" fill="none" stroke="#ff0000" d="M81.30846 80.56363H86.05147"/>
<path transform="matrix(1.00006,0,0,-1.00002,2.0959855,162.92694)" stroke-width=".3985" stroke-linecap="butt" stroke-miterlimit="10" stroke-linejoin="miter" fill="none" stroke="#ff0000" d="M94.85986 80.56363H99.60289"/>
<path transform="matrix(1.00006,0,0,-1.00002,2.0959855,162.92694)" stroke-width=".3985" stroke-linecap="butt" stroke-miterlimit="10" stroke-linejoin="miter" fill="none" stroke="#ff0000" d="M108.41129 80.56363 113.15431 80.56361"/>
<path transform="matrix(1.00006,0,0,-1.00002,2.0959855,162.92694)" stroke-width=".3985" stroke-linecap="butt" stroke-miterlimit="10" stroke-linejoin="miter" fill="none" stroke="#ff0000" d="M121.96269 80.56363 126.70572 80.5636"/>
<path transform="matrix(1.00006,0,0,-1.00002,2.0959855,162.92694)" stroke-width=".3985" stroke-linecap="butt" stroke-miterlimit="10" stroke-linejoin="miter" fill="none" stroke="#ff0000" d="M135.5141 80.56363 140.25713 80.5636"/>
<path transform="matrix(1.00006,0,0,-1.00002,2.0959855,162.92694)" stroke-width=".3985" stroke-linecap="butt" stroke-miterlimit="10" stroke-linejoin="miter" fill="none" stroke="#ff0000" d="M149.06552 80.56363 153.80854 80.56358"/>
<path transform="matrix(1.00006,0,0,-1.00002,2.0959855,162.92694)" stroke-width=".3985" stroke-linecap="butt" stroke-miterlimit="10" stroke-linejoin="miter" fill="none" stroke="#ff0000" d="M162.61695 80.56363 167.35996 80.56357"/>
<path transform="matrix(1.00006,0,0,-1.00002,2.0959855,162.92694)" stroke-width=".3985" stroke-linecap="butt" stroke-miterlimit="10" stroke-linejoin="miter" fill="none" stroke="#ff0000" d="M176.16835 80.56363 180.91136 80.56357"/>
<path transform="matrix(1.00006,0,0,-1.00002,2.0959855,162.92694)" stroke-width=".3985" stroke-linecap="butt" stroke-miterlimit="10" stroke-linejoin="miter" fill="none" stroke="#ff0000" d="M189.71976 80.56363 194.46277 80.56355"/>
<path transform="matrix(1.00006,0,0,-1.00002,2.0959855,162.92694)" stroke-width=".3985" stroke-linecap="butt" stroke-miterlimit="10" stroke-linejoin="miter" fill="none" stroke="#ff0000" d="M0 91.54027 4.11821 89.6342"/>
<path transform="matrix(1.00006,0,0,-1.00002,2.0959855,162.92694)" stroke-width=".3985" stroke-linecap="butt" stroke-miterlimit="10" stroke-linejoin="miter" fill="none" stroke="#ff0000" d="M13.5514 91.54027 17.81105 89.85039"/>
<path transform="matrix(1.00006,0,0,-1.00002,2.0959855,162.92694)" stroke-width=".3985" stroke-linecap="butt" stroke-miterlimit="10" stroke-linejoin="miter" fill="none" stroke="#ff0000" d="M27.10281 91.54027 31.49422 90.08846"/>
<path transform="matrix(1.00006,0,0,-1.00002,2.0959855,162.92694)" stroke-width=".3985" stroke-linecap="butt" stroke-miterlimit="10" stroke-linejoin="miter" fill="none" stroke="#ff0000" d="M40.65422 91.54027 45.16302 90.34776"/>
<path transform="matrix(1.00006,0,0,-1.00002,2.0959855,162.92694)" stroke-width=".3985" stroke-linecap="butt" stroke-miterlimit="10" stroke-linejoin="miter" fill="none" stroke="#ff0000" d="M54.20563 91.54027 58.81258 90.62642"/>
<path transform="matrix(1.00006,0,0,-1.00002,2.0959855,162.92694)" stroke-width=".3985" stroke-linecap="butt" stroke-miterlimit="10" stroke-linejoin="miter" fill="none" stroke="#ff0000" d="M67.75705 91.54027 72.43817 90.92123"/>
<path transform="matrix(1.00006,0,0,-1.00002,2.0959855,162.92694)" stroke-width=".3985" stroke-linecap="butt" stroke-miterlimit="10" stroke-linejoin="miter" fill="none" stroke="#ff0000" d="M81.30846 91.54027 86.03577 91.22769"/>
<path transform="matrix(1.00006,0,0,-1.00002,2.0959855,162.92694)" stroke-width=".3985" stroke-linecap="butt" stroke-miterlimit="10" stroke-linejoin="miter" fill="none" stroke="#ff0000" d="M94.85986 91.54027 99.60289 91.54025"/>
<path transform="matrix(1.00006,0,0,-1.00002,2.0959855,162.92694)" stroke-width=".3985" stroke-linecap="butt" stroke-miterlimit="10" stroke-linejoin="miter" fill="none" stroke="#ff0000" d="M108.41129 91.54027 113.13861 91.85283"/>
<path transform="matrix(1.00006,0,0,-1.00002,2.0959855,162.92694)" stroke-width=".3985" stroke-linecap="butt" stroke-miterlimit="10" stroke-linejoin="miter" fill="none" stroke="#ff0000" d="M121.96269 91.54027 126.64381 92.15929"/>
<path transform="matrix(1.00006,0,0,-1.00002,2.0959855,162.92694)" stroke-width=".3985" stroke-linecap="butt" stroke-miterlimit="10" stroke-linejoin="miter" fill="none" stroke="#ff0000" d="M135.5141 91.54027 140.12105 92.45407"/>
<path transform="matrix(1.00006,0,0,-1.00002,2.0959855,162.92694)" stroke-width=".3985" stroke-linecap="butt" stroke-miterlimit="10" stroke-linejoin="miter" fill="none" stroke="#ff0000" d="M149.06552 91.54027 153.57433 92.73274"/>
<path transform="matrix(1.00006,0,0,-1.00002,2.0959855,162.92694)" stroke-width=".3985" stroke-linecap="butt" stroke-miterlimit="10" stroke-linejoin="miter" fill="none" stroke="#ff0000" d="M162.61695 91.54027 167.00835 92.99203"/>
<path transform="matrix(1.00006,0,0,-1.00002,2.0959855,162.92694)" stroke-width=".3985" stroke-linecap="butt" stroke-miterlimit="10" stroke-linejoin="miter" fill="none" stroke="#ff0000" d="M176.16835 91.54027 180.42801 93.23012"/>
<path transform="matrix(1.00006,0,0,-1.00002,2.0959855,162.92694)" stroke-width=".3985" stroke-linecap="butt" stroke-miterlimit="10" stroke-linejoin="miter" fill="none" stroke="#ff0000" d="M189.71976 91.54027 193.83797 93.4463"/>
<path transform="matrix(1.00006,0,0,-1.00002,2.0959855,162.92694)" stroke-width=".3985" stroke-linecap="butt" stroke-miterlimit="10" stroke-linejoin="miter" fill="none" stroke="#ff0000" d="M0 102.5169 3.12335 99.62561"/>
<path transform="matrix(1.00006,0,0,-1.00002,2.0959855,162.92694)" stroke-width=".3985" stroke-linecap="butt" stroke-miterlimit="10" stroke-linejoin="miter" fill="none" stroke="#ff0000" d="M13.5514 102.5169 16.93967 99.82845"/>
<path transform="matrix(1.00006,0,0,-1.00002,2.0959855,162.92694)" stroke-width=".3985" stroke-linecap="butt" stroke-miterlimit="10" stroke-linejoin="miter" fill="none" stroke="#ff0000" d="M27.10281 102.5169 30.77704 100.08742"/>
<path transform="matrix(1.00006,0,0,-1.00002,2.0959855,162.92694)" stroke-width=".3985" stroke-linecap="butt" stroke-miterlimit="10" stroke-linejoin="miter" fill="none" stroke="#ff0000" d="M40.65422 102.5169 44.62544 100.41621"/>
<path transform="matrix(1.00006,0,0,-1.00002,2.0959855,162.92694)" stroke-width=".3985" stroke-linecap="butt" stroke-miterlimit="10" stroke-linejoin="miter" fill="none" stroke="#ff0000" d="M54.20563 102.5169 58.4653 100.827"/>
<path transform="matrix(1.00006,0,0,-1.00002,2.0959855,162.92694)" stroke-width=".3985" stroke-linecap="butt" stroke-miterlimit="10" stroke-linejoin="miter" fill="none" stroke="#ff0000" d="M67.75705 102.5169 72.26585 101.32439"/>
<path transform="matrix(1.00006,0,0,-1.00002,2.0959855,162.92694)" stroke-width=".3985" stroke-linecap="butt" stroke-miterlimit="10" stroke-linejoin="miter" fill="none" stroke="#ff0000" d="M81.30846 102.5169 85.98958 101.89786"/>
<path transform="matrix(1.00006,0,0,-1.00002,2.0959855,162.92694)" stroke-width=".3985" stroke-linecap="butt" stroke-miterlimit="10" stroke-linejoin="miter" fill="none" stroke="#ff0000" d="M94.85986 102.5169 99.60289 102.51689"/>
<path transform="matrix(1.00006,0,0,-1.00002,2.0959855,162.92694)" stroke-width=".3985" stroke-linecap="butt" stroke-miterlimit="10" stroke-linejoin="miter" fill="none" stroke="#ff0000" d="M108.41129 102.5169 113.0924 103.13591"/>
<path transform="matrix(1.00006,0,0,-1.00002,2.0959855,162.92694)" stroke-width=".3985" stroke-linecap="butt" stroke-miterlimit="10" stroke-linejoin="miter" fill="none" stroke="#ff0000" d="M121.96269 102.5169 126.4715 103.7094"/>
<path transform="matrix(1.00006,0,0,-1.00002,2.0959855,162.92694)" stroke-width=".3985" stroke-linecap="butt" stroke-miterlimit="10" stroke-linejoin="miter" fill="none" stroke="#ff0000" d="M135.5141 102.5169 139.77376 104.20677"/>
<path transform="matrix(1.00006,0,0,-1.00002,2.0959855,162.92694)" stroke-width=".3985" stroke-linecap="butt" stroke-miterlimit="10" stroke-linejoin="miter" fill="none" stroke="#ff0000" d="M149.06552 102.5169 153.03685 104.61755"/>
<path transform="matrix(1.00006,0,0,-1.00002,2.0959855,162.92694)" stroke-width=".3985" stroke-linecap="butt" stroke-miterlimit="10" stroke-linejoin="miter" fill="none" stroke="#ff0000" d="M162.61695 102.5169 166.2912 104.9464"/>
<path transform="matrix(1.00006,0,0,-1.00002,2.0959855,162.92694)" stroke-width=".3985" stroke-linecap="butt" stroke-miterlimit="10" stroke-linejoin="miter" fill="none" stroke="#ff0000" d="M176.16835 102.5169 179.5567 105.20534"/>
<path transform="matrix(1.00006,0,0,-1.00002,2.0959855,162.92694)" stroke-width=".3985" stroke-linecap="butt" stroke-miterlimit="10" stroke-linejoin="miter" fill="none" stroke="#ff0000" d="M189.71976 102.5169 192.84313 105.4082"/>
<path transform="matrix(1.00006,0,0,-1.00002,2.0959855,162.92694)" stroke-width=".3985" stroke-linecap="butt" stroke-miterlimit="10" stroke-linejoin="miter" fill="none" stroke="#ff0000" d="M0 113.49356 2.3899 110.17503"/>
<path transform="matrix(1.00006,0,0,-1.00002,2.0959855,162.92694)" stroke-width=".3985" stroke-linecap="butt" stroke-miterlimit="10" stroke-linejoin="miter" fill="none" stroke="#ff0000" d="M13.5514 113.49356 16.22 110.31749"/>
<path transform="matrix(1.00006,0,0,-1.00002,2.0959855,162.92694)" stroke-width=".3985" stroke-linecap="butt" stroke-miterlimit="10" stroke-linejoin="miter" fill="none" stroke="#ff0000" d="M27.10281 113.49356 30.10295 110.51788"/>
<path transform="matrix(1.00006,0,0,-1.00002,2.0959855,162.92694)" stroke-width=".3985" stroke-linecap="butt" stroke-miterlimit="10" stroke-linejoin="miter" fill="none" stroke="#ff0000" d="M40.65422 113.49356 44.04248 110.80508"/>
<path transform="matrix(1.00006,0,0,-1.00002,2.0959855,162.92694)" stroke-width=".3985" stroke-linecap="butt" stroke-miterlimit="10" stroke-linejoin="miter" fill="none" stroke="#ff0000" d="M54.20563 113.49356 58.02803 111.21887"/>
<path transform="matrix(1.00006,0,0,-1.00002,2.0959855,162.92694)" stroke-width=".3985" stroke-linecap="butt" stroke-miterlimit="10" stroke-linejoin="miter" fill="none" stroke="#ff0000" d="M67.75705 113.49356 72.0166 111.80362"/>
<path transform="matrix(1.00006,0,0,-1.00002,2.0959855,162.92694)" stroke-width=".3985" stroke-linecap="butt" stroke-miterlimit="10" stroke-linejoin="miter" fill="none" stroke="#ff0000" d="M81.30846 113.49356 85.91536 112.57967"/>
<path transform="matrix(1.00006,0,0,-1.00002,2.0959855,162.92694)" stroke-width=".3985" stroke-linecap="butt" stroke-miterlimit="10" stroke-linejoin="miter" fill="none" stroke="#ff0000" d="M94.85986 113.49356 99.60289 113.49353"/>
<path transform="matrix(1.00006,0,0,-1.00002,2.0959855,162.92694)" stroke-width=".3985" stroke-linecap="butt" stroke-miterlimit="10" stroke-linejoin="miter" fill="none" stroke="#ff0000" d="M108.41129 113.49356 113.01822 114.40736"/>
<path transform="matrix(1.00006,0,0,-1.00002,2.0959855,162.92694)" stroke-width=".3985" stroke-linecap="butt" stroke-miterlimit="10" stroke-linejoin="miter" fill="none" stroke="#ff0000" d="M121.96269 113.49356 126.22235 115.18343"/>
<path transform="matrix(1.00006,0,0,-1.00002,2.0959855,162.92694)" stroke-width=".3985" stroke-linecap="butt" stroke-miterlimit="10" stroke-linejoin="miter" fill="none" stroke="#ff0000" d="M135.5141 113.49356 139.3365 115.7682"/>
<path transform="matrix(1.00006,0,0,-1.00002,2.0959855,162.92694)" stroke-width=".3985" stroke-linecap="butt" stroke-miterlimit="10" stroke-linejoin="miter" fill="none" stroke="#ff0000" d="M149.06552 113.49356 152.45389 116.18199"/>
<path transform="matrix(1.00006,0,0,-1.00002,2.0959855,162.92694)" stroke-width=".3985" stroke-linecap="butt" stroke-miterlimit="10" stroke-linejoin="miter" fill="none" stroke="#ff0000" d="M162.61695 113.49356 165.61713 116.46921"/>
<path transform="matrix(1.00006,0,0,-1.00002,2.0959855,162.92694)" stroke-width=".3985" stroke-linecap="butt" stroke-miterlimit="10" stroke-linejoin="miter" fill="none" stroke="#ff0000" d="M176.16835 113.49356 178.83695 116.6696"/>
<path transform="matrix(1.00006,0,0,-1.00002,2.0959855,162.92694)" stroke-width=".3985" stroke-linecap="butt" stroke-miterlimit="10" stroke-linejoin="miter" fill="none" stroke="#ff0000" d="M189.71976 113.49356 192.10967 116.81206"/>
<path transform="matrix(1.00006,0,0,-1.00002,2.0959855,162.92694)" stroke-width=".3985" stroke-linecap="butt" stroke-miterlimit="10" stroke-linejoin="miter" fill="none" stroke="#ff0000" d="M0 124.47018 1.90112 120.95041"/>
<path transform="matrix(1.00006,0,0,-1.00002,2.0959855,162.92694)" stroke-width=".3985" stroke-linecap="butt" stroke-miterlimit="10" stroke-linejoin="miter" fill="none" stroke="#ff0000" d="M13.5514 124.47018 15.70775 121.04826"/>
<path transform="matrix(1.00006,0,0,-1.00002,2.0959855,162.92694)" stroke-width=".3985" stroke-linecap="butt" stroke-miterlimit="10" stroke-linejoin="miter" fill="none" stroke="#ff0000" d="M27.10281 124.47018 29.58017 121.19408"/>
<path transform="matrix(1.00006,0,0,-1.00002,2.0959855,162.92694)" stroke-width=".3985" stroke-linecap="butt" stroke-miterlimit="10" stroke-linejoin="miter" fill="none" stroke="#ff0000" d="M40.65422 124.47018 43.53764 121.41977"/>
<path transform="matrix(1.00006,0,0,-1.00002,2.0959855,162.92694)" stroke-width=".3985" stroke-linecap="butt" stroke-miterlimit="10" stroke-linejoin="miter" fill="none" stroke="#ff0000" d="M54.20563 124.47018 57.5939 121.78172"/>
<path transform="matrix(1.00006,0,0,-1.00002,2.0959855,162.92694)" stroke-width=".3985" stroke-linecap="butt" stroke-miterlimit="10" stroke-linejoin="miter" fill="none" stroke="#ff0000" d="M67.75705 124.47018 71.72827 122.36949"/>
<path transform="matrix(1.00006,0,0,-1.00002,2.0959855,162.92694)" stroke-width=".3985" stroke-linecap="butt" stroke-miterlimit="10" stroke-linejoin="miter" fill="none" stroke="#ff0000" d="M81.30846 124.47018 85.81728 123.27763"/>
<path transform="matrix(1.00006,0,0,-1.00002,2.0959855,162.92694)" stroke-width=".3985" stroke-linecap="butt" stroke-miterlimit="10" stroke-linejoin="miter" fill="none" stroke="#ff0000" d="M94.85986 124.47018 99.60289 124.47015"/>
<path transform="matrix(1.00006,0,0,-1.00002,2.0959855,162.92694)" stroke-width=".3985" stroke-linecap="butt" stroke-miterlimit="10" stroke-linejoin="miter" fill="none" stroke="#ff0000" d="M108.41129 124.47018 112.92009 125.66267"/>
<path transform="matrix(1.00006,0,0,-1.00002,2.0959855,162.92694)" stroke-width=".3985" stroke-linecap="butt" stroke-miterlimit="10" stroke-linejoin="miter" fill="none" stroke="#ff0000" d="M121.96269 124.47018 125.93404 126.57085"/>
<path transform="matrix(1.00006,0,0,-1.00002,2.0959855,162.92694)" stroke-width=".3985" stroke-linecap="butt" stroke-miterlimit="10" stroke-linejoin="miter" fill="none" stroke="#ff0000" d="M135.5141 124.47018 138.90248 127.15865"/>
<path transform="matrix(1.00006,0,0,-1.00002,2.0959855,162.92694)" stroke-width=".3985" stroke-linecap="butt" stroke-miterlimit="10" stroke-linejoin="miter" fill="none" stroke="#ff0000" d="M149.06552 124.47018 151.94895 127.52061"/>
<path transform="matrix(1.00006,0,0,-1.00002,2.0959855,162.92694)" stroke-width=".3985" stroke-linecap="butt" stroke-miterlimit="10" stroke-linejoin="miter" fill="none" stroke="#ff0000" d="M162.61695 124.47018 165.0943 127.74632"/>
<path transform="matrix(1.00006,0,0,-1.00002,2.0959855,162.92694)" stroke-width=".3985" stroke-linecap="butt" stroke-miterlimit="10" stroke-linejoin="miter" fill="none" stroke="#ff0000" d="M176.16835 124.47018 178.3247 127.89212"/>
<path transform="matrix(1.00006,0,0,-1.00002,2.0959855,162.92694)" stroke-width=".3985" stroke-linecap="butt" stroke-miterlimit="10" stroke-linejoin="miter" fill="none" stroke="#ff0000" d="M189.71976 124.47018 191.6209 127.98997"/>
<path transform="matrix(1.00006,0,0,-1.00002,2.0959855,162.92694)" stroke-width=".3985" stroke-linecap="butt" stroke-miterlimit="10" stroke-linejoin="miter" fill="none" stroke="#ff0000" d="M0 135.44684 1.56685 131.8206"/>
<path transform="matrix(1.00006,0,0,-1.00002,2.0959855,162.92694)" stroke-width=".3985" stroke-linecap="butt" stroke-miterlimit="10" stroke-linejoin="miter" fill="none" stroke="#ff0000" d="M13.5514 135.44684 15.34444 131.89006"/>
<path transform="matrix(1.00006,0,0,-1.00002,2.0959855,162.92694)" stroke-width=".3985" stroke-linecap="butt" stroke-miterlimit="10" stroke-linejoin="miter" fill="none" stroke="#ff0000" d="M27.10281 135.44684 29.18983 131.99687"/>
<path transform="matrix(1.00006,0,0,-1.00002,2.0959855,162.92694)" stroke-width=".3985" stroke-linecap="butt" stroke-miterlimit="10" stroke-linejoin="miter" fill="none" stroke="#ff0000" d="M40.65422 135.44684 43.13159 132.1707"/>
<path transform="matrix(1.00006,0,0,-1.00002,2.0959855,162.92694)" stroke-width=".3985" stroke-linecap="butt" stroke-miterlimit="10" stroke-linejoin="miter" fill="none" stroke="#ff0000" d="M54.20563 135.44684 57.20578 132.47119"/>
<path transform="matrix(1.00006,0,0,-1.00002,2.0959855,162.92694)" stroke-width=".3985" stroke-linecap="butt" stroke-miterlimit="10" stroke-linejoin="miter" fill="none" stroke="#ff0000" d="M67.75705 135.44684 71.43126 133.01732"/>
<path transform="matrix(1.00006,0,0,-1.00002,2.0959855,162.92694)" stroke-width=".3985" stroke-linecap="butt" stroke-miterlimit="10" stroke-linejoin="miter" fill="none" stroke="#ff0000" d="M81.30846 135.44684 85.69983 133.99498"/>
<path transform="matrix(1.00006,0,0,-1.00002,2.0959855,162.92694)" stroke-width=".3985" stroke-linecap="butt" stroke-miterlimit="10" stroke-linejoin="miter" fill="none" stroke="#ff0000" d="M94.85986 135.44684 99.60289 135.4468"/>
<path transform="matrix(1.00006,0,0,-1.00002,2.0959855,162.92694)" stroke-width=".3985" stroke-linecap="butt" stroke-miterlimit="10" stroke-linejoin="miter" fill="none" stroke="#ff0000" d="M108.41129 135.44684 112.8027 136.8986"/>
<path transform="matrix(1.00006,0,0,-1.00002,2.0959855,162.92694)" stroke-width=".3985" stroke-linecap="butt" stroke-miterlimit="10" stroke-linejoin="miter" fill="none" stroke="#ff0000" d="M121.96269 135.44684 125.63698 137.87631"/>
<path transform="matrix(1.00006,0,0,-1.00002,2.0959855,162.92694)" stroke-width=".3985" stroke-linecap="butt" stroke-miterlimit="10" stroke-linejoin="miter" fill="none" stroke="#ff0000" d="M135.5141 135.44684 138.51432 138.4225"/>
<path transform="matrix(1.00006,0,0,-1.00002,2.0959855,162.92694)" stroke-width=".3985" stroke-linecap="butt" stroke-miterlimit="10" stroke-linejoin="miter" fill="none" stroke="#ff0000" d="M149.06552 135.44684 151.5429 138.72298"/>
<path transform="matrix(1.00006,0,0,-1.00002,2.0959855,162.92694)" stroke-width=".3985" stroke-linecap="butt" stroke-miterlimit="10" stroke-linejoin="miter" fill="none" stroke="#ff0000" d="M162.61695 135.44684 164.70401 138.89682"/>
<path transform="matrix(1.00006,0,0,-1.00002,2.0959855,162.92694)" stroke-width=".3985" stroke-linecap="butt" stroke-miterlimit="10" stroke-linejoin="miter" fill="none" stroke="#ff0000" d="M176.16835 135.44684 177.9614 139.00362"/>
<path transform="matrix(1.00006,0,0,-1.00002,2.0959855,162.92694)" stroke-width=".3985" stroke-linecap="butt" stroke-miterlimit="10" stroke-linejoin="miter" fill="none" stroke="#ff0000" d="M189.71976 135.44684 191.2867 139.07308"/>
<path transform="matrix(1.00006,0,0,-1.00002,2.0959855,162.92694)" stroke-width=".3985" stroke-linecap="butt" stroke-miterlimit="10" stroke-linejoin="miter" fill="none" stroke="#ff0000" d="M0 146.4235 1.32802 142.73535"/>
<path transform="matrix(1.00006,0,0,-1.00002,2.0959855,162.92694)" stroke-width=".3985" stroke-linecap="butt" stroke-miterlimit="10" stroke-linejoin="miter" fill="none" stroke="#ff0000" d="M13.5514 146.4235 15.0793 142.7864"/>
<path transform="matrix(1.00006,0,0,-1.00002,2.0959855,162.92694)" stroke-width=".3985" stroke-linecap="butt" stroke-miterlimit="10" stroke-linejoin="miter" fill="none" stroke="#ff0000" d="M27.10281 146.4235 28.89586 142.86672"/>
<path transform="matrix(1.00006,0,0,-1.00002,2.0959855,162.92694)" stroke-width=".3985" stroke-linecap="butt" stroke-miterlimit="10" stroke-linejoin="miter" fill="none" stroke="#ff0000" d="M40.65422 146.4235 42.81049 143.0016"/>
<path transform="matrix(1.00006,0,0,-1.00002,2.0959855,162.92694)" stroke-width=".3985" stroke-linecap="butt" stroke-miterlimit="10" stroke-linejoin="miter" fill="none" stroke="#ff0000" d="M54.20563 146.4235 56.87415 143.24744"/>
<path transform="matrix(1.00006,0,0,-1.00002,2.0959855,162.92694)" stroke-width=".3985" stroke-linecap="butt" stroke-miterlimit="10" stroke-linejoin="miter" fill="none" stroke="#ff0000" d="M67.75705 146.4235 71.14526 143.735"/>
<path transform="matrix(1.00006,0,0,-1.00002,2.0959855,162.92694)" stroke-width=".3985" stroke-linecap="butt" stroke-miterlimit="10" stroke-linejoin="miter" fill="none" stroke="#ff0000" d="M81.30846 146.4235 85.56802 144.73355"/>
<path transform="matrix(1.00006,0,0,-1.00002,2.0959855,162.92694)" stroke-width=".3985" stroke-linecap="butt" stroke-miterlimit="10" stroke-linejoin="miter" fill="none" stroke="#ff0000" d="M94.85986 146.4235 99.60289 146.42343"/>
<path transform="matrix(1.00006,0,0,-1.00002,2.0959855,162.92694)" stroke-width=".3985" stroke-linecap="butt" stroke-miterlimit="10" stroke-linejoin="miter" fill="none" stroke="#ff0000" d="M108.41129 146.4235 112.67094 148.11334"/>
<path transform="matrix(1.00006,0,0,-1.00002,2.0959855,162.92694)" stroke-width=".3985" stroke-linecap="butt" stroke-miterlimit="10" stroke-linejoin="miter" fill="none" stroke="#ff0000" d="M121.96269 146.4235 125.35106 149.11193"/>
<path transform="matrix(1.00006,0,0,-1.00002,2.0959855,162.92694)" stroke-width=".3985" stroke-linecap="butt" stroke-miterlimit="10" stroke-linejoin="miter" fill="none" stroke="#ff0000" d="M135.5141 146.4235 138.18273 149.59954"/>
<path transform="matrix(1.00006,0,0,-1.00002,2.0959855,162.92694)" stroke-width=".3985" stroke-linecap="butt" stroke-miterlimit="10" stroke-linejoin="miter" fill="none" stroke="#ff0000" d="M149.06552 146.4235 151.22188 149.84542"/>
<path transform="matrix(1.00006,0,0,-1.00002,2.0959855,162.92694)" stroke-width=".3985" stroke-linecap="butt" stroke-miterlimit="10" stroke-linejoin="miter" fill="none" stroke="#ff0000" d="M162.61695 146.4235 164.40999 149.98027"/>
<path transform="matrix(1.00006,0,0,-1.00002,2.0959855,162.92694)" stroke-width=".3985" stroke-linecap="butt" stroke-miterlimit="10" stroke-linejoin="miter" fill="none" stroke="#ff0000" d="M176.16835 146.4235 177.69626 150.06056"/>
<path transform="matrix(1.00006,0,0,-1.00002,2.0959855,162.92694)" stroke-width=".3985" stroke-linecap="butt" stroke-miterlimit="10" stroke-linejoin="miter" fill="none" stroke="#ff0000" d="M189.71976 146.4235 191.04785 150.1116"/>
<path transform="matrix(1.00006,0,0,-1.00002,2.0959855,162.92694)" stroke-width=".3985" stroke-linecap="butt" stroke-miterlimit="10" stroke-linejoin="miter" fill="none" stroke="#ff0000" d="M0 157.40012 1.15036 153.673"/>
<path transform="matrix(1.00006,0,0,-1.00002,2.0959855,162.92694)" stroke-width=".3985" stroke-linecap="butt" stroke-miterlimit="10" stroke-linejoin="miter" fill="none" stroke="#ff0000" d="M13.5514 157.40012 14.87943 153.71196"/>
<path transform="matrix(1.00006,0,0,-1.00002,2.0959855,162.92694)" stroke-width=".3985" stroke-linecap="butt" stroke-miterlimit="10" stroke-linejoin="miter" fill="none" stroke="#ff0000" d="M27.10281 157.40012 28.66966 153.77388"/>
<path transform="matrix(1.00006,0,0,-1.00002,2.0959855,162.92694)" stroke-width=".3985" stroke-linecap="butt" stroke-miterlimit="10" stroke-linejoin="miter" fill="none" stroke="#ff0000" d="M40.65422 157.40012 42.55531 153.88034"/>
<path transform="matrix(1.00006,0,0,-1.00002,2.0959855,162.92694)" stroke-width=".3985" stroke-linecap="butt" stroke-miterlimit="10" stroke-linejoin="miter" fill="none" stroke="#ff0000" d="M54.20563 157.40012 56.59555 154.08162"/>
<path transform="matrix(1.00006,0,0,-1.00002,2.0959855,162.92694)" stroke-width=".3985" stroke-linecap="butt" stroke-miterlimit="10" stroke-linejoin="miter" fill="none" stroke="#ff0000" d="M67.75705 157.40012 70.88037 154.50876"/>
<path transform="matrix(1.00006,0,0,-1.00002,2.0959855,162.92694)" stroke-width=".3985" stroke-linecap="butt" stroke-miterlimit="10" stroke-linejoin="miter" fill="none" stroke="#ff0000" d="M81.30846 157.40012 85.42664 155.49399"/>
<path transform="matrix(1.00006,0,0,-1.00002,2.0959855,162.92694)" stroke-width=".3985" stroke-linecap="butt" stroke-miterlimit="10" stroke-linejoin="miter" fill="none" stroke="#ff0000" d="M94.85986 157.40012 99.60289 157.40006"/>
<path transform="matrix(1.00006,0,0,-1.00002,2.0959855,162.92694)" stroke-width=".3985" stroke-linecap="butt" stroke-miterlimit="10" stroke-linejoin="miter" fill="none" stroke="#ff0000" d="M108.41129 157.40012 112.52951 159.30619"/>
<path transform="matrix(1.00006,0,0,-1.00002,2.0959855,162.92694)" stroke-width=".3985" stroke-linecap="butt" stroke-miterlimit="10" stroke-linejoin="miter" fill="none" stroke="#ff0000" d="M121.96269 157.40012 125.08606 160.29141"/>
<path transform="matrix(1.00006,0,0,-1.00002,2.0959855,162.92694)" stroke-width=".3985" stroke-linecap="butt" stroke-miterlimit="10" stroke-linejoin="miter" fill="none" stroke="#ff0000" d="M135.5141 157.40012 137.90402 160.71863"/>
<path transform="matrix(1.00006,0,0,-1.00002,2.0959855,162.92694)" stroke-width=".3985" stroke-linecap="butt" stroke-miterlimit="10" stroke-linejoin="miter" fill="none" stroke="#ff0000" d="M149.06552 157.40012 150.96666 160.9199"/>
<path transform="matrix(1.00006,0,0,-1.00002,2.0959855,162.92694)" stroke-width=".3985" stroke-linecap="butt" stroke-miterlimit="10" stroke-linejoin="miter" fill="none" stroke="#ff0000" d="M162.61695 157.40012 164.18389 161.02637"/>
<path transform="matrix(1.00006,0,0,-1.00002,2.0959855,162.92694)" stroke-width=".3985" stroke-linecap="butt" stroke-miterlimit="10" stroke-linejoin="miter" fill="none" stroke="#ff0000" d="M176.16835 157.40012 177.49645 161.08826"/>
<path transform="matrix(1.00006,0,0,-1.00002,2.0959855,162.92694)" stroke-width=".3985" stroke-linecap="butt" stroke-miterlimit="10" stroke-linejoin="miter" fill="none" stroke="#ff0000" d="M189.71976 157.40012 190.87014 161.12726"/>
<path transform="matrix(1.00006,0,0,-1.00002,2.0959855,162.92694)" stroke-width=".3985" stroke-linecap="butt" stroke-miterlimit="10" stroke-linejoin="miter" fill="none" stroke="#ff0000" d=""/>
</g>
<path transform="matrix(1.00006,0,0,-1.00002,2.0959855,162.92694)" stroke-width=".19925" stroke-linecap="butt" stroke-miterlimit="10" stroke-linejoin="miter" fill="none" stroke="#7f807f" d="M23.71507 79.14659V81.9814M71.14525 79.14659V81.9814M118.57542 79.14659V81.9814M166.0056 79.14659V81.9814"/>
<path transform="matrix(1.00006,0,0,-1.00002,2.0959855,162.92694)" stroke-width=".19925" stroke-linecap="butt" stroke-miterlimit="10" stroke-linejoin="miter" fill="none" stroke="#7f807f" d="M0 78.4381V82.6899M47.43016 78.4381V82.6899M142.29051 78.4381V82.6899M189.72069 78.4381V82.6899"/>
<path transform="matrix(1.00006,0,0,-1.00002,2.0959855,162.92694)" stroke-width=".19925" stroke-linecap="butt" stroke-miterlimit="10" stroke-linejoin="miter" fill="none" stroke="#7f807f" d="M93.44293 22.93633H96.27776M93.44293 61.35477H96.27776M93.44293 99.77321H96.27776M93.44293 138.19165H96.27776"/>
<path transform="matrix(1.00006,0,0,-1.00002,2.0959855,162.92694)" stroke-width=".19925" stroke-linecap="butt" stroke-miterlimit="10" stroke-linejoin="miter" fill="none" stroke="#7f807f" d="M92.73444 3.72711H96.98622M92.73444 42.14555H96.98622M92.73444 118.98242H96.98622M92.73444 157.40087H96.98622"/>
<path transform="matrix(1.00006,0,0,-1.00002,2.0959855,162.92694)" stroke-width=".3985" stroke-linecap="butt" stroke-miterlimit="10" stroke-linejoin="miter" fill="none" stroke="#000000" d="M0 80.56398H192.47025"/>
<path transform="matrix(1.00006,0,0,-1.00002,194.57776,82.36135)" d="M1.99252 0-1.19551 1.59401 0 0-1.19551-1.59401"/>
<path transform="matrix(1.00006,0,0,-1.00002,2.0959855,162.92694)" stroke-width=".3985" stroke-linecap="butt" stroke-miterlimit="10" stroke-linejoin="miter" fill="none" stroke="#000000" d="M94.86034 0V159.13474"/>
<path transform="matrix(0,-1.00002,-1.00006,-0,96.96201,3.7890168)" d="M1.99252 0-1.19551 1.59401 0 0-1.19551-1.59401"/>
<path transform="matrix(1.00006,0,0,-1.00002,2.0959855,162.92694)" stroke-width=".19925" stroke-linecap="butt" stroke-miterlimit="10" stroke-linejoin="miter" fill="none" stroke="#7f807f" d="M23.71507 79.14659V81.9814M71.14525 79.14659V81.9814M118.57542 79.14659V81.9814M166.0056 79.14659V81.9814"/>
<path transform="matrix(1.00006,0,0,-1.00002,2.0959855,162.92694)" stroke-width=".19925" stroke-linecap="butt" stroke-miterlimit="10" stroke-linejoin="miter" fill="none" stroke="#7f807f" d="M0 78.4381V82.6899M47.43016 78.4381V82.6899M142.29051 78.4381V82.6899M189.72069 78.4381V82.6899"/>
<path transform="matrix(1.00006,0,0,-1.00002,2.0959855,162.92694)" stroke-width=".19925" stroke-linecap="butt" stroke-miterlimit="10" stroke-linejoin="miter" fill="none" stroke="#7f807f" d="M93.44293 22.93633H96.27776M93.44293 61.35477H96.27776M93.44293 99.77321H96.27776M93.44293 138.19165H96.27776"/>
<path transform="matrix(1.00006,0,0,-1.00002,2.0959855,162.92694)" stroke-width=".19925" stroke-linecap="butt" stroke-miterlimit="10" stroke-linejoin="miter" fill="none" stroke="#7f807f" d="M92.73444 3.72711H96.98622M92.73444 42.14555H96.98622M92.73444 118.98242H96.98622M92.73444 157.40087H96.98622"/>
<path transform="matrix(1.00006,0,0,-1.00002,2.0959855,162.92694)" stroke-width=".3985" stroke-linecap="butt" stroke-miterlimit="10" stroke-linejoin="miter" fill="none" stroke="#000000" d="M0 80.56398H192.47025"/>
<path transform="matrix(1.00006,0,0,-1.00002,194.57776,82.36135)" d="M1.99252 0-1.19551 1.59401 0 0-1.19551-1.59401"/>
<path transform="matrix(1.00006,0,0,-1.00002,2.0959855,162.92694)" stroke-width=".3985" stroke-linecap="butt" stroke-miterlimit="10" stroke-linejoin="miter" fill="none" stroke="#000000" d="M94.86034 0V159.13474"/>
<path transform="matrix(0,-1.00002,-1.00006,-0,96.96201,3.7890168)" d="M1.99252 0-1.19551 1.59401 0 0-1.19551-1.59401"/>
<use data-text="x" xlink:href="#font_2_1" transform="matrix(9.963197,0,0,-9.962799,187.3461,78.84525)"/>
<use data-text="y" xlink:href="#font_2_2" transform="matrix(9.963197,0,0,-9.962799,100.48188,9.613876)"/>
</svg>
